<mxfile host="app.diagrams.net" modified="2023-05-12T12:02:51.716Z" agent="Mozilla/5.0 (Windows NT 10.0; Win64; x64) AppleWebKit/537.36 (KHTML, like Gecko) Chrome/113.0.0.0 Safari/537.36 Edg/113.0.1774.35" etag="SGhcetpV74DJKsQSEkfG" version="21.2.9" type="device">
  <diagram name="Trang-1" id="67UG1uEhcLQPkKPFp8Aj">
    <mxGraphModel dx="1194" dy="478" grid="0" gridSize="10" guides="1" tooltips="1" connect="1" arrows="1" fold="1" page="0" pageScale="1" pageWidth="1200" pageHeight="1920" math="0" shadow="0">
      <root>
        <mxCell id="0" />
        <mxCell id="1" parent="0" />
        <mxCell id="t3a6bA_m1dEb0LeNE2pt-31" value="h(record&#39;) = hash" style="html=1;verticalAlign=bottom;endArrow=none;dashed=1;endSize=8;edgeStyle=elbowEdgeStyle;elbow=vertical;curved=0;rounded=0;endFill=0;strokeWidth=1;fontSize=12;labelBackgroundColor=none;" parent="1" source="t3a6bA_m1dEb0LeNE2pt-29" edge="1">
          <mxGeometry x="1" y="-5" relative="1" as="geometry">
            <mxPoint x="137" y="565" as="targetPoint" />
            <Array as="points">
              <mxPoint x="190" y="565" />
            </Array>
            <mxPoint as="offset" />
          </mxGeometry>
        </mxCell>
        <mxCell id="t3a6bA_m1dEb0LeNE2pt-41" value="2) Generate" style="text;html=1;strokeColor=none;fillColor=none;align=center;verticalAlign=middle;rounded=0;rotation=326;whiteSpace=wrap;" parent="1" vertex="1">
          <mxGeometry x="200" y="380" width="90" height="30" as="geometry" />
        </mxCell>
        <mxCell id="gwsJzEs3Ez4FBZNN80l5-35" value="" style="shape=image;verticalLabelPosition=bottom;labelBackgroundColor=default;verticalAlign=top;aspect=fixed;imageAspect=0;image=https://cdn-icons-png.flaticon.com/512/689/689360.png;" parent="1" vertex="1">
          <mxGeometry x="10" y="394" width="78" height="78" as="geometry" />
        </mxCell>
        <mxCell id="gwsJzEs3Ez4FBZNN80l5-2" value="" style="sketch=0;pointerEvents=1;shadow=0;dashed=0;html=1;strokeColor=none;fillColor=#505050;labelPosition=center;verticalLabelPosition=bottom;verticalAlign=top;outlineConnect=0;align=center;shape=mxgraph.office.concepts.node_generic;" parent="1" vertex="1">
          <mxGeometry x="270" y="159" width="49" height="52" as="geometry" />
        </mxCell>
        <mxCell id="gwsJzEs3Ez4FBZNN80l5-3" value="" style="shape=image;verticalLabelPosition=bottom;labelBackgroundColor=default;verticalAlign=top;aspect=fixed;imageAspect=0;image=https://cdn-icons-png.flaticon.com/512/9118/9118547.png;" parent="1" vertex="1">
          <mxGeometry x="270" y="290" width="78" height="78" as="geometry" />
        </mxCell>
        <mxCell id="gwsJzEs3Ez4FBZNN80l5-4" value="" style="shape=image;verticalLabelPosition=bottom;labelBackgroundColor=default;verticalAlign=top;aspect=fixed;imageAspect=0;image=https://cdn-icons-png.flaticon.com/512/6611/6611183.png;" parent="1" vertex="1">
          <mxGeometry x="180" y="447" width="50" height="50" as="geometry" />
        </mxCell>
        <mxCell id="gwsJzEs3Ez4FBZNN80l5-5" value="" style="shape=image;verticalLabelPosition=bottom;labelBackgroundColor=default;verticalAlign=top;aspect=fixed;imageAspect=0;image=https://cdn-icons-png.flaticon.com/512/5044/5044729.png;" parent="1" vertex="1">
          <mxGeometry x="10" y="240" width="59" height="59" as="geometry" />
        </mxCell>
        <mxCell id="gwsJzEs3Ez4FBZNN80l5-34" value="" style="shape=image;verticalLabelPosition=bottom;labelBackgroundColor=default;verticalAlign=top;aspect=fixed;imageAspect=0;image=https://cdn-icons-png.flaticon.com/512/2355/2355692.png;" parent="1" vertex="1">
          <mxGeometry x="50" y="385" width="62" height="62" as="geometry" />
        </mxCell>
        <mxCell id="t3a6bA_m1dEb0LeNE2pt-1" value="" style="shape=image;verticalLabelPosition=bottom;labelBackgroundColor=default;verticalAlign=top;aspect=fixed;imageAspect=0;image=data:image/png,iVBORw0KGgoAAAANSUhEUgAAAgAAAAIAEAYAAACk6Ai5AAAAIGNIUk0AAHomAACAhAAA+gAAAIDoAAB1MAAA6mAAADqYAAAXcJy6UTwAAAAGYktHRAAAAAAAAPlDu38AAAAJcEhZcwAAAGAAAABgAPBrQs8AAAAHdElNRQfnAxoMKiIMgDgZAAB82klEQVR42uzdeZyO9frA8et6ZrEVZsbaImsiUkpUosVJWdpspwVRM4Nkyb7NPbcZ+1IIsxQhLQZ1hNNCJ1RIqShLVKgQ8zxj32bm+f7+yOPXUadSM/Odmefzfr3Oq1ed4uMZY57vNfd93SIAAAAAAAAAAAAAAAAAAAAAAAAAAAAAAAAAAAAAAAAAAAAAAAAAAAAAAAAAAAAAAAAAAAAAAAAAAAAAAAAAAAAAAAAAAAAAAAAAAAAAAAAAAAAAAAAAAAAAAAAAAAAAAAAAAAAAAAAAAAAAAAAAAAAAAAAAAAAAAAAAAAAAAAAAAAAAAAAAAAAAAAAAAAAAAAAAAAAAAAAAAAAAAAAAAAAAAAAAAAAAAAAAAAAAAAAAAAAAAAAAAAAAAAAAAAAA8Oeo7QAAAHDhuncfM+bQoYiI7Owzdf3+m2/WZH9LE9GggRzTtdKlRg15x9ykb1arZq4RMXMrVNBYEZGSJeU5TZR1JUqc+4F6muHS6PhxkywicuSIbhLRTvv3yz9FzLU7d5p1Ho/M3LFDkuVNLfPJJ6eT/S014sMP56irEXrokO3XAQAA/HkMAAAAyMd61Eio5L2zVq3sIVm75el27eQDEdn84IOyWUfKbXXrSn0xUsPjybOgjaKyw++XhXKZLNi0Sf5pusqpRYs8n4bebb5PS5t5ZsTbZd7cvt326wYAAH6NAQAAAPlAu7aOMf7w8IhIkYxDbdvqGp0njXv3libyrVlz4422+/60u4yjV65fL995+shrU6aY7RVqRdyxcGFKamw39WRm2s4DACCYMQAAAMACxzjG+END96d7mmXc0aWLPOZfIescRy5T1/x46aW2+3LMQ1JKwn/4QRbru3IkPt63r9ZjkZe8+GJaWvv2qtnZtvMAAAgmDAAAAMhD3d52THrKHXeYeZqiHadNkxKyT07Urm27K8/0NY4c/+orqSniv7xnz2R1tay+/77tLAAAggEDAAAAclFMjGP2RhcvrlVEiqyNi5PFOlKeHzAgz+/dz2+6GUe8xohXt8jK1NQQn6mdHdmv34z2rpbrcOyY7TwAAAojBgAAAOSC2HUJAw7eWqOGqZA1PuTzf/1Lx6hrdtWqZbsr38owjvbfsUPuFjFt778/uaurUS23bLGdBQBAYcIAAACAHBS7zjG+JS1ayOsipvbLL8shdSWiVCnbXQVGaeNIxuHD8oCIbnn44eRGrkbeu3y57SwAAAqD4L30EACAHNTtbcf4xv/zn/KSiPn2jTc4+P9Fgddti4gJWbIkdrhj0n2dOtnOAgCgMGAAAADA3xDjdR/wjurSxfwoYq5+6SXJVFc6hoXZ7irw1qsrjUJCpKqIrp01i0EAAAB/HwMAAAD+gugl7vu+gffco2XNdVIpJeXcgRU56/xBQGn3tYzOrVvbzgIAoCBiBwAAABeg2/CRzx968LrrzCr/Af8Hq1dLbTljtl50ke2uoHGncbTc0aOyKeRtfenWW5MT4+6OeOiLL2xnAQBQEHAFAAAAf0KPBY458NpFF5kXsx/3//jKKxz8LVmprjlw8cWmi/8b89nChV0HjNuW3vrii21nAQBQEDAAAADgT8jO1vUhI2bOlJbqmuU1a9ruCXY6Xg6aQdWrh40/UdNTYdo02z0AABQE3AIAAMDv6PaM+6n3ZPPmZpt5U0689ZbtHvwPXYyjH7ZsyWMDAQD437gCAACA3/DU8ql3G3+RIuZ2s17bTZ1quwe/z5TVGfLBlCmdjWO+M0WL2u4BACA/YgAAAMBvODMx4+OMDX36yEw5YOZceaXtHvy+wC0BRd8WKfXPnj1t9wAAkB8xAAAA4BdiYhyzN7p4cQkzQ2XO00/b7sFf0b9/348mN/p+UrFitksAAMhPGAAAAPALns88VYsMjY2VynLMJJQrZ7sHF+h1dc2M8uVPPHv0WPFXn3jCdg4AAPkJAwAAAH7B7PN/q/+MjbXdgb9pqOmh5bkVAACAX+IpAAAAiEhMtGN83saN1aOukTVrbPcgZxi/Z7P0a9QoJTVuUdSL69fb7gEAwCauAAAAQEQ0TLebJx95xHYHcpY+nr1QH+zY0XYHAAD5AQMAAABERDqZmnJ98+a2M5DzzPYWLWw3AACQH3ALAAAgqMXEOCZ9w1VXqaqrVbdutd2D3BFyp3GyV9SoMaO9q+U67NxpuwcAABu4AgAAENziRTxzmzSxnYHclf2Bp2VI46ZNbXcAAGATAwAAQFDTerrTpNWrZ7sDuSzMv0yn8HEGAAQ3BgAAgKBmtpnq8lTdurY7kMsmiphvr7nGdgYAADYxAAAABDXtJKIJVava7kAuW6XPyuxq1WxnAABgEwMAAEDQMkZVqoiYseXK2W5BLhti+sigsmVtZwAAYBNPAQAABKXu3ceMOXQoIsLvP306O9vns92DvBF+n3FkXalS01q4GtXyyBHbPQAA5CWuAAAABKXTF50anNWxWDHbHchbmSEimaFFi9ruAADABgYAAICgVLSBiP9Rv992B/KWf6FIiSF83AEAwYkBAAAgKJ3cUaRCsRrZ2bY7kLeyrxLxP8cAAAAQnBgAAACCUtiuKPeiaw8dko2isoMDYaHX0DiyLjv7yLqr00redPiw7RwAAGxgAAAACEopqbHd1JOZKW+bOHnB67Xdg9xlbtZnNPann9LS2rdX5coPAEBwYgAAAAhuR3WWXPzjj7YzkLs0yvSV6nycAQDBjQEAACComa9MV71682bbHchdZqN+IZ/xcQYABDcGAACAoOZxPFXNHZ99ZrsDucsz1dQzp/k4AwCCGwMAAEBw82ox/eDjj21nIHfpdhFZ9MkntjsAALCJAQAAIKh5r78qPuLRdeukhRSTZT6f7R7ksLMf1/Trrk6LbLFhg+0cAABsYgAAAAhq57bC3y+NpN6KFbZ7kMPamoEy59//Zvs/AAAMAAAA+NkLpon8kJZmOwM5bKFntmnBxxUAABEGAAAAiIiIb7lI5D1LlsgY48jggwdt9+BvesA42uOnn8zSCmei+i5fbjsHAID8gAEAAAAikrbQVfWcOSM3aLrUmzPHdg/+Hp2mR82/Zs9OSY3tpp7MTNs9AADkBwwAAAD4BdMs7Hr/ocmTZZZxtMvJk7Z7cIFulVDtd+rUmdrmYvOPadNs5wAAkJ8wAAAA4BdSUobtKTt83z5ZIyJPzJpluwcX6Fp5TN5KSpo1wdUyb+7dazsHAID8hAEAAAC/IWSPSNbJxEQpbRzJOHzYdg/+QJwUlZ2HDumP5tIzc8aMsZ0DAEB+xAAAAIDfMKO9q+U67N9vfCKSGBdnuwd/4KgZ5Ll32LCk5q5WaH7ggO0cAADyIwYAAAD8joxDV6dFzp4+XVZLVb31449t9+A8dxlHr1y/3jfi6rTS+5OTbecAAJCfqe0AAAAKgu7dHXPoUNWq/pIi2ekbN8ohdSWiVCnbXUHr7CX/2UdD/hmypH79568aUbn0qO++s50FAEB+xgAAAIAL0K2eY3xV27c3L4qYt159VZLUlSjl62le6WYc8RojN4pI97ZtkzNdjVq5eLHtLAAACgJuAQAA4AIkfeFq5LcLFkgPEXmW3QB5rp8nSjOGDOHgDwDAheM7FgAA/A0xKxzjHZyUpGnqyoDYWNs9hdZieUSunjEj+WB8jaj9Tz5pOwcAgIKIKwAAAPgbUpq5Gjmme3dZZhxtMWWK7Z5C5+zBv8IBUz1y31NP2c4BAKAg4woAAAByiDGqsbUck7Fx1Chpoq6pPGSI7aYCJ3CPf1f1690JCcmfxYdEfus4trMAACgMGAAAAJALYrLcwb4OHTroHv8Y2fTCCzJOXfNBiRK2u/KtLRKutY4dM1fpGbOla9eUVCc+qkxamu0sAAAKEwYAAADkopjokVt93rp1NTv7KpM6b56EqSvR9erZ7so3VhpHen32mU4X0XqdOiU1dzVy4Jdf2s4CAKAwYgAAAEAeiIlOTjL+sDDR/U/5pg4erJv9Z+TrYcPkGnUloUgR23155lYJ1X6nTpm6ZphZkZBQ8RqRyD3jx7vqqnqysmznAQBQmDEAAADAgu7exO6+Dpdf7v8sq6e5bfhw2WNqS6XHH5f16kqjkBDbfTlmo6js8PtliYmT6osWeUaKhIQOHjxzpqulS3/7re08AACCCQMAAADygR41Eip576xVK/sf2e9I2V69ZLMs1vcefVRqyxmz9aKLbPf9aWfv5ddvzBBTbd48fysRM3Xq1JQUV8s02LbNdh4AAMGMAQAAAPlQTPTYMT5vqVIe/+nlsvCf/zTRpp90e/BBecncZ565/XbJVFc6hoVZC+wtIfLsmTOmkhkuT/7nP3JEREctXlzkcxFz96uvTmvhalTLI0dsv44AAOD/MQAAAKAA6Wwck2FKly7aTV2/LyPDVsepJON4IiMi5qirEXrokO3XBQAA/DGP7QAAAPDn5ZcDd37pAAAAfx4DAAAAAAAAggADAAAAAAAAggADAAAAAAAAggADAAAAAAAAggADAAAAAAAAggADAAAAAAAAggADAAAAAAAAggADAAAAAAAAggADAAAAAAAAggADAAAAAAAAggADAAAAAAAAggADAAAAAAAAggADAAAAAAAAggADAAAAAAAAggADAAAAAAAAggADAAAAAAAAggADAAAAAAAAggADAAAAAAAAggADAAAAAAAAggADAAAAAAAAggADAAAAAAAAggADAAAAAAAAggADAAAAAAAAggADAAAAAAAAggADAAAAAAAAggADAAAAAAAAggADAAAAAAAAggADAAAAAAAAggADAAAAAAAAggADAAAAAAAAggADAAAAAAAAggADAAAAAAAAggADAAAAAAAAggADAAAAAAAAggADAAAAAAAAggADAAAAAAAAggADAAAAAAAAggADAAAAAAAAggADAAAAAAAAggADAAAAAAAAggADAAAAAAAAggADAAAACpC+H01u9P2kYsXoAAAAF4oBAAAA+ZwxqjHRbrw3vV27ExOOPFw8assW200nRh1eW2LYjh0xex3jeyompl27BQuMCQmx3QUAAP43tR0AAAB+rdvbjklPueMOk64ven6aMEFWy27To359213/U1/jyPGvvpJDIvr5wIHJjVyNvHf5cttZAADg/zEAAAAgH4iJcUz6hquuUldEq4wcKfHqirZrZ7vrr9J5co3etWKFLjEPaMV+/WY2czVi6aZNtrsAAAhmDAAAALAgJtoxR+uXKeP5QPdk1hgxwmyXOaZVjx4SLX5pERpquy/HbBSVHX6/cU2cfjV/vrwRfkX2vkGDUlKG7Sk7fN8+23kAAAQTBgAAAOSBmBjH7I0uXlx3eqKKPvHUU7LWDDA1hw6VTnJaskuWtN2XZwYZRxsfPy6viZiQ557L9BXfbqqMGjVrwqCryrx59KjtPAAACjMGAAAA5ALHOMYYj2dfjMf1edu0kYF+R9ZPmKAT1ZVGV1xhuy+/MH2lpNbbu1dKmr7ygOtm9L46LWLqCy+kpbVvr5qdbbsPAIDChAEAAAA5KHq+Y7x1mjXzNNZZcteECTJavpdh115ru6ugMEOMo5W3bvVMENFLBg5Mmu5qxPalS213AQBQGDAAAADgb+hRI6GS985atbJXZ+2W11y3oC/vy28CywTN057i2r9//+TEuLsjHvriC9tdAAAURAwAAAC4AF0HOCa99SWXhDXXLdrCcWSPqS2VHn9c1qsrjUJCbPcVWmeXCcoSEyfVFy0K7RdWxTN5wIDpLw/fFTF6927beQAAFAQMAAAA+B2/Wt7Xze+Vm4cNk5XqmgMXX2y7L2gVlzC998QJKWeGmsPTpoXXE5Fxo0dPa+FqVMsjR2znAQCQHzEAAADgFwLL+/aPEPFmPPqohIt47hg7Vn5U16ysWNF2H/6HslJcJqWnSyt9XiISEys09G+P7Dd9uquuqicry3YeAAD5AQMAAADkF8v7VorIoxMnSpi6El2vnu0u/EX1pLw22LbNfKY/mY/j4lJSnfioMmlptrMAALCJAQAAICjFznKMd1nt2nKDiHwyfrxMV1d6tmxpuwu5pKxxtNPKlSohL3iKDBiQlBj3ROnFn31mOwsAgLzEAAAAEBS6tUxc6S166aWmb1YFeSYujuV9Qeq8ZYJSQcQTNXBgsroaobt22c4DACA3MQAAABRKHctNmLv/7RIlitc50Se8dM+eLO/DbzpvmaD5tthYXTVmTErq4CGRUYcP284DACAnMQAAABQKv1re95xO9rQbN046yFGzoEIF230oIOYbR+Z4vbLCU1OyExJYJggAKEwYAAAACrRzy/tOi8i4yZN/vqS/bl3bXSgklhlHW2zfbu7xuGbZiBEsEwQAFGQMAAAABUpMjGMOJtavr/8UCTk5caK8pq55+vbbbXchSBQxjpxau1a+CWmq1fr1S14Wtzry1Nq1trMAAPgzGAAAAPK1J6Y4xrvssstCrtYtsmfECJb3IV/oZhzxGiMVRCRy4cLsw6G7Q54ZNOj5q0ZULj3qu+9s5wEA8FsYAAAA8pUeCxxz4LWLLspuJxLSvn9/CRfR+wYOlK7qmtnFitnuA35TbwmRZ8+c0TbSSb9OSvI3LvqyzIiLY5kgACA/YQAAALDKMY4x/tDQfftEMnp37aqbROTAyJHyurpmRvnytvuAvySwTPBGT5TeMmFCeP+IGyMaPPvstBa93lLP6dO28wAAwYkBAADAinPL+4Zpqrz4zDPSXPZKlTp1bHcBuaK7lNPOX39tpusB8+Lw4SmpTnxk1MKFIiKqxtjOAwAEBwYAAIA8EdvVMemtb7hBXhDRIhMnSjd1JblpU9tdgA1mpFSXUuvWeW7yjNZX+vdP+jZuS2THDz+03QUAKNwYAAAAckV3b2J3X4fLL/d/ltXT3DZ8uAyRhXLdE09IfTFSw+Ox3QfkC+ctE/SMFAkJHTx45kxXS5f+9lvbeQCAwoUBAAAgR/xqed98HaVdBg2SNZJlJhUtarsPKBDOWyZ4couppK86zhx1NUIPHbKdBwAo2BgAAAD+kpjo5CTjDwsTd29sRu8uXbSLTpLshASpLMdMQrlytvuAQqGFFJNlPp9M0XFac/x4lgkCAP4OBgAAgAsSW9p9LaNz69bmU5Nuyk+erOPloBlUvbrtLiAYmP7GkXW7d+scEXNTXFxyoqtREfPmibBMEADwxxgAAAB+V3Svkd3TFzZo4Cniv01XTZwoR2SrxDdpYrsLgIislqp668cf6yrPQC3Rv39Subj9ERvWrLGdBQDInxgAAAD+S0y0Y3zeSpXkARF5IzFRK4qYWx99VJLUlSjl6waQj5kpcqMMXbpUeoUcDj3Zp09KyoiHSs395hvbXQCA/IE3cgAQ5Lp3HzPm0KGICH+lU4OzGw8aJJfrKL2hd2+W9wEFWJhxZF5mptyvW6TI7Nln1offEd5w+PDZw4b+dHH9gwdt5wEA7GAAAABB5lfL+4qKmFOJiTJEXRlbtqztPgC5YIdxZF1GhognSsuMG3dqpd97+MYpU+aoq1X01CnbeQCAvMEAAACCRGB5nzj+9n595hnZpq5MqlbNdhcAC6pKhHyzZ48cNb1M9REjWCYIAMGBAQAAFFIx0SPbeB9r2FAf8LeVWydOlH/Jdrm/cWPbXQDyoUTjaJsNG+ReEb25f//kta5GjF692nYWACBnMQAAgELiyYcTK2cMveKKzEczvzPVEhJY3gfgrwosE9TPQ/7j3/L008mNRkwou2bHDttdAIC/hzeEAFBAPT7JMYc/iowMPSOSFTNwoCwRkSZ9+sg16kpCkSK2+wAUAuctE9RsUzuz6ogRSc1drdD8wAHbeQCAC8MAAAAKiHZtHWP84eGR/T01fZO6d5fLTVdpEh8vI+WUVC9d2nYfgCCwRcK11rFjstoMMT9NmnRKRI7I2LEsEwSAgoEBAADkY8aoxkS78T5v27a6xETJ+LFj5X7xyqCqVW23AYAsNI4c+f57s1lEJycmVqwoEjH1+edddVXV77edBwD4bwwAACCf6V7dMd5ljRr5i4uITJwoN6krjW65xXYXAPwhlcra45NPZKbpnP3qgAHJ6mpZff9921kAgJ8xAAAAy6IvdszB9Vde6flaxFMtMVHi1RVt1852FwD8XTpPrtG7VqyQ180D0qFv36TmrkYO/PJL210AEKwYAABAHnty/egVR0ZFRWW9d/rOzFcGDJD7NFEe6NtXpki29AkPt90HADkuVTyyPCtL3pE2cmzWrOw+Ye9m1YiLe/7LYX3KN/vpJ9t5ABAsGAAAQC771fK+1/3b5QHXlUPqSkSpUrb7ACDPnbdMsPjaUjedmDxu3DM3P73u8n4nT9rOA4DCigEAAOQwxzjGGI/npxTPY953H3nEDPW/qDVGjZK26krJyy+33Ycg00Su0BkbN+rL0saMeucdqaAtdcquXef+//1mmeldubLZbi6WNs2by53qytTrrrOdjSBzdpmgjvY8ZnYMG1Y+xv9i1D/mz2eZIADkLAYAAJBDur3tmPSUO+4w6fqi56cJE2S17DY96te33YUg00Wu1TLvvON51NxnljrOzJ2uRrVct+7P/uexLUc28RW96SYZ4X9aTsfHy2z53KTfdZftXxaCTGBwVcY85i8/YEBSc1fLxLz3nu0sACjoGAAAwF/UPTyheXrrmjX9u7Pe0tkJCSzvgw1miHG08tatMsrjmu8cJyXViY8qk5aWUz9+9HzHeOs0a+ZZKSKPTpwoYepKdL16tn/dCC6BZYK6xDygFfv1m9nM1YilmzbZ7gKAgoYBAAD8STHRjjlav0wZzwe6J7PGiBFmu8wxrXr0kGjxS4vQUNt9CA6mr5TUenv3SknTVx5w3YzeV6dFTH3hhbS09u1Vs7Nz6+cN3NqyL8bj+rxt2shAvyPrJ0zQiepKoyuusP26IEhsFJUdfr9xTZx+NX9+6DGRrIsGDpzR3tVyHfbvt50HAPkdAwAA+B9iYhyzN7p4cd3piSr6xFNPyVozwNQcOlQ6yWnJLlnSdh+CRHEJ03tPnJByZqg5PG1apq/4dlNl1KhZEwZdVebNo0dtZfH5gXxhkHG08fHj8pqICXnuufzy+QEA+RUDAAA46/zvcGq6iZSl48dLOfFJ68qVbfchSJz3HU55I/yK7H2DBqWkDNtTdvi+fbbz/heukEG+8INx9NIffzSpIhI9cmReXSEDAAUFAwAAQS+2lrs//Yc775RMf3kdNGECW9BhQ+AeZ/O0p7j2798/OTHu7oiHvvjCdtdfFRPjmPQNV12lrohWGTmSHRmw4rhUlOJbtpjieqmeHDgwJcVpFRm5bJntLACwhQEAgKDDwQT5QpAdTBi0IT8obIM2ALhQDAAAFHpcmox8gUuTRYRbbZBPFNBbbQDg72IAAKDQYTkZ8gWWk/0pfL4iXzhv2WZ4PREZN3r0tBauRrU8csR2HgDkFAYAAAq8wHcU948Q8WY8+qiEi3juGDtWflTXrKxY0XYfggSPJ8sRXLGDfKGsFJdJ6enSSp+XiMRE36RaiZH9n3su2K7YAVD4MAAAUGBFz3eMt06zZp6VIvLoxIkSpq5E16tnuwvBJXBPsS4xD2jFfv1mNnM1YummTba7Covu4QnN01vXrOnfnfWWzk5IYGcHbDBDjKOVt26VUR7XfOc4KalOfFSZtDTbXQBwoRgAACgwYmc5xrusdm3zsP5blowbp73lYxndqpXtLgSZvsaR4199JYdE9POBA5MbuRp57/LltrOCRbe3HZOecscdJl1f9Pw0YYKslt2mR/36trsQZMoaRzutXOnfJqJL+/dPXehqhH7+ue0sAPgjDAAA5FtdBzgmvfUll4Q11y3awnFkj6ktlR5/XNarK41CQmz3IUg8JKUk/IcfzJWmjw5NSAjW5X35kTGqMdFuvM/btq0+7ndk9rhxMltd6Vqliu02BImzt/7IEhMn1RctCu0XVsUzecCA6S8P3xUxevdu23kAcD4GAADyjY7lJszd/3aJEsXrnOgTXrpnT+nm98rNw4bJSnXNgYsvtt2HILFFwrXWsWOy2gwxP02aVHxtqZtOTB437pmbn153eb+TJ23n4be1a+sY4w8Pj+zvqemb1L27vO7fLg+4rhxSVyJKlbLdhyDBMkEA+RwDAADW/Gp533M62dNu3DjpIEfNggoVbPchSKSKR5ZnZck70kaOzZqV3Sfs3awacXHPfzmsT/lmP/1kOw9/zZPrR684MioqKuu903dmvjJggNynifJA374yRbKlT3i47T4EifOWCVZo6N8e2W/6dFddVU9Wlu08AMGHAQCAPBc9fWSRjPeaNvWs9U/13zRjhpSQfXKidm3bXQgy3xpHX/jXvzyrQu/2rxk0aOaZEW+XeXP7dttZyB3nlgk2zXrLc+u4cVJVXfP4fffZ7kKQOS4VpfiWLf6bPL08a3v0SH0y7nTEHatW2c4CEDwYAADIE8aodivtFvM1GzrUTPafkKddl3v5kacSjaNtNmzwLwgpqnEDBgTrG+/oXiO7py9s0CDw96lT42aWabthg+2uPH8dAoPI9tmnzMgJE2S4umbR/78uQK5qaBxZl51trheR2Li4lHquRv0werTtLACFHwMAALmuWwO3ive7vn1NfdNZSk6ebLsHQeK85X0VK4pETH3+eVddVfX7beflle7exO6+Dpdf7v8sq6e5bfhwGSIL5bonnpAUEyeRqlJBRCIXLvSMFAkJHTx45kxXS5f+9lvb3Xnpv5YJLjFRMn7sWLlfvDKoalXbbQgOxm8c6de7d0qqq1EvTp1quwdA4cUAAECuiW7rmAxz7bWeCiL+KR9/LJnqSsewMNtdKKTipKjsPHRIbzWD9OsxY05+I3L40alT56irVfTUKdt5eaXHAscceO2ii7LbiYS0799f5uso7TJokKyRLDOpaNH/+R/2lhB59swZbSOd9OukpJNbTCV91XHmqKsReuiQ7V9XXulsHPOdKVq0WDWRUi/16mXW6Dhz5ZAhMlJOSfXSpW33oZAKM47My8yU0iFve8o3aJCcGHd3xENffGE7C0DhwwAAQK6JWe4Y3wtz5+q/1DX3d+xouweFTOAN8/26RYrMnq3ZpnZm1REjkpq7WqH5gQO28/JKTHRykvGHhYm7Nzajd5cu2kUnSXZCglSWYyahXLm//AO3kGKyzOeTKTpOa44fH94/4saIBs8+O61Fr7fUc/q07V93Xnl8kmMOfxQZGXpGJCtm4EBZIiJN+vSRa9SVhCJFbPehkEkyjg6eMydZXY1Mfewx2zkACh8GAAByXEyMY/ZGFy+uTXRU0Uyv9w+/8whciGuksd6/eLFcH/J2tgwenNxoxISya3bssJ2V12JLu69ldG7d2nxq0k35yZN1vBw0g6pXz62fz/Q3jqzbvVvniJib4uKSE12Nipg3T0RE1Rjbr0deiV2XMODgrTVqyKfZzUNk7FjZJB+YNx580HYXColbJVT7nTpVvGrJpcfrRkby+FEAOY0BAIAcFxM9cqvPW7euevyvGdm0yXYPCrizy/vkXhG9uX//5LWuRoxevdp2Vl4LLO/zFPHfpqsmTpQjslXimzSxFrRaquqtH3+sqzwDtUT//knl4vZHbFizxvbrlNdioke28T7WsKE+4G8rt06cKP+S7XJ/48a2u1Cw+Td6hmiDOnVSN8QVifz2q69s9wAoPBgAAMhx3Z50TEbNVq1Mlrr+j95803YPCpguxpFZ331nbvAM0U+GDEkJdcZGvLpggUhwfac5JtoxPm+lSvKAiLyRmKgVRcytjz4qSepKlOa7r99mitwoQ5cuDV1i7sm+o2/fGe1dLddh507bXXn6GhjVmCx3cMY/27fXT/xjzA1jxshsdaVrlSq221CwGKM3qLZqlZLitIqMXLbMdg+AwiPfvYEAUPDFhjnGe+eDD0pXdWXBokW2e5DP7TCOrMvIEPFEaZlx406t9HsP3zhlSrAt7+vefcyYQ4ciIvyVTg3ObjxokFyuo/SG3r0L3C005+1mOLM+/I7whsOHzx429KeL6x88aDsvr/xqN0NREXMqMVGGqCtjy5a13Yd8bpZxpH2bNsmZrkatXLzYdg6AwoMBAIAcxwAAv4vlfSISRAdEBjwi8hsDHpYJ4vcwAACQSzy2AwAAwSFwiXhIE5HsirVrJzeLvzqqe2xssB38A8v7tPbeWF/XrVvVVdfEJycXuoN/QA11pVFEhNQwvUz1sWOLlhEpuevrr2OHOybd16mTyM+XztvOzG0zZw4ZUrp0RkbyEFejvhw82NQR0YQrrzT3GUffmDdPuhlHvMFziwsAwA4GAACA3BFYEpfgSfLc3aRJStH4FlHJrVsH273hgSVxscvjX/G+sGaNdDBb/ZOXLJFt6sqkatVs9+W5tupKycsvl4PqqpkzJ/agYzJuX78+evrIIhnvNW1qOy+vpKS6Ghm1Z09KC1cjH+/USYeLyDWNGpnRxpGk4FumCADIG6G2AwAAhURViZBv9uyRo6aXqT5iRPJWVyO/mjdPygXX8r5zj4m7Imu85/VRo2R/toivbdv8urzPuuHqmkUNGnjEP8TI++93Kx5/je/6FSuyr/a0lIw+fYJlC3rSMlejTn38sUSJyLAmTWJLu69lfJ13j3kEAAQHrgAAAPw1LaSYLPP5ZIdO1Z2DB4fXjfx35A1XXpmc6GqZyLlzRYLj4P/4JMcc/igyMnaMY7x1xo6VvlnjPXU3b5Z4dUXbtePgf2FMR9lk3mnWzNMwO9z0+uyz2BXxX3lnJic/UWfUsz+tKF/edl9eST7kdIiY8+abMrZiSMTY2rWNYxyNj42VXXKRjgieW2YAADmLAQAA4M8JLO9rJ+1kQUrKmS/DJ4fXueqq5PccX2TDceOmtej1lnpOn7admdvatXWM8YeHx65zr/RO6N079J86Livkm29kl7qyatAglrrlkEx1pWNYmKRJmrSPiQmJyDwR9vDOnbHGMV4TH9/3o8mNvp9UrJjtzNyWkhrbTT2ZmSmXuBo5LSXFU7VIpmf0VVdJZeNI03Hj5FYJ1X7Bs0wRAPD3MAAAAPy2wFKyeOOISUszZ0JfDd1Yq1ZgeV8wPdbNGNWYaDfem96uXeQafc43eOtWmW0elq7PPisj5ZRUL13admOhV1vOmK0XXSTd1BWf45w4c6RD8Zivv47Z6xjfUzExjnGMMZ5C/77m/GWCnntCf5STV14ZGMzJRlHZ4ffb7gQA5E+F/gslAOAC3WUcvXL9ejNDRKOaNEmu6GpUmfbtU1JGPFRq7jff2M7LK7EtRzbxFb3pptjj8fN9Gz/4QD1GRBcskPvFK4OqVrXdF/RekcNy5rLLAk9R2LdPJKPXxx/HxLgn01vffrvtvLwyM2r4zMjXvv8+MJjz3+TZb35o1EiSjCOxq1bZ7gMA5C8MAAAg2GUYR/vv2GH8KmLat09u42pE+k03/byl/IMPbOflle7hCc3TW9esGbvPMd70BQvkMv8d5sePPpKnZYdUvvlm2334fT8PAq6/XtWM0xffe69b8fjFvuvffTcmeuRWn7duXdt9eSV1atzMMm03bEhWV6MW3nabv4lxpOk//iF9jSPHC/8yRQDA72MAAADB5vzlfY9F3RPxQt26KalOfFSZtDSR4Fje9+T60SuOjIqKCizv83+e3Viv3bTp3PI+FGiBZYL6gj/NLN+4MbBMsMcCxxx4rUIF2315JfURV6O+XLHCTLokOfKy6647t0zwAeNoj59+st0HAMhbbCUGkONiwxzjvfPBB6WrurJg0SLbPUGvt4TIs2fOaBvppF8nJZ3cYirpq44zR12N0EOHbOfllcDSuBPDj35donGvXtLA7zVRQ4bIIXUlolQp233II4OMo42PH5fXREzIc8+FVBPJHpGYOKO9q+U6HDtmOy+v/DwIueii7HYiIe3795dwEb1v4EDpqq6ZXfiXK+Z7s4wj7du0Sc50NWrl4sW2cwAUHgwAAOQ4BgCWBZb3VRCRyIULPSNFQkIHD54509XSpb/91nZeXgos7/N527bVdBMpS8ePl3Lik9aVK9tuQz7xg3H00h9/NKkiEj1yZEbvq9Mipr7wQlpa+/aq2dm28/LKE1Mc41122WUhV+sW2TNihAyRhXLdE09IfTFSo/AvV8x3GAAAyCX8gQ4AhYQZKdWl1Lp1/mUiOqJx48DyvmA7+MfWcven/3DnnbHVHeN79NNPzy3v4+CP33KZuubHSy8NLBOMLLIlw3dq06aYGHepz9eype28vPJ8b1ejWv7wQ2CZoOcGj/qr3XijfCJX6/z337fdBwDIGQwAAKCg6i7ltPPXXweW96WUj380KvSmm1KHuxr52kcf2c7LKzExjknfcNVV55b3NTFJWmzFCrlTXZl63XW2+1DAlJB9cqJ2bVXziTFLlwaWCXZf4ZiMVtdcYzsvr8ycGRdXtuynnyZ/Gt8ustftt59bJtjQOLJu82bbfQCAvybUdgAA4E/aYRxZl5GhxUSkTVxc+XoiESeSktzUeFVPVpbtvLwSE+2Yo/XLlPF8oHsya4wYYZ6XBLOtRw9R8UvVUL6uIUcFlgmaIbrZ7Pjss5jljvE9MH++vBF+Rfa+QYNSUobtKTt83z7bnbktsEzQMY4x99Svv/9m4xyqGBMj5UT898bHyxB1ZWzZsrY7AQC/jzdKAJDfnb0EV0eLnKnZoUNSc1crnDpwQFSC4jqumBjH7I0uXlx3eqKKPvHUU/KSGXum5tChppOcluySJaWJ7UIEhbP3wuu/1DU1OnaUwWd2hzR+8MHYKo546zz3XKav+HZTZdSoWRMGXVXmzaNHbefmFlfdXwwcZ8zo3n3MmEMTXnkle9IpJ/vUK69oP3UlrHlz250AgN8WBG8dAaCA6iLXapl33jn1iWl7+Kl77klq7mqF5gcO2M7KbY5xjDEeT0y0G+9Nb9dOBogUuX/LFqlhepnqY8dK4OAP2DROXfNBiRKyS11ZNWhQ6OMnl3s+27YtZq9jfE/FxLRrt2CBMSEhtjNz28yZQ4aULp2RUbGESGS5Vq1kk3G07rvv2u4CAPw2BgAAkN/MN47M8XpD9pj7sl7t3HmOulpFT52ynZXbouc7xlunWbP9e3SWr9//L+/TiepKoyuusN0H/B59Ro6YLy65JLBMMGLCV+0ySm7efG6QVcgFrgzIaisSsvCf/5QWUkyW+Xy2uwAA/40BAADkM1pORMuOH//zc8n377fdk1t61Eio5L2zVq2YU/HLvbFvvulZra6sevddGS3fy7Brr7XdB/wdOkZds6tWrcAgK7BMMLqtYzJM4f39/UI/V0vd7PPJFB2nNcePt90DAPhvDAAAIL9oaBxZl53tbxZ+RfbuefNs5+S0rgMck976kktiV8R/5Z2ZnJw9JGu3PL15s/aWj2V0q1a2+4DcFFgm6NmtI/3rP/008NSKJx9OrJwxtPBd4ZJ9n99r0ufPl27GEa8xtnsAAD9jAAAA+UVtEdmyZ09h2SresdyEufvfLlEi9g430rd+0KCwBiKe5du2SZqkSfuYGFmvrjQq/PdIA//l7DJBiVdXtF27rPJZ0WbVli2xYxzjrTN27FPLHeNdVvB3XDzf29Wolj/8IO+LyOhvv7XdAwD4GU8BKORiYkZVOphYsWJIyJndYT2LFTP3i/hTihfXN0ISsrsUKaK3Z48w7x0+nPWuSLFxhw5VTBG56JNDh/57yy+APNFQRNbv2WM74++KiXaMd9ldd2na8ck6fs4cqSG9zIIKFWSlulLoVxgCF+iEZJolxYvLLnVFBg06M04u1vadO//8edS5c0qqq1Et33nHduZf9pIu1Prffy83iBipVs12DhBsjFHtscAxBxeUL2/+IxLevHhxkZCEzMyIiHP/0gv6oXY9duzE6ay3Qpb89NMcdTVCDx2y3Y7cwQCggAk8DsvUCyla7KEGDTxlTZHsG2++WVL9hz0zGjY0qSKScOWV+oGOkjZVqsiazCzTvWhRv1/d7GwRWSwij4sY8f98+cdKdaWZiHpEzjQT2T/bOL5/Z2fHfBM/3Tfwu+/0ddPDbNm61dwqok02bdIKnh1m/6pVZpS/xumjH36YkuLqJaknTth+XYBCYZS+KcNOnhQRkYW2Y/66iikikS1WrNhf3jztvWnQIAkX8dwxdqz8qK5ZWbGi7T4gXyorxWVSerq8pcnm7rFjKzY0T0fe8957kmo77G96QIqYW0+dku9thwCFR+AKu2L3n4gMb3DbbZ5T/pbSoWFDf4r+21S97jqdIjvk8Wuuke9NL9+UihWzV6ob0jEsTEQkO1tExC+eX14H3kVukhdFinZT1+8Tid0Sn+AdceaMnJEo/WzXLhkmtWTFpk3SxtxmFm3ebNZ5TpmkNWuK3B/xQNS/PvpoWoteb6nn9Gnbrwv+HLUdgN8W+MQuPvDEp+Eh994rxUxrcdu2lT7mTom45x7pqq6ZXayYtcDeEiLPnjljKpnh8uR//qNjRUz4yy9nni6+XTq//nphfw4yfl9smGO8dz74oHRVVxYsWmS7p8C4XOrLnrfeSh4ef2/UdffcYzsnp5z786zOiT7hpXv2lG5+r9w8bJisVNccuPhi232AFcUlTO89cULKmaHm8LRp4fVEZNzo0dNauBrV8sgR23k5JTYxfon3s3//W76XjVLp7rtt9xQYs4wj7du0Sc50NWrl4sW2c2BH1wHjtqW3vvji0EMnano+6tBBvxSRIu3bi4iY+5s0kWvUlYQiRawFDjKONj5+XBaLmGrvvad1RbTJyy+fvEvk8IA33giWpxgVNFwBkE8ElgBlrcva4L+kZ09Zc/wFKf3EEzJSIkz10qVF5AN5Q0S66ge2W0VEZIpkS5/wcBV1RZo3FxFR07x52KATju6cMSO2jWN8S1580TNHxNNk8uSZM10tXZp7AIFgNO/AgE4Vmh8/Lu+JiIwb1/V6R9Jbz5sX1k7a6QLHkT2mtlR6/HF2AqBQ2ygqO/x+WWLipPqiRaH9wqpo0wEDpj8zfFjk6N27RUSkpe1IADbFrksYcPDWGjW0WXZHz8yBA826k4v1jn/+U2rrGfP1RRfJNbYLzzNOXfNBiRI//03r1maHiJHWrYvWkaIlPz50KPYyx/gazpmTPUDExE2ceG43CKxiCaAl3d52zP63y5XrdoljvDfNmJH1alZXf62dO+UfMl0e6t9fRsop+fngX7AE/iCYra655ckn/cmakP3m9u2xD8dv8Llz5nRrmbjSW/TSS21nArBn1gRXy7y5d29ys/iro7rHxoaMCb1CJteta6bIjTJ06VLbfUCOKmsc7bRypf8KE+dpeP31yRVdjSrTvv30l4fviggc/AEEpSe2Jew6NKxKldhX4td5r5w3T7ZkjfcM3rrVPCKLpeITT0htOWO2XnSR7c4LFjjHtFTXLO/dO+RVEVm2c2fMCsd4ByclPVFn1LM/rShf3nZmsGIAkEcc4xhjPJ7Ylo7xFX36aXO/jg1ruGOHaa2uLO3eXaLFLy1CC98VGYFf18WyzPTs1MlMy7xDq2zfHnuTY7w9hg9v19Yxxh8ebjsTgD0zdozYE7Vy69aUovEtopJbt/Y3MY40/cc/JNM4kvrFF7b7gAtST8prg23bjF9FTPv2yYmuRi5r1ix1oasR+vnntvMA2BN439uttFvMe+ewYSF1s67wb/7qK3lf3pK1jz5aaK+EO3urgqapKwNiY0NanukdWnn79phox3gf69XLMY4x/kJ4DsqnGADksh4LHHPgterV99cT8S1fvVouU9f8OGmSdJLTkl3wH/NzwQJXCFyjriQkJEQ+oC9mjFq7tkeNhEreO2vVsp0HwL7UR1yN+nLFigoviEQOql9fyhrHaOfOcqlx9M6C/3hEFDKB5X1d9GWZ1adPhe6mW8TOunVTUp34qDJpabbzANgX3WDkaV/Vq6+O/ERTfRs//dR0MINkQWKi9Z1ethxSVyJKlVKPujJpypT9J/Rl32erVgVuibadV9gxAMgl3cMdk9763nuzRST04Y0b5SZ1pdEtt9juyndWy27To3797F1Zu7XEp5/GDndMuq9TJ9tZAOxz1VVVvz850dUykXPnmh9ETjWoXl126FTdOXiw3GkcLceyUeSxwPK+ysaRpuPGhd9sBsgt1aolN3K+jhowZQqP0QUQENvLbeH98fHHPY39E6Xixx9Lc9krVerUsd2V7zwtO6TyzTdnTcjq5r/v889jYhyTvuH++21nFVYMAHJY7AK3ZPqxIUP89XSkDnv9dbZc/0mBCehBddXMmROz3jG+8YmJIj8/v9R2HgD7Ao8dTX7P8UU2HDcuc4OIv8VVV0k7aScLUlKkoXFk3c8POAJyTGB5X7xxxKSlhf4UmqpNa9dOHuJq1JeDBxe2rf0A/h5jVGM+jPd57xs3Tk6bG6Xo88/LCck0S4oXt92W753dHaCf6UjNXrSoWwO3ive7vn1tZxU2DABySGzV+IPe5yZMkJXmaT09erTUFyM1PLy+f5HOUtc8PmxYbPH4TzNazJoV2KFguwtA/sEyQeQqlvcB+JPatVuwwJiQkNgwx/iazZunc2WqzBo40HZXgXX2HGXqm85ScvLkc+cs5AgOVH9T7PD4fd6tkyad296PnNVR3jQvPfbYTxfrZt9XyckiXBEA4LexTBB/C8v7APwFxqhGLviqXUbMCy9IV3VlwSOP2G4qdM6es2JrOcb36ejRtnMKOgYAf1FMjHuZ79p+/eSgJEu5p5+23VPYBR6HErvbMb5+48bZ7gGQ/7FMEL+L5X0A/qbYyxyT0eiZZ6SbumZs5862ewq9JuqaykOGxGxxy/tGDBhgO6egYgBwgWIvc4yv4d13ayP/92YUB9E8N1pdGTZgQLfhjvEu69rVdg6A/I9lghARlvcByDExxxyT0erRRwPPubfdE2y0s+lhWo4dGxPjLvX5Wra03VPQMAD4k2KiHePzVqokj4iY+a++Wmif01lAmKt0lKZNnx47fORbGa/Uq2e7B0DBwTLBIMHyPgA5rNvwkc8fevC66/QNHWXKpKba7glaZ3cE6E5/S7N23rwntiXsOjSsShXbWQUFA4A/EFg+pw+JyOQXXww8t9J2V9BbI1lmUtGiJtb/g//U3Lnt2jrG+MPDbWcBBVngOcXR00cWyXivaVPbPXnl/GWCnkoinpn160sXuVbLvPOO7T5coLMfN88YE+dJvO66YF3eF/g8Dnxe2+4BCrLA+0zzkt+fPXTu3MD7UNtdQa+GutIoIiLkkewN/vKzZomwK+zPYADwB/av99T0TXzqKXlNXfP07bfb7sF/00T5Qe695prIb9SfUX3YMNs9QEHm2ZcdLmUvv9yzyT/EX+/997sVj1/su/7dd2OiR271eevWtd2XV2Y2czVi6aZNyY3i7480zZuzTDB/M0OMo5W3bj23vO/sxy3wcbTdl1eiL3bMwfVXXhm7zzHe9AULAp/Hgc9r231AQRZVXCSj+fDh0lz2SpU6dWz34Dw3yFfmkdtui93mmEMVune3nZPfMQD4H55cP3rFkVFRUTLUv11qO47tHvyBfjJGmgwc+OTDiZUzhl5xhe0coDAwHWWTeadZM33Bn2aWb9wYuyL+K+/M5OQeCxxz4LUKFWz35RWWCeYz5y3vyxhwdVrEkeBb3hd4nxI7xjHeOmPHetZromfp5s0Sr65ou3a2+4DCICYm4ZXDnapVM4M10TQaNMh2D/5ADxH/rMTExyc55vBHkZG2c/IrBgD/Q+aJM1WzSsXHBy4tsd2DP3D2UqzMRzO/M9USEmznAIVKtPilRWiopEmatI+Jyb5BJDR+585Y4xiviY/v+9HkRt9PKlbMdmZuY5mgJX+wvC8trX171cK/syFwCXLsOvdK74TevbMWn74zs8M338gudWXVoEEyRbKlD7fCATlJJ2VfkeUZOZLPrwLi7LktbJFIVsbQobZz8isGAOeJiRlV6WBixYo61FQxW6KjbffgwqijI83VjzwSO8sx3mW1a9vuAQqlceqaD0qUkG7qis9xTow6vLbEsB07YvY6xvdUTEy7dgsWGFP4l6SyTDCXsLzvHGNUY6LdeG96u3aR2TrNN3f7dpltHpauzz7LTiIg93R72zG+8XXqyB3yrnT75z9t9+DCGCMiy3r2DJzrbPfkNwwAzuP5MfNLT2KvXnKNupJQpIjtHlygs1tB5RPdLvOeesp2DhAULlPX/Hjppeqqa+KTkyMTvmrn+/6LL2LXOca3pEUL23l55fxlgiFjQq+QyXXrmilyowxdutR2X36n8+QavWvFCv8VJs7T8Prrg3V5X7e3HZOecscdsfPjZ2ckfvKJeoyILlgg5cQnrStXtt0HBIU2utm06N373PtKFCxnz3G6IfO7kFndutnOyW/4DX1WZ+OY70zRouakuVgWxcba7sHf1N/U1C86duxsHJNhSpe2nQMElWfUlRJXXy2z1TW3LFsWWCbYfYVjMlpdc43tvLwyY8eIPVErt25NKRrfIiq5dWuWCf6385f3JZ2IfzDy03/8I3WhqxH6+ee2+/JKTIxj0jdcdVVgeZ9ZrK62WblSVstu06N+fdt9QDDp3n3MmEOHIiJMtLypsQ8/bLsHf1M5eUbu7tYtcM6znZNfMAA4q1grz/SSxe65h3v+C4mzlygXe8LTxKR06GA7BwhmgWWC/iE60j/8s89iljvG98LcucF2aV7QLxNkeZ+IiMREO+Zo/TJlutWK3+3rMGWKPq8Juo3lfUB+4O99arCp+dBDckIyzZLixW334G+qLMdMQrlyRWJFLv7k7rtt5+QXDADOMs/7n5QfHnrIdgdyln+Kf7W574EHbHcAkHO36Oi/1DX3d+yog8/sDpm/Y0dgi3nXAeO2pbe++GLbmbktaJYJsrxPRH7+Dv/e6OLFY+9wI33rBw3Sl3Tsmfe++cY0kdlmRq9e55ZsArBO6+vr5jLeNxY2OknX6nQGrAFBPwCIiU5OMv6wMGmvY7T2PffY7kHO0j2aKNNvv51bAYB8KLBM8OwW89DHTy73fLZtG8sEC+gyQZb3iYiIYxxjjMcTWN4nA0SK3L9li9QwvUz1sWOlk5yW7JIlbXcC+H+B94mmq3nAdGza1HYPclg5WSXPtmp17twX5NR2gG2xLUc28RW96Sa5zH+H+fGjj2z3AAhil0t92fPWW8nD4++Nui7vB5KxlznG1/Duu6Wlumb5v/9t++UI3CPumSCilwwcmDTd1YjtwbdMr0eNhEreO2vVytqcnSTVx4/X3vKxjG7VynZXQGB5X3YL84B+MmBAsN3DHxA93zHeOs2aeRrrLLlrwgQZLd/LsGuvtd0ly4yjLe65J/kHVyPXv/VWXv/0sYnxS7yf/fvf8r1slEpcggvAHv3BOHJpw4ZJy1yNOvXxx7Z7bAn6KwDkpPlSVjVpYjsDAPDfdIy6ZletWiZLXf9Hb74ZWCYYO3zkWxmv1Ktnuy+v5Ldlgizv+1lgMBNY3udZra6sevfdfHPwBwD8F/+lnsv1qltvtd1hGwOAR/1ek37ddbYzAAC/L7BMUN72r/dX2bgxcPB68uHEyhlDr7jCdl9eyfNlgizvExGRrgMck976kktiV8R/5Z2ZnJw9JGu3PM3yPgAoKLSR/3szqkED2x22MQAYLSIvX3ml7QwAwJ8UeC7z2YNXVvmsaLNqy5bAMsGnljvGu6zw32P9h8sE50oRCfkL99yzvE9Efr28L6yBiGf5tm2SJmnSPiZG1qsrjQr/jgoAKDQ+1jk6t1o12xm2MQCoqGP03Ro1bGcAAP6iwOOazi4TPPORTpAPv/kmdp17pXdC796OcYzxF/4t679aJtjTDDYda9X6w2WC5y3vM8fMUFlSq1awLu+LHe6YdF+nTnqZSNENO3eeW963Ul1zoPA/pQIACq0Rst88Xb267QzbgnYAEJjsS205Y7ZedJHtHgBADjkoJ6RfmTIy2zwsXZ99dv92Ed8Pn38evcR93zcweJ72MmuCq2Xe3Ls3uVn81VHdY2PN2pBt2ui668wk40jm22+f++u1nvZa49prkyu6GlWmffuUVFcjo/bssd2fVwK/L/ZvF/F9v2mTHFRXzZw58qO6ZmXFirb7AAA5ZKSckuqlS587BwapQv8dkf8t/IqwK0qVEsnsarsEAJCLnlFXSlx9tUeMmEHLl8cOd4zvq5UrVUJe8BQZMCApMe6J0os/+8x2Zm5LSY2rFRm1ebOkiogE7zb22FmO8S6rXVtuEJFPxo+X6cY1PVu2lGX6vu02AEDuy7yiSIWLu5coISIiqSdO2O7Ja0F7BYB29XeQt/nOPwAEnYPqmrl33mnaZD+ePfbTTwPLBGONYzJM5cq285CzurVMXOkteumlgeV9P//TTZtkurrSs2VL230AgLxV9IfT+7OrBu8tXUE7APDMyRof9mbhX2IEAPgfktSVKNVzW9zDRcx9/79MMCZ67Bift1Qp25m4MB3LTZi7/+0SJQLL+8yRrPVakuV9AICfZfYO3S0TjLHdYUvQDgAy14RPOf3J8eO2OwAA+URXdc3sYsUCywT1lZODzZzgWyZY0Jy/vK/4meMHw8f/Ynkfu34AAL+QvSikYUibY8dsd9gStAOA0wfCI0128H7gAQB/4BF1pXNU1LllgpeLZNz05Zcx0W68N53nvtsWPd8x3jrNmu2fLeJb/vnn55b3dZCjZkGFCrb7AAD5U9ju0/uPzgzebwQH7QBg3oEBnSo0P35cdhhH1mVk2O4BAORzLdU1y2vWVI8R0QULYns5xvvjRx9FJzrG1+Hmm23nFXbdu48cefDg9dfHvucY37D33vOsVldWvfvuz5f0161ruw8AkM/FSVHZeehQ4LG5tnNsCdoBQIB5SUTf+vZb2x0AgALmtLpS9KabPC1FTMIHHwSWCT6xLWHXoWFVqtjOK+iemOIY77LLLgss7/M3yB7h+Xj9enlNXfP07bfb7gMAFDAJUkEn79xpO8O2oB8A6Fsi5m5+IwAA/qLzlgmG+LPnZXu2betWK363r8OUKZ2NYzJM6dK2M/O7Hgscc+C1iy6KNY7xmvj4kP4imvz11yzvAwDkBNNKqpk7OPcF/QBALhHRuZ98YjsDAFBITJFs6RMebprIbDOjV6+iS3S8f9433wS20j+1fOrdxl+kiO1M22Kik5OMPywsZq9jfE/FxGSXFAldvHOndFNXfI5zbikjAAA5QGeaxtp7wwbbHbYF/QDALAppa4qtWWO7AwBQSC2Xk9IyMjKwlf7MJb57M+7dtOmXywSNUbWdmVcCy/v03X0e38aNG9VV18QnJ8vr6poZ5cvb7gMAFE7+aiE9/C9x7uNxRlL+H5GzNm6ULft8GRWOHeNxQYVMmHFkXmbmqWkint7lys1RVyP00CHbWYVdbJhjvHc++KB0VVcWLFpkuwfIV2bKATPnyivVY0RkwYKYn+Jf8mWvW+e5yTPaN69//6Rv47ZEdvzwQ9uZOSW2q2PSW99wg7wgokUmTpRu6kpy06bS3HYZkI/NMo60b9MmOdPVqJWLF9vOKewCt2oVfUrEP+XAAclUVzqGhdnuQg6ZK0Uk5MgRfbR8vagHP//cdo5tQX8FQEpqbDf1ZGaaQXKrSVi61HYPcpbO0td13qpVHPwB5FcaJzvlcKNGZlH2V6bhmjWBZYLduzvm0KGqVW33Xaju3sTuvg6XXx5Y3iebdaQOW7/+3MEfAPKZc+8TH9V/ad///Md2D3LYLLldblyyJHDus51jW9APAAI8M/UL6b1gge0O5Cyz0TygP7z+uu0OAPhD5y0T9D+lidmTtm4NHKRjoh1ztH6ZMrYzzxf4zlnsGMd464wd6/931qVS7BfL++qLkRoe3m8AyPfMLB0j3jfesN2BHFZct5jYhQttZ+QXfEE+6+RS/5NHTv773zLfODLH67Xdg79plnG0y8mTnilFx+r2V16xnQMAF+zsMsHAQVpfETnz6LZtMTsc413Wp4/tvEBH0YtF/M/s3Cm71JVVgwbJGskyk4oWtd0HABfqdLJ/nUa88ooMMo42Pn7cdg/+pl1ykY44cCA8LGJBVN+33rKdk18wADhrjrpaRU+dkh/0hFZKTrbdg7+pnX4i16elzZw5ZEjp0hkZtnMA4G97RF3pHBWlE9WVRs88YzvnXMfZLts9APB3nbsVoL6Imfjyy7Z78DcdkL7yVlLStBa93lLP6dO2c/ILBgDnMQPDamVve+452WQcGcFvlAJno6js8PtNCc9F0nPiRNs5AAAAKFj0NRH9aurUwPtK2z24QLdKqPY7dSpkiPFkjZk503ZOfsMA4DwpKcP2lB2+b5/cLKIXpaTY7sEFKidN9LbFi1NS42pFRm3ebDsHAAAABUtSc1cjB375pTwtzaUTVwIUOLeaYSZy2rQZ7V0t12H/fts5+Q0DgP8htH2RlaGlXFd2GEfWcQl5vtdbQuTZM2dCvg7pbG6Ji7OdAwAAgILNs9o0DPnYcQLvM2334A+0kGKyzOfzjC06NiRuzBjbOfkVA4D/YXrDoc1KDvN6TTURSYuPt92DP/AvM1xef+aZGTtG7IlauXWr7RwAAAAUbDNnulq69LffSi0zXEZyoMz3/mUGapVhw9gB9vsYAPyBiikikbOfe04+kat1/vvv2+7BfzMDpayO27nzxDMXzcuclJBguwcAAACFi6+dSKQZPVoaGkfWcYtpvlPWONpp5crkWa5GNGaZ+x9hAPAHXHVV1e8PrRk6QPc/9piUNo5kHD5suyvonb0US0eZHv6tDz0078CAThWa87gWAAAA5Ky0ha6q58wZ/3IRT4tOnQKPm7bdFfTOXvIf+m1YFa33+OMiIqrG2M7K7xgA/EnTXx6+K2L07t0mw7NMIx955OcJYHa27a5gZZ4xw+X7AQOSZ7la5s1PPrHdAwAAgMItdaGrEfr55/qc5zF/z9hY2z1B6+w5zCw1AyXqoYcC5zTbWQUFA4ALlJLitIqMXLZMFolom4EDbfcEncXyiFw9Y0ZKqqtRL06dajsHAAAAwSUp1plT5q5583SzcWTdpEm2e4KNWee5XIcNGpSS6mpUy3fesd1T0DAA+IuSl7kaeWryZNNJeknX8eNt9xR610hjvX/x4goHTPXIvb17284BAABAcEv6yNXIFgMGSKZxJPSFF2z3FHpXyxAdlpiYkuL8EPk5g5e/igHA35RyS3xk1L8GDZLKxpGm48bZ7il0fpCmeunChebzijsjVv3zn666qp6sLNtZAAAAgKoxvqNXp0WWjI2VJOPo4DlzbDcVOmfPWcm94otEJo0YYTunoGMAkEOSh7ga9eXgwfKAcbTHgAHsCPibQuSf8mRSUoWl5raIEw89lJIa2009mZm2swAAAIBfSktr3141OztZXY1I6dJFxskA/c/o0ba7CqzAOSpDF8rdvXqdO2chRzAAyGHJd7sa+drEiWadZ5nedN99MleKSMiRI7a78r0w48i8zEzjN4706907eUb8VVGvdu/Od/wBAABQUKgak1w6vkRk22HDjNFt0uCxx2SQcbQxT6v6Q2e3+uunIp6n778/eYHzZdSGadNsZxU2DAByybllgSfMYE+pevWkpNSS+NWrbXflO92lnHb++mu/J6SHueyWW1juBwAAgMIgJcV5NerbOXNCmodeYS5p0MAMl8tkyaZNtrvynbPnJE/j0F267Nprk6a7GrF96VLbWYUVA4BclqyuRuiuXRXGm/aRU2+/3fQ3jqzr21dKG0cyDh+23ZfnekuIPHvmTOBenhN3lbjozFP166dOjZtZpu2GDbbzgGDmeVFEy+7dK/ONI3O8Xts9AP6Gs5/H5z6vAVgzY8eIPVErt27N6Gsej+zcoIExxlEdMkSKS5jee+KE7b48t8M4si4jwxj9t2qPHoFz0syo4TMjX/v+e9t5hR0DgDziqquqfn9KDVejWj77rPGJhLevXl26GEc/nD49cAm87c4c18044jUmsMXfc23IB+bza64J3Msz78CAThWac0kUkB/MbOZqxNJNmzwdi44N6VqjxrnlprdKqPY7dcp2H4DfERiwt5N2siAl5cyQIhXCb6tVK/B5bTsPgEjaQlfVc+ZMSoqrkZFjx4b+FJqqTWvXlnnSWh998UVJFY8sL4S3vgbeR5w995y5s0iF8Io1a6akOOsjI2fODJyTbGcGi1DbAcEqJdXVizemp0uqiNzbs2e3lokrvUXHjDGNMx15/qmn5F0RGRcTIzXUlUYREbZ7/7Szn+Am0gyTW9PSZEbINrl/woSU1LhmkWs2b7adB+CPzZw5ZEjp0hkZIjJEZPDg7t7E7r6rp0/3V8jqKQuGD5chslCue+IJqS9GangYJAM2BAbsFUQkcuFCz0iRkH6DB8+c6Wrp0t9+azsPwB+b/vLwXRGjd+8WketFunTp3t0xh15JSPCrbs/uNmCAzJbXJenhh6WTnJbskiVt9/5pgSsJy2m6hM+ebUzY9dnVJ09OeXTY8LL37ttnOy/YMQDIJ5KWDb8z6tSPP8oyEfly8OCYGMfsfWPkSM864xR9qlUrf4KISPv22kZE6rRoIV3VNbOLFbMWHFjal6iLdPOaNZ5HTBsz//XX9cOiYz3758+fOXOInj1AiDxu+9UF8Hf84pK8mfJabGxsV8ekt05NlSQRLTJxonRTV5KbNrXdCQQDM1KqS6l16zw3hVyty/v3T/o2bktkxw8/tN0F4O/77wFe9+4dy02Yu79L//7FzInlYd3btvW84X9FpnXoYDJENPm226yfB7ZIuNY6dkxmyw3yyIoVstr8wzSbPz/8vqh7Ivu8+ea0Fr3eUs/p05Ji+5XFLzEAyKdSUly9JDVwT9CCBXLvz3/tbBzz3TdFixY76EkqfWODBnKlOewv2aSJ+cT8S6+54QbJMv8wfWvUkE90lMZVqyZrJMtMKlr0T//EgUuPPjIjZP/330tfEX1m507zrIj0+fjjkFtF/Gs+/vjEaZGQJatXz9H4thF66NB//Rilbb96AHJT8ixXy7z5yScyS0Tkttui5zvGu61ZM88wTZUXn3lGmsteqVKnju1OoFA4uyzXTNcD5sXhw1PKO49GhixcKCKiHY2xnQcg95y7VTZFRGTOHBF5VVrOmdP3o8mNvp9UrNiJ9ofXlmjRtKn5l8dj5jVsqIP9fn3juutkkz5n0uvWlaqmpxy79FK5Rl1JKFLkT//EgVuK7jLD9Z3vvpMNImbZpk1ay1NcOnzxhanlP+FpuGaNqXNJcun9a9emVI+969zjup+x/arhjzAAKGDmqKtVNHAv7po15/5aXe6SlWf/pbOfeMaoPj7JMUfWRkSE7xQxtUuXzvok5Iy/frFiel12eHbXIkVCQkTCeh46lJ0dfkXmcydPVsw+s7vM0IMHf/X4vYYiMvAXIXr2fwByzjDTWkYVKybDbYdcmNRHXI36csWKmOjkJFO/fn1x9joZvbt00U0icmDkSHldXTOjfHnbnUCBcPYxWDJFx2nN8ePD90bcGLHk2WenpZ79TlpBc1hOyqzixUVEJN52DFA4PHPz0+su73fypIioyFtvyfUicuVbb8n5785/kqdERGLqOOboujJlQkJFst/7/1sJAueCsAHZ4VljTp8OuUgk5KIDB6bVdjUq4cgRERkhIiIVRaTML37ctaKyUkTWisho268GLhQDgEJM1ZgX+rkq4vP9/E8CfxWRDSLnDhm/PGykiBa0wwdQaIzXqTKwShUREVloO+bCpaTGdlNPZqakSjeRlJQeCxxz4LWXX85OMk5IZP/+Ei6i9w0caP2SRSA/OfudNm0jnfTrpKSTSaaSvuo4c+6LHxShhw7Je/KW7cS/paXsldFVq8orInLGdgwQnM7tHhMRKX32r7/UXkQ62K5EXmF5EwDkFwvlkPgvu6zLqNHlj24sW9Z2zt81o72r5TocO5asrkZpfHz2RBETe+WVgS3l0tA4si4723YnkKcCy/vijSMmLS3bE9IxxH/VVUlb46+IfK137znq6q9urSuAur3tmP1vlysnpUwf2XfppbZ7AAA/YwAAAPnF2a36Ya1O7z9zb3S07Zyc9nxvV6Na/vBDcrP4q6O6x8Z6NoQk+G9s2FA6GEcn/+c/tvuAXFXEOHJq7Vr/MhEd0bhxckVXo8q0b//8VSMqlx713Xe283Ka+VEkLKtbN0lSV6KUmwYBIJ9gAAAA+Yw21cla86mnzn0HrZCaOTMurmzZTz9NvsPVyFF33OFvYhxp+o9//HxlAI8NRQG3zDjaYvt241cR07598lRXoy69+ebU4a5GvvbRR7bzcssTdUY9+9OK8uXlEhGd26OH7R4AwH9jAAAA+U0HOWoWVKhgBoiEZS1e3K6tY4w/PNx2Vm4LLBOs0EUkssW110pZ4xjt3Flek4u1/f79tvuA3xV47nUXfVlm9elT4XuRiLV16qSkOvFRZdLSbOfltpjo5CTjDwsL2Xymd2jSa6+x/BMA8icGAACQX92krjS65ZaI6Trf51+16oltCbsODTu7JLAQc9VVVb8/OdHVMpFz554IL1H2zMDq1WWHTtWdgwefe+4wYNMs42iXkyelsnGk6bhx5qFiY7VztWrJjZyvowZMmfKrp+kUUk9McYx32WWXydi9sb4xK1dKN3UluWlT210AgN/GUwAAIJ/TONkphxs1CmmR/WN2zU8+id3mmIzyI0ZUqClSel9KSmE/aJx7DvJ7IiLjxnVrmdjQW/Sll0y7rAqyIC5O9pjaUunxx2W9utIoJMR2LwqpwPK+CiISuXChJInovwYOTFZXI3XXLhERibIdmfsc4xjjDw3dv13kUMWYGNmu4/3ehAQZKielW2Sk7T4AwO/jCgAAKCiWy0lpGRkpz6jr3zJ9+v4vdGbGvV99FRPtxnvT27WznZdXkpYNvzPq1I8/BpYJ/vxPr7lGnjSOPLdsme0+FDJljaOdVq7URSEvhAy+/vrA8r5kdTUicPAPAtHzHeOt06zZ/iqa6tv42WeBP4fO/bkEACgQGAAAQEE1Uw6YOVdeqR4jogsWxPwU/5I3a+3a6ETH+DrcfLPtvLyS3NXVqJZbtiRf42qU06pVYJmgGS6XyZJNm2z3oYCpJ+W1wbZt55b3JboauaxZs6TEuCdKL/7sM9t5eaV795EjDx68/vrY6+PTfFP/8x/PanVl1bvvSnPZK1Xq1LHdBwD4axgAAEAhEbhVwNNSxCR88EHsPsd40xcsCJbdAQGBZYIVLzOPRz523XXnlgleahy9c98+233IZ8pKcZmUnn5ueV930y1iZ926wbK8LyBwL3/sivivvDOTk/2f+I3nm48/lhvkK/PIbbfZ7gMA5Ax2AABAYfNfz91u1y6kd3ZItue++7rVit/t65CUdHKLqaSvOs4cdTVCDx2ynZtbAssEf/67uXM7lpswd//bixYVr3NiavjOnj2lm98rNw8bJivVNQcuvth2L/JIcQnTe0+ckHJmqDk8bVp4PREZN3r0tEbxA6NaHjkiIioDbEfmvh4LHHPgtYsuym4nEtK+f38JF9H7Bg6UrpJmZhcrJvVtFwIAcgNXAABAYTdFsqVPeLhpIrPNjF69ii7R8f5533wTe4cb6Vs/aNBTy6febfxFitjOzG2BZYLJ7zm+yIbjxmVuEPG3uOoqaSftZEFKijQ0jqzLzrbdiRy2UVR2+P0SbxwxaWmhP4WmatPatZOHuBr15eDB01q4evbgX6gFHtMXs9cxvqdiYrJLioQu3rlTuqkrPseRruqa2cWK2e4EAOQuBgAAEGwCS7tqmF6m+tixZy7x3Ztx76ZNv1wmaEzgCoLCa9YEV8u8uXdvYJlgyJjQK2Ry3bqBg6LtPvw9Ok+u0btWrJDmnoae7+rXDyzvm/7y8F0Ro3fvtt2XVwLL+/TdfR7fxo0b1VXXxCcny+vqmhnly9vuAwDkLQYAABDsfmOZoC/7o4+6VR1Z2zfvllts5+WVGTtG7IlauXVr4KAYWCYoQ+VyGfX557b78PvMEONo5a1bNdQ4nptbt046Ef9g5Kf/+EdyYtzdEQ998YXtvrwS29Ux6a1vuCHWOMbb9v33Wd4HAPglBgAAgP8SWCZoFmV/ZRquWRNYJti9u2MOHapa1XZfXgksE6xQyXSNnHT99YGt8Ka/cWRd8HwHOb8yfaWk1tu71zjG0fjY2IwBV6dFHKlbN2m6qxHbly613ZdXunsTu/s6XH55YHmfbNaROmz9eummriQ3bWq7DwCQvzAAAAD8tsAywXh1Rdu18z+lidmTtm79eZnglCmdjWMyTOnStjNzW2CZ4Lmt8BNETr9Ru7bs0Km6c/BgmStFJKTw30Nu3SDjaOPjx6WycaTpuHFZLxRr4b/uqqtSLnE1clpKSlpa+/aqhX+HQ2B5X6xxjNfEx/v/nXWpFPv6a0mTNGkfEyP1xUgND+/vAAC/iS8QAIA/h2WCIiKSkuLqJaknTgSWCZpHzeDwO6pV09XSRXtMnSqp4pHlWVm2Owu8s8v7zH3G0TfmzTNjw6/IfqRGjcDyvlkTBl1V5s2jR21n5rZfLe97QSeFrvrmm3PL+9ZIlplUtKjtTgBAwcAAAADw15y/TPBF778zHt+8OdiWCaakunrxxvT0pK3xV0S+1ru3ecKMMFexTPCvCizv84wxcZ7E665LaeFq5OOdOqWkDNtTdvi+fbb78sq55X399sb6fvjss3PL+yrLMZNQrpztPgBAwRRqOwAAUEhEqGsm1qihYkRkwYLYRY7JKLN+vXlLxOft3z8l1dXIqA8+sJ2Z21JSXC3TYNs2SRERad++29uOSU+54w6Tri96fpowQVbLbtOjPk9ZD+hrHDn+1VdySEQ/HzgwKdnVyE+XL5dmtsPyVmB5n7wgokUmTjx3D/9q22UAgMKEKwAAALnjHXXN1w0bag8R4129OliXCSY1d7VMzHvvJT8S3yVi+A03BJYJygGJlDd37bLdl+d+MI5e+uOPgeV9vhFXp0VeXq9eciNXI+9dvtx2Xl5heR8AwAYGAACA3PU/lgkGDj4x0Y45Wr9MGduZeUHVmMAyQV+IeSqyU82a0kVflll9+khp40jG4cO2G3NcYHlfknEk0nWLDyt10/FRNWoE2/K+wNLM2DGO8dYZO5blfQAAG7gFAACQt84uExSRNJGYGG2lxc6UaNs29hs30ldz/Pjw/hE3RjR49tlpLXq9pZ7Tp23n5pa0ha6q58wZWSgiMmXKk+tHrzxy5qWXst477WS+MmCA3KeJ8kDfvr94vQqGwBLEd6SNHJs1K+QTkax4x5lR1dVyun+/7by8EljeJ+7e2IzeXbro3TrJPJmQIJXlmKwqV052iRjbkQCAoFPolzMByHvdnnRMRs1WrUyWuv6P3nzTdg8KFjNQyuq4nTs9osdNkcGDk6o5A6MSFi2y3ZXXoi92zMH1V17p+VrEUy0xMXAFReD/T06Oj4+KsrdkMTY2Pt7rNefOsIHlff5HPLXknaefTkmNqxUZtXmz7dcxr3X7xh3vHdGmjV9MCT09dqyOl4NmUPXqtrtQsBijN6i2apWS4rSKjFy2zHYPgMKDAQCAHBcTPXKrz1u3rnr8rxnZtMl2Dwq4u4yjV/68TFC+Dp5lgufrXt0x3mWNGvm/0JelwqRJySXiH4m6/pZbbPX8/Fi6Tz7RiiLZU/v3T1ZXy+r779t+nfJadK+R3dMXNmjgKeK/TVdNnChHZKvEN2liuwsFm3+jZ4g2qFMndUNckchvv/rKdg+AwoMBAIAcFxPjmL3RxYtrEx1VNNPr5TnVyBHdjCNeY+QzEdmxYIFng0jILUOHzpzpaunS335rOy8vBR6vqGqsXkWeXzryUmCJpb+BSPaHo0fLdSJSo337c7sugL9jlnG0y8mTxVeVuul406ioZ25+et3l/U6etJ0FoPDgCxWAXBP7cPwGnztnjlwsy0zPTp1s96CQCTOOzMvMlPt1ixSZPfvM+vA7whsOHz572NCfLq5/8KDtPBQO3buPGXPoUESEv9KpwdmNBw2Sy3WU3tC7N4NN5IoWxtGms2cn3+dq5Jddu9rOAVD4sG0WQO6p6vHqlZMnS28JkWfPnLGdg0ImU13pGBYW2KIeXufM02e+3LYtZodjvMv69GnX1jHGX4CW5yFfCPy+Cfw+8t992pO9ZOdO2aWurBo0iIM/csXZr5OeEiJa+dlnbecAKLy4AgBArouJdoz3sV691KOuTJoyxXYPgkRViZBv9uyRo6aXqT5iRHKiq1ER8+aJBNcl6/hzYku7r2V0bt3afGrSTfnJk1neh7xkhui/jK9nz5TKzmdlakyfbrsHQOHFAABAnold4JZMPzZkiBzzH9ZVCQmyXl1pFBJiuwtBYrLUkF0ffSTtPcl6S//+ycviVkeeWrvWdhbsiG05somv6E03yQJ/rPlw4kR5WnZI5Ztvtt2FINHQOLIuO1te8kRpmWHDkt9zfJENx42znQWg8OMWAAB5Jrm9c6TMRWPG+E+GFPUUu/NOOS4VpfiWLba7ECQCB7zE7FVm04cfxu5zjDd9wYKYmIRXDneqVs12HnJX4OMc+LgHfh9w8EeeOvt1L/B1kIM/gLzGFQAArHGMY4zxePaPEPFmPPqoPKeTPe3GjZMOctQsqFDBdh+CBMsECyWW9yFfKCvFZVJ6urTS5yUiMbFCQ//2yH7Tp7vqqnqysmznAQg+DAAA5Bsdy02Yu//tEiWK1znRJ7x0z57Sze+Vm4cNk5XqmgMXX2y7D0Fih3FkXUaGiCdKy4wbd2ql33v4xilT5qirVfTUKdt5+G0x0clJxh8WJu7e2IzeXbpoURFzKjFRhqgrY8uWtd2HIFFcwvTeEyeknBlqDk+bFl5PRMaNHj2thatRLY8csZ0HAAwAAORbXQc4Jr31JZeENdct2sJxZI+pLZUef5zdAchTLBPM1wLL+8Txt/frM8/INnVlErd0II9sFJUdfr8sMXFSfdGi0H5hVTyTBwyY/vLwXRGjd++2nQcA52MAAKDAiJ3lGO+y2rXNw/pvWTJunPaWj2V0q1a2uxBkEo2jbTZskHtF9Ob+/ZPXuhoxevVq21nBoltLx3iL3nijf66IjJg4UYeqK91uvdV2F4JMWeNop5Ur/dtEdGn//qkLXY3Qzz+3nQUAf4QBAIACK3q+Y7x1mjXzrBSRRydOlDB1JbpePdtdCC5mitwoQ5cuDV1i7sm+o2/fGe1dLddh507bXYVFTLRjfN5KleQBEXkjMVEriphbH31UktSVKOV9DPKEGWIcrbx1q4zyuOY7x0lJdeKjyqSl2e4CgAvFF04ABd6vlgmGi3juGDtWflTXrKxY0XYfgsR5ywQ129TOrDpiRFJzVys0P3DAdl5B8fgkxxz+KDIy9IxIVszAgbJERJr06SPXqCsJRYrY7kOQOG95n29SrcTI/s89l5bWvr1qdrbtPAD4qxgAACh0YmIcsze6eHHd6Ykq+sRTT8laM8DUHDpUOslpyS5Z0nYfggTLBP8UlvchX2B5H4AgwQAAQKEXE+2Yo/XLlPF8oHsya4wYYbbLHNOqRw+JFr+0CA213YcgsdA4cuT776W7iCk1fHiwLxNkeR+sOru8z7gmTr+aP1/eCL8ie9+gQSkpw/aUHb5vn+08AMgtDAAABJ2YGMekb7jqKnVFtMrIkRKvrmi7dra7EGSCbJlgTPTINt7HGjbUB/xt5daJE+Vfsl3ub9zYdheCi86Ta/SuFSvM057i2r9//+TEuLsjHvriC9tdAJBXGAAACHqxtdz96T/ceadk+svroAkT5E51Zep119nuQnAJHEyyr/a0lIw+fVI3xBWJ/Parr2x3/VWx6xIGHLy1Rg25Imu85/VRo2S/iPjatmV5H/LUcakoxbdsMcX1Uj05cGBKitMqMnLZMttZAGALX4AB4KzAMsF9MR7X523TRtNNpCwdP17KiU9aV65suw9BooAuE2R5H/KFH4yjl/74o0kVkeiRIzN6X50WMfWFF1jeBwA/YwAAAP8DywSRL2yRcK117JisNkPMT5MmnRKRIzJ2rO1lgu3aOsb4w8Mj+3tq+iZ17y6Xm67SJD5eRsopqV66tO2XDUFikHG08fHj8pqICXnuuUxf8e2myqhRsyYMuqrMm0eP2s4DgPyGAQAA/EksE0S+cHaZoNksopMTEytWFImY+vzzrrqq6vfn5k9tjGpMtBvv87Ztq0tMlIwfO1buF68MqlrV9suCIHHe8r7QYyJZFw0cOKO9q+U67N9vOw8A8jsGAADwF3UPT2ie3rpmTf/urLd0dkICywRhhUpl7fHJJ/66nliN7d8/9cm40xF3rFqVUz989+qO8S5r1MhfXERk4kS5SV1pdMsttn/ZCC6BHRm6xDygFfv1m9nM1YilmzbZ7gKAgoYBAADkkG5vOyY95Y47TLq+6PlpwgRZLbtNj/r1bXchyFwjjfX+xYvNFyEHQ6oMHJiSMuKhUnO/+ebP/uc9FjjmwGvVq2cf1JWhz40bJ5vkA/PGgw/a/mUhyDSRK3TGxo1axjzmLz9gQFJzV8vEvPee7SwAKOgYAABADgssE/wpxfOY991HHjFD/S9qjVGjpK26UvLyy233IUicvVRav5K6+uR770m4PmJKv/++/wf/CU+x3bsD/5rnMk9x/8krrjA9/Se06O23y9s60oy4/XapL0ZqeDy2fxkIEmdvbdHRnsfMjmHDysf4X4z6x/z5eXFrCwAEEwYAAJDLfrUs7XX/dnnAdeWQuhJRqpTtPgDIc+cttyy+ttRNJyaPG/fMzU+vu7zfyZO28wCgsGIAAAB57Mn1o1ccGRUVlfXe6TszXxkwQO7TRHmgb1+ZItnSJzzcdh8A5LhU8cjyrCx5R9rIsVmzsvuEvZtVIy7u+S+H9Snf7KefbOcBQLBgAAAAlkVf7JiD66+80vO1iKdaYiLLBAEUFoHlffK6eUA69O2b1NzVyIFffmm7CwCCFQMAAMhn2LoOoMA6+1QKmWk6Z786YECyulpW33/fdhYA4GcMAAAgH+O56wDytbPL+8xmEZ2cmFixokjE1OefZ3kfAORPDAAAoID41TLBy01XaRIfLyPllFQvXdp2H4AgcN7yvlMickTGjp2jrlbRU6ds5wEAfh8DAAAooB6f5JjDH0VGhp4RyYoZOFCWiEiTPn3kGnUloUgR230ACoEw48i8zEy5X7dIkdmzNdvUzqw6YkRSc1crND9wwHYeAODCMAAAgELiyYcTK2cMveKKzEczvzPVEhK0ooi59dFHJUldiVL+vAfwp5kpcqMMXbpUPw/5j3/L008nNxoxoeyaHTtsdwEA/h7eEAJAIRUTPbKN97GGDfUBf1u5deJE+Zdsl/sbN7bdBSAfSjSOttmwQe4V0Zv7909e62rE6NWrbWcBAHIWAwAACBKxpd3XMjq3bi2Ov71fn3lGtqkrk6pVs90FwIKqEiHf7NkjR00vU33EiOREV6Mi5s0TEVE1xnYeACB3MAAAgCATE52cZPxhYeLujc3o3aWLFhUxpxITZYi6MrZsWdt9AHLBDuPIuowMEU+Ulhk37tRKv/fwjVOmsLwPAIILAwAACHLdu48Zc+hQRIS/0qnB2Y0HDZLLdZTe0Lu3rJEsM6loUdt9AP6C85b3nVkffkd4w+HDZw8b+tPF9Q8etJ0HALCDAQAA4L/ERDvG561USR4QkTcSE1kmCBQcgeV90ivkcOjJPn1SUkY8VGruN9/Y7gIA5A+8kQMA/K7oXiO7py9s0MBTxH+brpo4UY7IVolv0sR2FwARWS1V9daPP9ZVnoFaon//pHJx+yM2rFljOwsAkD8xAAAAXJDAMkHzqUk35SdP1vFy0AyqXt12FxAMTH/jyLrdu3WOiLkpLo7lfQCAC8EAAADwl/xqmWAXnSTZCQlSWY6ZhHLlbPcBhUILKSbLfD6ZouO05vjx4f0jboxo8Oyz01r0eks9p0/bzgMAFCwMAAAAOaLHAscceO2ii7LbiYS0799f5uso7TJoEMsEgQvQW0Lk2TNntI100q+Tkk5uMZX0VceZo65G6KFDtvMAAAUbAwAAQK7o7k3s7utw+eX+z7J6mtuGD5chslCue+IJqS9Gang8tvuAfKGbccRrjFQQkciFCz0jRUJCBw+eOdPV0qW//dZ2HgCgcGEAAADIE7FdHZPe+oYb5AURLTJxonRTV5KbNrXdBdhgRkp1KbVunecmz2h9pX//pG/jtkR2/PBD210AgMKNAQAAwIro+Y7x1mnWzDNMU+XFZ56R5rJXqtSpY7sLyBXdpZx2/vprM10PmBeHD09JdeIjoxYuFGF5HwAg7zAAAABY5RjHGH9o6L59Ihm9u3bVTSJyYORIeV1dM6N8edt9wF8y3zgyx+uVGz1ResuECSzvAwDkBwwAAAD5yq+WCYaL6H0DB0pXdc3sYsVs9wG/6bzlff7GRV+WGXFxKamDh0RGHT5sOw8AABEGAACAfO6JKY7xLrvsspCrdYvsGTFC9pjaUunxx2W9utIoJMR2H4LUecv7sg+H7g55ZtCg568aUbn0qO++s50HAMBvYQAAAChQYmIcczCxfn39p0jIyYkT5TV1zdO33267C0GiiHHk1Nq18k1IU63Wr1/ysrjVkafWrrWdBQDAn8EAAABQoJ1bJnhaRMZNnvzzlQF169ruQiGxzDjaYvt2c4/HNctGjEhJdeKjyqSl2c4CAOCvYAAAACgUHOMYYzye/SNEvBmPPirP6WRPu3HjpIMcNQsqVLDdhwIisLxvhaemZCckVGjo3x7Zb/p0V11VT1aW7TwAAP4OBgAAgEKpY7kJc/e/XaJE8Ton+oSX7tlTuvm9cvOwYbJSXXPg4ott9yGfKC5heu+JE1LODDWHp00z3xYbq6vGjGF5HwCgMGIAAAAICt1aJq70Fr30UtM3q4I8ExfHMsEgtVFUdvj9ssTESfVFi6SCiCdq4MBkdTVCd+2ynQcAQG5iAAAACEqxsxzjXVa7ttwgIp+MHy/T1ZWeLVva7kIuKWsc7bRypUrIC54iAwYkJcY9UXrxZ5/ZzgIAIC8xAAAAQH6xTHCliDw6caKEqSvR9erZ7sJfVE/Ka4Nt28xn+pP5OC6O5X0AADAAAADgv/xqmWC4iOeOsWPlR3XNyooVbffhfygrxWVSerq00uclIjGR5X0AAPwaAwAAAH5HTIxj9kYXL647PVFFn3jqKZYJ5hPnLe8Lryci40aPntbC1aiWR47YzgMAID9iAAAAwAXoOsAx6a0vuSSsuW7RFo7DMsE8ct7yvtB+YVU8kwcMmP7y8F0Ro3fvtp0HAEBBwAAAAIC/oUeNhEreO2vVyl6dtVtec12JV1e0XTvbXYWFzpNr9K4VK8zTnuLav3//5MS4uyMe+uIL210AABREDAAAAMhB55YJNtZZcteECTJavpdh115ru6ugMEOMo5W3bvVMENFLBg5Mmu5qxPalS213AQBQGHhsBwAAUJikPuJq1JcrVlSoZLpGTrr+euNXEdO+velvHFnHpernM32lpNbbu9c4xtH42NiMAVenRRypW5eDPwAAOY8rAAAAyAO/Wia41gwwNYcOlU5yWrJLlrTdl2cGGUcbHz8ur4mYkOeey/QV326qjBo1a8Kgq8q8efSo7TwAAAozBgAAAFgQE+2Yo/XLlPF8oHsya4wYYbbLHNOqRw+JFr+0CA213Zdjzi7vM66J06/mz5c3wq/I3jdoUErKsD1lh+/bZzsPAIBgwgAAAIB8ICbGMekbrrpKXRGtMnJkQV8mGFjep0vMA1qxX7+ZzVyNWLppk+0uAACCGQMAAADyoW5vOyY95Y47TLq+6PlpwgRZLbtNj/r1bXf9T32NI8e/+koOiejnAwcmN3I18t7ly21nAQCA/8cAAACAfM4Y1ZhoN97nbdtW002kLB0/XsqJT1pXrmwt6gfj6KU//mhSRSR65MiM3lenRUx94YW0tPbtVbOzbb9mAADg1xgAAABQgPT9aHKj7ycVK3ZizpG7iz924oStjuKdS7514sXixZ+5+el1l/c7edL26wIAAP4YAwAAAAqg2Nj4eK/XGFs/f3JyfHxUlPI+AgCAAsRjOwAAAAAAAOQ+BgAAAAAAAAQBBgAAAAAAAAQBBgAAAAAAAAQBBgAAAAAAAAQBBgAAAAAAAAQBBgAAAAAAAAQBBgAAAAAAAAQBBgAAAAAAAAQBBgAAAAAAAAQBBgAAAAAAAAQBBgAAAAAAAAQBBgAAAAAAAAQBBgAAAAAAAAQBBgAAAAAAAAQBBgAAAAAAAAQBBgAAAAAAAAQBBgAAAAAAAAQBBgAAAAAAAAQBBgAAAAAAAAQBBgAAAAAAAAQBBgAAAAAAAAQBBgAAAAAAAAQBBgAAAAAAAAQBBgAAAAAAAAQBBgAAAAAAAAQBBgAAAAAAAAQBBgAAAAAAAAQBBgAAAAAAAAQBBgAAAAAAAAQBBgAAAAAAAAQBBgAAAAAAAAQBBgAAAAAAAAQBBgAAAAAAAAQBBgAAAAAAAAQBBgAAAAAAAAQBBgAAAAAAAAQBBgAAAAAAAAQBBgAAAAAAAAQBBgAAAAAAAAQBBgAAAAAAAAQBBgAAABQgnY1jMkzp0nQAAIALpbYDAADArwUO2EViPY1MxkMP6Wb/OqnzwANyvYgZeNttkqmudAwLsxYYZhyZl5kpj+q/tO9//iMp5j5Z/frrJqTYWKn9yispqYOHREYdPmz7dQQAAP+PAQAAAPlAdIORp31Vr77aM8a/0wzo1Uuqmto69ZFHZJy65oMSJWz3/WmDjKONjx8334qY+156SfeIyK1TpyZ3dTWq5ZYttvMAAAhmDAAAALAgJtoxPm+lStpBt5gFw4bJHlNbKj3+uKxXVxqFhNjuyzEbRWWH3y9LTJxUX7TIOKGvhj49ZEhKyoiHSs395hvbeQAABBMGAAAA5IF2bR1j/OHhkWkiPh06VLZqosQNGSJTJFv6hIfb7sszm4wjI06fNnU94XLlqFFiKkyL7DV2bEpqbDf1ZGbazgMAoDBjAAAAQC6KHT7yrYxX6tUzsf4f/KfmztVE+UHuveYa2135RqZxJPWLL0xIyDaN7tgxJTWuVmTU5s22swAAKIwYAAAAkAtiYhzj8z38sJbQ0dI6NVVOSKZZUry47a5861YJ1X6nTskjZpg51r17sroatfDFF21nAQBQmDAAAAAghxijGrvbMb5+48bJaHVl2IABtpsKrNXG0V1jxiRvdTXy+qFDbecAAFAYMAAAAOBvMkY1tp9jMgZNmSLH1DWDnnrKdlOhESL/lCeTkipMNzUjX3nySVddVfX7bWcBAFAQeWwHAABQkHW7KH6T76uUFA7+uSRbXpXp3brtf1K3+x6aPt12DgAABRkDAAAA/oJY4xiviY83j8hiqfjEE7Z7Cr2zg4DYmxzj7TF8uO0cAAAKIgYAAABcgNiJbm/fioceks9FZEdcnO2eoDNDRPqMHNmtnmN8Vdu3t50DAEBBwg4AAAD+hJiYhFcOd6pWTedl78qaunGjdJLTkl2ypO2uoLVFwrXWsWP+z82Q7Devvz71qKtlG379te0sAADyM64AAADgdzjGMcYfGqqe7NPZp199lYN/PlFbzpitF13kuUznhXSZN69duwULjAkJsZ0FAEB+xgAAAIDfsW+niO/fPXuKkV1mxg032O7BeZrIt2bNjTdG6taRvht79LCdAwBAfsYAAACA39B1gGPSW19yiV6jY+UW17Xdgz9Qxb9ZXklI6LHAMQdeq1DBdg4AAPkRAwAAAH5D+HwRTR8+nEv+C4hD6kpEqVJ+R/eELh4yxHYOAAD5EQMAAAB+ISZmVKWDiRUrmvE6Smt26WK7BxfGDJN5UiwmJnAFh+0eAADyEwYAAAD8gpbLXO9p07+/rJEsM6loUds9uEBnP26h92uGenr3tp0DAEB+wgAAAAARadfWMcYfHi5PmwoyuWNH2z34e/SoidCinTvHRCcnGX9YmO0eAADyAwYAAACISESEx/X57rtPhqgrY8uWtd2Dv+l1dc2M8uU9e/dn+Yq3amU7BwCA/IABAAAAIqIj/Y5Iu3a2O5CzzKumvvyzbVvbHQAA5AcMAAAAQc0xjjH+0FDx6zj55h//sN2DHPaerJE77r67XbsFC4wJCbGdAwCATaG2AwAAsGlfjEhGRqNG6pFTUr10ads9yGHL5aS0jIws89lX7XzLGzT4+R+uW2c7CwAAG7gCAAAQ3NRzudzZsKHtDOSu7NtFJO3GG213AABgEwMAAEBQ09n+703UddfZ7kDu0vm6UX/i4wwACG4MAAAAwa2jiPyjTh3bGchlnWSzlOTjDAAIbgwAAADBbYGIhF92me0M5LJLTGfZfumltjMAALCJAQAAICi1a+sY4w8PlzUi0ioy0nYPctmbOtIklS9/7qkPAAAEIQYAAICgdNF1RSoc+7xUKUlSV6JUbfcgl9UXIzU8nh8mixxZV7Kk7RwAAGxgAAAACErFapzef3IHz4UPNiHbRDw9Pbz/AQAEJb4AAgCC0qkNIp6XOAgGG09bkeNj+LgDAIITXwABAEEpe7xIyJITJ2x3IG95Dot4DvFxBwAEJwYAAICgNEddjdBDh6S3hMizZ87Y7kEu22QcGXH69Iz2rpbrcOyY7RwAAGxgAAAACG4DzHCdcPCg7QzksjH6rIzj4wwACG4MAAAAwa22LjDR33xjOwO5rJ9cprN37rSdAQCATQwAAABBzbSQBlpz0ybbHchlP5m2Mv+LL2xnAABgEwMAAEBwq2mqyPbNm21nIJc96GlpFvNxBgAENwYAAICgFlI59G7/rlWrbHcgd5lTno6hQ95/33YHAAA2qe0AAADyg9h1jvFO+PZbma2udK1SxXYPckgX48is775LbuRq1ICqVW3nAABgE1cAAAAgIvqgiCx+6y3bHchZ5qR+p8WWLbPdAQBAfsAAAAAAEcnuIaKVXnrJdgdylmeiqWL6z5tnuwMAgPyAAQAAACKSOtzVyNc++kjqSXltsG2b7R78TcelohTfsiVpmatRpz7+2HYOAAD5AQMAAAB+qb4+Y7onJdnOwN9jEjXJ/DBjhu0OAADyEwYAAAD8gpnl337669RU2SUX6YgDB2z34AI9YBzt8dNPJfZeXOTkklmzbOcAAJCfMAAAAOAXUlJcvST1xAndYfrJTZMm2e7BhTGLPZfL9gkTnrn56XWX9zt50nYPAAD5CQMAAAB+Q9hzUfdEPDJlinSXctr5669t9+D3mYFSVsft3Fnk/og6ERufe852DwAA+REDAAAAfsO0Fr3eUs/p02a66W66P/WU7R78PvOVXi3Sq1fg42a7BwCA/IgBAAAAvyMl1dWolu+8I0elpT43d67tHvw386Dcr1VnzUq917ktcvy//227BwCA/IwBAAAAf8KJFSW2nmnUo4csM4622L7ddk+wC1zyn7WiWFF/kz59bPcAAFAQqO0AAAAKktjhI9/KeKVePbkmu7l5dM0aWamuOXDxxba7gsZcKSIhR46YRz33a3bjximpcbUiozZvtp0FAEBBwAAAAIC/IPYyx/ga3n237NUE0/PNNyVa/NIiNNR2V6EVZhyZl5mp1TwbJbZ166S+zvVRxd5+23YWAAAFCQMAAAD+htjhjkn3deokVUV07axZsl5daRQSYrur0GhoHFmXnW3ai3hmPvZYykWuRix96SXbWQAAFEQMAAAAyAHd6jnGV7V9e3OriOn10kuSqa50DAuz3VVgcfAHACDHsQQQAIAckPSFq5HfLljgv8uzSvfed5+UNo5kHD5su6vAiZOisvPQIX8Zzypd1bo1B38AAHIOVwAAAJALeixwzIHXqlfPvkYk5KY33pBn1JUSV19tuyvfOvt0hZBioVeYix54YMaOEXuiVm7dajsLAIDChCsAAADIBTPau1quw86dxX2lbjqR1qCBVDaONB03TjaKyg6/33afdd2MI15jpJ20kwUpKSGTRbKevuEGDv4AAOQergAAACAPRU8fWSTjvaZNPRP80/wln3tOmsteqVKnju2uvGKGy2WyZNMmTxHPcM+Mnj2TysXtj9iwZo3tLgAAggEDAAAALGjXbsECY0JComp+1c63vHNnM1NEasfHS1t1peTll9vuyzFVJUK+2bNHBppeMt5xKohIZNrcua66qsqVEAAA5CUGAAAA5AMx0clJxh8W5mm7NzZjYps25piIjOvTR95R13zdsKHtvj+tiHHk1Nq1ZrJniD49ZUrFEP+YiFcWLXLVVfVkZdnOAwAgmDEAAAAgH+sentA8vXXNmv7rs97Sy9u1k576olZ84AF5VvaYf1x7rdQXIzU8ebfTJ/B4vrtF9K3PP5eDIub1xYtNYxH/ooULU4+6Wrbh11/bft0AAMCvMQAAAKAAiokeO8bnLVVKHz85WD685RYzyxNuvr3+er3drJEZV14pa01D+U+1avKwiLxcoYIMFZHapUvLc5oo60qUOPcD9TTDpdHx4zJaRLYcOiQvi8jD+/f/fMDfuVPe8ISbozt2mFbyru795JOiof6mpumHH05r4WpUyyNHbL8OAAAAAAAAAAAAAAAAAAAAAAAAAAAAAAAAAAAAAAAAAAAAAAAAAAAAAAAAAAAAAAAAAAAAAAAAAAAAAAAAAAAAAAAAAAAAAAAAAAAAAAAAAAAAAAAAAAAAAAAAAAAAAAAAAAAAAAAAAAAAAAAAAAAAAAAAAAAAAAAAAAD8X3twSAAAAAAg6P9rTxgBAAAAAAAAAAAAAAAAAAAAAAAAAAAAAAAAAAAAAAAAAAAAAAAAAAAAAAAAAAAAAAB+AQGE8lyGy3LjAAAAJXRFWHRkYXRlOmNyZWF0ZQAyMDIzLTAzLTI2VDEyOjQyOjM0KzAwOjAwIqBgSgAAACV0RVh0ZGF0ZTptb2RpZnkAMjAyMy0wMy0yNlQxMjo0MjozNCswMDowMFP92PYAAAAodEVYdGRhdGU6dGltZXN0YW1wADIwMjMtMDMtMjZUMTI6NDI6MzQrMDA6MDAE6PkpAAAAAElFTkSuQmCC;" parent="1" vertex="1">
          <mxGeometry x="410" y="431.5" width="81" height="81" as="geometry" />
        </mxCell>
        <mxCell id="t3a6bA_m1dEb0LeNE2pt-2" value="" style="shape=image;verticalLabelPosition=bottom;labelBackgroundColor=default;verticalAlign=top;aspect=fixed;imageAspect=0;image=data:image/png,iVBORw0KGgoAAAANSUhEUgAAAgAAAAIAEAYAAACk6Ai5AAAAIGNIUk0AAHomAACAhAAA+gAAAIDoAAB1MAAA6mAAADqYAAAXcJy6UTwAAAAGYktHRAAAAAAAAPlDu38AAAAJcEhZcwAAAGAAAABgAPBrQs8AAAAHdElNRQfnAx4KAzg+S7VtAACAAElEQVR42uzdZ3xU1dYG8GdPOmgoaUBCE1ABKYKINKUFEhCxEJqABJFQJwldUClKk5JGSQAFpEmCSlETBAGliCIIFhQpElIoKRSB1Jn9fiCT+woiJWWfmfP8v/i7XMg8c5LMrLNmnbMAIiIiIiIiIiIiIiIiIiIiIiIiIiIiIiIiIiIiIiIiIiIiIiIiIiIiIiIiIiIiIiIiIiIiIiIiIiIiIiIiIiIiIiIiIiIiIiIiIiIiIiIiIiIiIiIiIiIiIiIiIiIiIiIiIiIiIiIiIiIiIiIiIiIiIiIiIiIiIiIiIiIiIiIiIiIiIiIiIiIiIiIiIiIiIiIiIiIiIiIiIiIiIiIiIiIiIiIiIiIiIiIiIiIiIiIiIiIiIiIiIiIiIiIiIiIiIiIiIiIiIiIiIiIiIiIiIiIiIiIiIiIiIiIiIiIiIiIiIiIiIiIiIiIiIiIiIiIiIiIiIiIiIiIiIiIiIiIiIqJ7I1QHICpJ7pMqx4S92qSJ6G74yJD06qvyd2xEn06dxIeIx6Vq1Sx/Tw6CPyqcPStewkyxeds2Ocf8hMlt3br0meeCQtcePqz6eRARERHRvWH9R3RnbACQzYiNtbNzu1ol+vyHXbqIxYbH5K9Go5iP/hjXseMDf9G2cgpw6BDGYqXcFxmZ1rxSlkv79euBQ4eDhublqX7ORERERHrG+o/o/rABQFapUmClwEg/Dw/TI3aLgUGD4C0myb7Dh2MC4v5/Z7fY5choLDt/Xq4Ts+XeVavM7dHM7BcVlVkmOWz0gZQU1ceFiIiIyFax/iMqOjYAyCq4p1SpHun35JPihOFl6T90qCyP9ajev7/whT0SXVyUBZsu12Fkbi7eFn8K982bxUBzT9O6sLCL81JdQ/2/+071cSMiIiKyVqz/iIofGwCkOSUyylXaODpGREREdM9Y/xGVDjYASCllo1yljaNjRERERABY/7H+I5XYAKBSpdlRrtLG0TEiIiLSCdZ/BVj/kQawAUAlxiZGuUobR8eIiIjIirH+ewCs/6gUsQFAxUI3o1yljaNjREREpFGs/0oI6z8qQWwA0APhKJciHB0jIiIiRVj/KcL6j4oRGwB0VxzlsgIcHSMiIqJixPrPCrD+owfABgD9A0e5bARHx4iIiOgesf6zEaz/6B6wAaBzHOXSCY6OERERUQHWfzrB+o/+BRsAOsJRLroNR8eIiIhsGus/ug3rP11jA8BGcZSLHghHx4iIiKwW6z96IKz/dIUNABvBUS4qERwdIyIi0izWf1QiWP/ZNDYArE7TJjHRDg7u0RdbZi1++WV0k93x46hRojECxZJWrVSnsxbyrHwTnhcuWP63qCZm4aKXl+pc1kIewQo5bN8+bBWb8VRUVPpQz/0uwz/9lKNjREREJYH1X3Fg/Vc0rP9sAxsAGsdRrmJScK2T3AUAS5c69xfHTOtXr04Oc21x5TuTycP9SkiF8O7d5VGxCiOCg/mGep84OkZERFRsWP8VE9Z/JYv1n1ViA0BjOMpVRLeOLE0378Q3S5deHJ66zthwx457/TLu7tWqRUQ0bSo2ml8BhgyRufJ9zB4wQLwqamKis7Pqp6l5HB0jIiK6Z6z/ioj1nzaw/rMKbAAoxLuyFl3hKNfXYr30X7nSvEg+aei9cGFmfEqUMSE5ubgex7N9zcHhm728ZLvcKMOSgQNxUbSUTUaOxMdIg5ePj+rjYDV411kiItI51n9Fx/rPyrD+0xQ2AEoJR7mKyR1HuZLDRh/Iyiq9IPVip0hHR46OFRFHx4iIyIax/ismrP9sC+s/pdgAKCEc5SqiYhrlKm0cHSsijo4REZEVY/1XRKz/9In1X6liA6AYcJSr6EprlKu0cXSsmHB0jIiINIb1X9Gx/qP/xPqvRLABcJ84ylVMbhnlKptmP9jV+NFHiSJRBIrsbNXxSs4to2NjxVoxf8gQFgz3iaNjRERUilj/FRPWf6z/ioL1X7FgA+AuvHyrekWMeeIJ0wZzZzl2zBjEY6pY06ePCBHPwtHJSXU+zbOM9HQQPdEwLs7kgz7ih8jIzDLJYcayP/ygOp5WVLzhExp5/emn7ZKxXj5tNOJrGYufAwLwjuiLhY6OqvNpnQyX3yI3Jwf+mCr7rV9v18uwTcybP//C9qQLwfN//VV1PiIisi6s/4qI9d89Yf1XNKz/HgwbALfwCfUJXfCMi0u2izxl98f8+WKfcMSaoCAcwwGcMhhU59M8S2euingP16OjRQO77+ybxsSkxSWKERvPn1cdz1p4BFSXi3pUqiR/MbXIPxQUJFLlWyg7dCicxFC8UamS6nyaVw/PoJbZLAfIuiIgOrrsIPvpD98YM8b2P2EgIqIHwfqviFj/FQvWf0XE+u+esAFQoLqsLldIZ+cbYabnr7735ZeYhaNwbddOdS6tk2/gIfT5/nsZDH88GhmZ4eXaIvPSxo3AsZ7TRG6u6ny24+bomNuFq99VrNCjh4hAPP40GsUyXMP65s1Vp9O8xQiQ/XbuLNPDbkG5il278o2AiIgA1n8PivVfaWH9VySs//4VGwAF3Cd5vxBRfvFisUwcxrRhw1Tn0ZyCUS75i5guKsbGmuehAVJvXnPDUS51LKNjhrH4BVVGjRIN5Dsys2dPjo79OzlbBoqJixenv57yrjFrxAjVeYiISC3Wf3fB+k+TWP/dH9Z//6T7BoBne+9fwjc3bChNYpqw++knjnoVKC/j0ebcOWkn3sArMTEc5bIOt42OmeQyfBIUhMvCH3sqV1adT7mC0TCDo9iDXY0a8RoxIiJ9Yv13B6z/rBLrv7tg/fcPum8AuH/g/Xaky6JFYqJYIWcPH646jyoc5bJVHB37V9dxBVlRUWk3kv8Onmg0qo5DRESli/XfTaz/bBXrv3/F+g8AGwDwMPpERXT4/Xesxxy88PjjqvOUuFtGueR5xJv/iIzM+DTZIaTywYOq41HpcHvZJy/8XLNmohL8DY8bjbobHZsvZ+PEsWNpA1L6BS+sX191HCIiKl2s/1j/6RHrP9Z/ABsAcP/KOy+iclaWeFXUxERnZ9V5ips8K9+E54UL+Fqsl/4rV5oXyScNvRcuzIxPiTImJCerzkfa4OXr5bvE19PT/Kz9ljy7wEAYRF/8PmIEwnFQjq5aVXW+4ia3Ix/Vs7LSGyefD36xTBnVeYiIqHSx/iNi/ac6jyq6v9bJVl/4iejOhC/skejiojoHERGpwfqPSH9Y/xUcB9UBVPPw8PGJiJBSdY5SUzAChrfFn8J982Z8YB4pxkZEpHVPzR41ed8+1fGodLi7V6sWEdG0qdhofgUYMkSWx3pU799fby+MaWnJycHBQvevg0REesP6j/WfHrH+u0nv9Z9un7iF7t4A7qStnAIcOiR3AcDSpWXT7Ae7Gj/6iPsyrd3Nm8B4uF8JqRDevbscK9aK+UOGiPnoj3EdO6pOp5re3wCIiPSK9V8B1n82ivXff9F7/afbJ27BN4B/x2vHrJNn+5qDwzd7ecl2uVGGJQMH2vq1XEWl9zcAIiK9Yv3371j/WSfWf/dH7/Wfbp+4Bd8A7hFHxzSJo1xFo/c3ACIivWL9d49Y/2kS67+i0Xv9p9snbsE3gCLi6Fgp4ShXSdD7GwARkV6x/isi1n+lhPVfSdB7/afbJ27BN4DixdGx4nHbKNdF0VI2GTkSHyMNXj4+qvPZCr2/ARAR6RXrv+LF+q94sP4rHXqv/3T7xC34BlDCbhkdE9PNO/HN0qUXh6euMzbcsUN1PK24bZQrV76P2QMGcE1RydL7GwARkV6x/ithrP/uCes/NfRe/+n2iVvwDUCRW0bHnPuLY6b1q1cnhyWHjT6QlaU6Xsm5ZZTrqFiFEcHBojECxZJWrVSn0xu9vwEQEekV6z9FWP+x/tMAvdd/un3iFnwD0AZbHR3jKJe26f0NgIhIr1j/aQPrP1JB7/Wfbp+4Bd8ANMpKR8c4ymVd9P4GQESkV6z/NIr1H5UCvdd/un3iFnwDsDKaGR3jKJct0PsbABGRXrH+szKs/6gY6b3+M6gOoHttRQtROTAQdbBczDl8WHUczdstpgFNmwohpgExMTkfyA52106f9pDeMkJOneo+qVpC2KuVKxf3w1q+ruVxPFyvlKnYIDERQhiEITaWL/z3yPJzbvm5JyIi0iPWf/eH9Z91Y/2nKbrtfFio7gDf2oGyjBBhvPkVHAkOFjfkU3Ds3RuLxATUc3BQfbw0r5hGxzjKVURtEYCtJhOqoS6WxceLWubd4u+IiFu/D1r7/SMiIn3Q2vsP678iYv2nDaz/rIJun7iF1n8APQKqy0U9KlVCw/xs07XXXsPPoor8dNQo7EZZLPP2VpXb6txxdMy1xZXvTCaOchWNPIixGH/xIn7FRnlhxQpTP1N/UWPx4kuXzwUFXz579k7/Tuu/f0REZJu0/v7D+q+YsP4rUaz/rJNun7iFtf0A1o6sHRnp5+R0pXnWBrNrr16Yh4GildFoGY1S9TysTeFdZwuIamIWLnp5qc5lNQreUDEWK+W+yMhy37v0MlzdsOGk8aTRmJCTc69fxtp+/4iIyDZY2/sP67/iwfqviFj/2QTdPnELW/kB5OgYlYh7HOV6ULby+0dERNbFVt5/WP9RiWD9Z9PsVQeg4pGefvZscPChQxiPMGDAgJujY+PHw5j/simeo2N0b24b5frbXMa0cdGiS31Sh4ypmZSkOh8RERH9D+s/Kg6s//SFWwBsVFpcohix8fz5tLdTXIwJc+akxbnGZLo88gikNEtzz57yC0xCzv79qnOSYgV3ZZVSTgGCgpwjkGh6skaN9OeT94aUnzjxUp/UGWP28IWfiIjIGrD+o3vC+k/XOAGgG8d6ThO5uWnpABAXh6cxHIiL491OdWKEnINjeXlYKLJE7KZN/+/uuH7G4IJRrmAAYaqDEhERUfFh/adrrP/oX7ABoHOFo2NtEQYEBXm2r/l3+OZ33pHG3BOGJQMH4qJoKZuMHImPkQYvHx/Veene3D7KJY+Zui1adCk9ZcaYS0lJGA6goeqUREREpALrP9vE+o/uBS8BoH+4uPOv5SHdL1woHB2Lcn0zc0atWoWjY0ewQg7bt091TrqFZc0NR7mIiIjoPrH+s1Ks/+gBcAKA7uKW0TFv+CKUo2PKTJfrMDI3F2+LP4X75s3/b5TrjX/clZWjXERERPTAWP9pCus/KkZsANAD4ehY6SjcV/u1WC/9V640/S23mdpylIuIiIhKH+u/0sH6j0oSGwBULCyjY9iJ5cCcOUC92CnxYWEe7ldCKoR37y6PilUYERwsGiNQLGnVSnVezbKMcu0CgKVLnSeJY6aI1auTw5L3ju6TlQVgr+qIVHo8v/EJjTrfoIE04rDp1ODBsrecaejVoQPGigVyW40aogq+x46yZVXnJCL9kalojo7Xr2OeHC06nzkjDouNMnbHDsNlsQ6fLF9+YXvSheD5v/6qOieVLNZ/xYT1H5UioTqAah4ePj4REVKqevy0tOTk4GChm+/DbaNj5bEe1fv3F76wR6KLi+p8pebOo1zr/jHKZeP4+/dPtSNrR0b6OTldPp+1Qx4ICxP7hCPWBAXhGA7glIH3bCEi7WuLAGw1meRI2QpO0dHpz5UzZ34+erRlpFx1PAu+/5Qu1n8FWP8B4O+faiwoqVRZRsfS2iaHBQcHBRlGOzwvRc2aMMoTIn7iRISgmVhgezcrsYxyyRWoIV+bM8e0BXGia61aaenJg42XevbU2ws//ZPlxP9KfvY22So+XiwThzFt2DCe+BOR1dmNOHSzsxM9RAg6jRjhEXf1uwqZ8fFAvdgp0tFRdTxSg/Uf6z/SDhaWpNRtd52d7Non40zt2oV3nR2D1ZhrhS+Mt9yVtayz/XDX3v+7K2tmfEqUMSE5WXVM0obL+7PbyvfCwzELR+Harp3qPERExWY44sSa9u3dU640dfOfP191HNIG1n9E6rABQBpjuetsSmpIaFxc+sTkdsHJvr5SGgzAU08hDgHA0qVyO/JRPStLddrCUS6JqWJqXByWm9MN11q3TotLeSM4+Kmn0tNT3ggOXro0USSKQJGdrTouaYvlGn9xDtNxfsgQ1XmIiEqKCBELZf6wYV5Hqu5dkFi/vuo8pDWs/4hKC28CSFbh1rvOegRUl4t6TJkCmKrmtzl3TlmwnfZt7HtVr56WnvjsiEvnz6M7gMmqjxZZC8vN/ZCKU4Kj/kRkywouDTB3k0H2dV5//eYfjh6tOhZpG+s/ouLHgpOsUlpcohix8fx55iCrNka+IdZ37Kg6BhFRaZFmWU5G+PqqzkHWSSt1l1ZyED0INgCIiFQJFodwvVo11TGIiEqLmC0+xuDq1VXnICLSKzYAiIhU8UI1LFW3BoeIqNR5ynKYy9c9IiJV2AAgIlJlkvRAqO2tPSIiuhM5CP6ocPas6hxERHrFBgARkSpbxSH03b5ddQwiotIi6qIH1n/1leocRER6xQYAEZEihstiHT5ZvhxtEYCtJpPqPEREJabgdc401e5ZUeaDD1THISLSKzYAiIgUubA96ULw/F9/lSNlKzhFR6vOQ0RUYv7EYTlt0aLM+LOzjAnHjqmOQ0SkV2wAEBEplv5cOXPm56NHy154C498/bXqPERExUWOwWrM3bEj7ajX3y6/jB2rOg8Rkd6xAUBEpNyxntNEbm76QteKmc936SKPyG9E/MKFvDSAiKyO5XWrCmrJpyIj0yd6jXF+q0sX4NDhoKF5earjERHpnb3qAEREZFHQCPAGgFGjvI5U3bsgMTra3E0G2dd5/XVpluVkhK+vCBXv44caNWCPODR+6CHVqYlIh/IRgCPXrskwOR5PnzljubmfaaqdsyjzwQeZR89+E9zq2DEgWXVSIiL6f9gAICLSqAuNk1qPrv7bbzf/1+jRAIBhqlMREQEAwgAAAxGGFf/4832qgxER0Z3xEgAiIiIiIiIiHWADgIiIiIiIiEgH2AAgIiIiIiIi0gE2AIiIiIiIiIh0gA0AIiIiIiIiIh1gA4CIiIiIiIhIB9gAICIiIiIiItIBNgCIiIiIiIiIdIANACIiIiIiIiIdYAOAiIiIiIiISAfYACAiIiIiIiLSATYAiIiIiIiIiHSADQAiIiIiIiIiHWADgIiIiIiIiEgH2AAgIiIiIiIi0gE2AIiIiIiIiIh0gA0AIiIiIiIiIh1gA0Axj4DqclGPSpVU5yAqTfy5JyIiPeP7IOkRf+61gQ0A1drn78nfkJjo4e6zPLJCbKzH5irOUTNatVIdi6g4ubtXqxYR0bSpx26f0IiImBg52VQ5v9/p06pzERERKcH6j3SA9Z82CdUBVPPw8PGJiJBSdY7btJVTgEOH5C4AWLq0bJr9YFfjRx8likQRKLKzVcfTCtXfv7S05OTgYKH736P/qRc7RTo6erhfCakQ3r27HCvWivlDhoj56I9xHTuqTncrfv+IiPRJdf1wR6z/7onq7x/rh1ux/rMmnADQqt1iGtC0qRBiGhATcz07f/HVj8+ccf/cp3X45dmzK/p7j4r08/FRHZP0zbN9zcHhm728PN71zor0mzDBY9TVWRUnnzoFIQzCEBur1Rd+IiIiTWL9R1aA9Z91s1cdgO6NqCZm4aKXFwCIVRMm2E3HTPlFaKjHQZ9Gke6bN4vp5p34ZunSi8NT1xkb7tihOi/ZJssol9hofgUYMsScm/s+hg4YIF4VNeVEZ2fV+YiIiGwJ6z/SAtZ/tkW3ow8WqkeIit0to2PO/cUx0/rVq5PDksNGH8jKUh2vuKn+/tnuCNEto1xHxSqMCA4WjREoltjONYq2+/0jIqL/orp+KHas/0qV7dYPrP/0QPeXAMjtyEd1G3phvGV0LDsY1e1++t/oWIX1VSbPb1O1quqYpC13HeWysRd+mYrm6Hj9uuocRESkBus/ItZ/eqX7BoBIkCPQ7swZ1TlK7Pk1wzy87+kpAnFGrJowwf6y6Gy/++RJjwTvjIjf16718vXOCPdv3lx1Tipdlu+75edABuQOEM+fPYtIUUf6z56Nj5EGLxu+xnCeHC062+7vPRER/TfWf6z/9Ij1H+s/gPcAgGyBuui7c6cAgE5166rOU+LeEX2x0NHx5v/o29cMQPj17esx1zsxYuzBgyIeV+W1yEjXF112GZbExZ00njQaE3JyVMemB1M7snZkpJ+T09VNWe3MwwICpD9cxUNGo/l90Qi/NmuG/gC+KvjLXxXlkayLeFf4yZE7dwIAJqpOQ0REpY31H+s/W8b679+x/rtJ9xMAhml4TA5ZuhT18Axqmc2q8yjzvmiFX5s1k78If3Fm9erLb2TZydcSEz1+9T4QfmraNPdJ1RLCXq1cWXVM+m+W75Pl+2b5Plq+r5bvs+qcyrRFALaaTIb9It7UJyZGdRwiIlKD9V8B1n82gfXfXbD++wfdNwAu7kxpENL955/lAFlXBERHq86jFYV3nW0neojP33lHOJoyDA8lJnos8f42/Ma6dZ5jq1wNi2/RQnVOvbN8HyzfF8v3qfD79v/uHkyADJcjhf2SJRcaJ7UeXf2331TnISIiNVj//TvWf9aB9d/9Yf33T7q/BMCi7CD76Q/fGDPmhqvp2pXMxx/HcMSJNe3bq86lGYvEBNRzcAAAsaxPHwkBgT59PEK8d0Y4/Pgj+uBt+VJUVLnvXXoZrm7YwNGx4mUZ5brSPGuD2bVXL6zHu+KzUaPkKlEPfz71FADgz4K/XE91Wu2RY7Aac3fsKP+Jyxd4YuzYdNWBiIhIE1j/3QXrP6VY/xUN679/p9v1B3dSXVaXK6Sz8/Vv8z+5+vy8eeId8TGGDRuGYziAUwbdT0zcjTwr34TnhQtiC/JRYelSs7Mh25AdHZ3RPWnCqBdTU4v78Wx1DYzb5qpzojZVqWLINjubnYcOlS/AHpeGDGFH9x4VjHTKdXKOWLh4cdkq9o88HD9uXKJIFIEiO1t1PCIi0hbWf0XD+q94sP4rItZ/94QNgLvw8q3qFTHmiSdMG8yd5dgxYxCPqWJNnz4iRDwLRycn1fk0b4Scg2N5ebiOq2jxySdiuUyGU1TUxUupM4L77N9f1C9vK28AnhWqTI5Y37KlHCx8kDNqFMrCFd+98sr/77zTnclw+S1yc3LwmMiE68cf270puuLPefMubE+6EDz/119V5yMiIutSWP/Nkl/g0bFjcVxWxNXevVn/3SPWf/eE9V/RFNZ//pgq+61fb9fLsE3Mmz+f9d9/YwPgPlUKrBQY6efhYXrEbjEwaBC8xSTZd/hwTEAcLlWrpjqf1aiD5WLO4cPyT5kkJ8TEOPcXx0zrV69ODksOG33g3vfyWt8bQL3YKdLR0cP9SkiF8O7d5ZfiLZEXEiK6YiacWrZU9TysjeWTBnwt1kv/lSvN7dHM7BcVlVkmOWz0gZQU1fmIiMi2ePl6+S7x9fQ0P2u/Jc8uMBAG0Re/jxiBcByUo6tWVZ3ParD+Y/1XFDkyGsvOn5frxGy5d9UqaRLd7HZHRpbUpImtYgOgyJo2iYl2cHCPvtgya/HLL6Ob7I4fR40SjREolrRqpTqdtZAHMRbjL14UH8qDcuHSpaaJwtP8QXT03U7otP4GUPGGT+iCZ7y97WbLi4bXhw6Vg0QzMXLIEMt+XlW5rU5BwWCegGFouGBBRnfXORnxcXHAsZ7TRG6u6nhERKQ3N0/o3DZfneDmHxBgmIMl+Hn0aJzAYDmhSRPV6awF6z/6L/IIVshh+/Zhq9iMp6Ki0od67ncZ/umnwKHDQUPz8lTns1ZsAJQQ95Qq1SP9nnxSnDC8LP2HDpV1sA8b+/UTjZGKHmXKqM6neQXrOlANdbEsPl7UMu8Wf0dEXByeus7YcMcOy1/T2huAu3u1ahERTZtivPkVHAkOFjfkU3Ds3ZujXEXkJGOweM8etMhdad+gS5e0uLS4ERuvXVMdi4iI9K1yTOWYmJgyZfJ+sZPZVbZsERvwHk536KA6l9Vi/adP0+U6jMzNxdviT+G+ebMYaO5pWhcWdnFeqmuo/3ffqY5na9gAKCWWSwfygx2+lUOHDBEzZCY6DRuG3SiLZd7eqvNZjYJPguEtPkB4VBR2y+/kuRUrlOVpK1qIyoGBSJGvI2TUKHb+S9hiBMh+O3faZ5oed9nYrdu5oHNBQUE3bqiORURE+mI58c+vaPdHVo+tW7k9oISx/rMtbXEdb6SkyMmiIr5assQ+Iu9ZEb106fkV51cYE9LSVMezdWwAKDRFGgxuV6tEu/l37SoWGx6TvxqNYj76Y1zHjqqzEWkaJwKIiEgBfuJP9ADayinAoUMYi5VyX2RkWvNKWS7t16/nKL8abABoDC8dILoPbAQQEVEp4Ik/0T3gKL9VYANA47h1gOgesBFAREQlgCf+RP+Bd+W3SmwAWCFeOkB0B2wEEBFRMeCJP9G/4Ci/TWADwEa4T6ocE/ZqkyYYa9gn5o0ahXhMFWv69BEh4lk4OjmpzkdWaoScg2N5eXAQG0XC+fNWs++YNwskIqIHYLU39wtBM7EgKQl5sof0q1SJd5+nopDh8lvk5uTAH1Nlv/XrMc/cSo6NikqfeS4odO3hw6rzUdGwAWCjeOkAPQjLPl78io3ywooVpn6m/qLG4sWAy2zn2Veu2A3Pdcp+eds2sQzXsL55c9V574oTAUREdA+s9hP/grvj55ixLb+ar69TVbsFTj6OjmiYn2269tpr+FlUkZ+OGsWtU/SfOMqvK2wA6AgvHaDbFBQO8k+ZJCfExDj3F8dM61evTg5LDht9ICvr1r9eofwjNWOiy5VjI4CIiGyBrZz4Xz2QHDb6QGbm7X+xXuwU6ejo4X4lpEJ49+7yS/GWyAsJEV0xE04tW6p+GqQIR/l1jQ0AnePWAZ2wjPIvFFkidtMmMd28E98sXXpxeOo6Y8MdO+73y7ERQERE1sz2T/z/m7t7tWoREU2bio3mV4AhQ2SufB+zBwwQr4qamOjsrPppUjHhXfnpX7ABQP/ASwdsw22j/H+bnzN1W7ToUp/UGWP2JCUV1+OwEUBERNZE7yf+d+LZvubg8M1eXrJdbpRhycCBuChayiYjR+JjpMHLx0f106d7xFF+ugdsANBd8dIBK1AwyiV3AcDSpXcb5S9ubAQQEZGW8cT/ft1y6cBRsQojgoNFYwSKJa1aqT4sVICj/PQA2ACgB8JLBxS5dZSriKP8xY2NACIi0hKe+BcvXjqgCEf5qRixAUDFgpcOlAx5Vr4JzwsX8LVYL/1XrjQvkk8aei9cmBmfEmVMSE5Wne9O2AggIiKVeOJfOnjpQAnhKD+VIDYAqMTw0oEHcMsof9k0+8Guxo8+ShSJIlBkZ6uOd78KGwEzcp/I3peQIKbiJzz1zDOqc90VGwFERFbJak/8C97/c5LEMdP6Tp20fuJ/Z7dcOjBWrBXzhwxh/XcXHOWnUsQGAJUqXjpQ4JZRLnxgHinGRkSkdU/NHjV53z7V8YobGwFERFSSrP3EP/cru3cdHHx9r1w5e3b48EuXVMcqbrddOlAe61G9f3/hC3skuriozldqOMpPGsAGACmll0sHrHWUv7ixEUBERMWJJ/7WycvXy3eJr6en+Vn7LXl2gYEwiL74fcQIhOOgHF21qup8xYaj/KRBbACQ5tjEpQM2Nspf3NgIICKiouCJv61p2iQm2sHBw/38+aysF1+02ksHOMpPVoANALIKmr104NZRLpP5L7k4PPzipdQZwX3271d93LSuon/tyEg/V1fD89nbpce2bWwEEBHRf+GJv764T6ocE/Zqkyaik90fhqeDgjRz6QBH+cmKsQFAVknZpQO3jHKZ26OZ2S8qKrNMctjoAykpqo+LtWIjgIiI/gtP/An4l0sHFNV/HOUna8YGANmMErl0gKNcpYqNACIi+v944k93ExtrZ+d2tUr0+Q+7dGH9R3R3bACQTSscHZtg+NUuo29feUAslwc6dRIz5CKMr17d8vfkZDEC7ycmimfkYPHMV1/JOeYnTG7r1qXPPBcUuvbwYdXPQ2+sthGwGAGy386d9pmmx102dut2LuhcUFDQjRuqYxERWRvLiX9+Rbs/snps3YrhiBNr2rdXnetu5FQ8iR8PHDB/7uwr0jp3zow/aTQmXL2qOpfesP4jujM2AIhIswobAUOy/8LRhAQxBHFyYosWqnPdFRsB9ACqy+pyhXR2zu5krnR1bO3apmbm5uLl6tXxI6LMn1epIrahmpjp7Y2m2IbqVatKP7iJehUriizRFz+VLy8no66sVaEC1qEjLpYvL67IN1DB1bXwAS7gLMYLgQ2iA1LLly/8817ya1S5fBleqIb3pbT8sSwnluHS1atiLP7CD5cuYQQ+F3UvX5Yuch2evHxZnEAV7M3IQCyqyL+Tk+VkURdpycmAfFScOHfOrqdhfL7PmTMPf+t02D7o5MmTxpNGY0JOjurjTNpmtSf+SxEgZn/3nXmpc0008vPjiT8RaRUbAESkeWwEkLWKjbWz8zpSdW9y88cfl83M39oZmjSRH4iXRa0nn5R95CNyXN262I8tOPLYY+Id8TGGVa+OYziAUwaD6uzFpi0CsNVkku/JV/FZYiIeQUPM/vNPcRjtsOfYMfEmouWYn37Kd7JbZ1hy+HBm/NlZlQYdPw4APXuaTKrjU+ngiT8RUelgA4CIrAYbAaQlhessh+c0yGnQujXcxDaZ++yzaIMwHGzdGt5Yia2NGyvfVmJlZCqao+P167iIobLOkSP4CdNwY+9ePCxDxKvffmue7ZIqTHv38kTLNvDEn4iodLEBQERWp7ARMC3bXraPjxddMRNOLVuqznVXbARYndhYOzuPgKqnzg1p0QKfyoOo2aULmqO8uNC5M7yxTdZr1Ai7EYdudnaqs+pGwUQBIOuh25EjAObibEKC2CED8NSXX168lDqjst333wOcINAyqz3x/wKTkLN/v3mKc77Y6e/PE38isjZsABCR1WIjgIqDT6hP6IJnXFxyhmG9/XR/fyyTU2RqQABcMRCLOndGpKiDfhUqqM5J92gGctAuMxPV5B9wSEgQQeI9vL9xo8sZuwWuH8bHJ4pEESiys1XH1Cue+BMRqcUGABFZPTYC6F5Nkfb2N9eF+vsbzhumyqRevfACJuDICy8gA/Ox+OGHVWekElJXTsf1q1flE2KdmLNlCw6aPzUf2LAh/WCq66XHExIAYJrIz1cd01bxxJ+ISBvYACAim+Hl6+U796OyZc3l7b9y3PLFF9gtqqLNc8+pznVXTjIGi/fsQYvclfYNunRJi0uLG7Hx2jXVsayde7MqVxc2e/RR8YN42PRD375YIUZjdWAgJiAOl6pVU52PNCJHRmPZ+fOoKebKmNhYg6f4Q3y6bNmF7UkXguf/+qvqeNbOcuKf94udzK6yZYvYgPdwukMH1bnuhif+RGSr2AAgIpvjttlt85w/Hn5YPOVSxumR+HjRGIFiSatWqnPdFScCHlhsrJ2dxxLvb1Off/FFrEIlccVoxCnRHrHPPqs6G1kZD/ggXEp0Roa48c034lM8L7tERl5MTA7L/HDzZgCYJsxm1TG1zmo/8T+CFXLYvn3yx6wbOaf9/TO6Z3Sf8Pjff6vORURUXNgAICKbxUaAbSq85CM9Z4X8dPBgjDX3w6+jRomRIgzf1aihOh/ZJrlXbsKg06exDatEQFSUOd6lDvDhh/xk+J944k9EpG1sABCRzSu8NOAJhzNO4z7/HGuQJSe1bas6113x0gAA/zvht2uZ9QYwbBgAyIwJE3hzPlLKDWMw/O+/5Tx8Iq8vXpz3quGs47o5c65cOXt2+PBLl1THK23WPuovz2V5Z7/g58cTfyKydWwAEJFuWCYCDC86n3E+8+WXcBdzcbx1a9W57kpnEwGuz/iELnimYkWnazDalx8zBhXlLvnsyJH4XbyDsq6uqvMR/au2cgWmXLmCulgp50ZF5UbY7XHMW7DA1hsC1vqJP9LlODy2d695U3aN7BpduvDEn4j0gg0AItIdTgRoTb3YKdLR0d39ypWKkQMH4gtxDJfee088jzhU8PBQnY7ogRjlCay5eeIv3ObMKfOWvfPD8RERtrKG0Go/8eeoPxHpHBsARKRbnAhQR0oh3B/x2RO1pXdvzJI/yMozZ/IafrJlcqMMx1d//YXlhhF4fNKk9NVJF4zzNmwAACGkVJ3vXvETfyIi68YGABHpHicCSofb5irtwoc+9pj43fCO+HzhQjEf/TGuY0fVuYiUqCV3oue33xoeNrTBvBEjtL52kJ/4ExHZBjYAiIgKFDYC/B0cHRO3bsUsHIVru3aqc92VRhsBhZ8UDjEMyR4yfjyisQfmN9/EO6IvFjo6qs5HpAk9MRqd8/OxF5tlxuLF5ulZo3Pc3npLKyeqPPEnIrItbAAQEd3CI8AjYFGPhx7Cd44D83/58kvkiCAMb9NGda670silAZ6Lq/SN/LljR+ls8JJHPvgAExCHS9WqqT48RNZALpShaHHmjHSGPTIHDcronhIc7LdrV2nnsNpRf402RImItIINALJpnt/4hEadb9BAGnHYdGrwYNlbzjT06tABY8UCue3/XWs8T44Wnc+cEYfFRhm7Y4fhsliHT5Yv1/pIJpUsNgLu7zjJOo45+Tvef19sEhdRYehQpCEZIYLvM/dJbkc+qmdlIV5+IkaePi3SxW9yz19/ydGygxh25gxqCTfzsDNnDC1lEnDhgnQTHwqP9HSzCe/LmhkZDmPzD9p/ffFilr9jb8PV/+2nL/N+3mQ7u5ycW38eLCd6N8Y7zDCZnJwsf+58WSTmDCtXLv8VU7447+FhsMN48Zebm8iQg2Sau7t5v6gKeHnhlMwwLKlRQywQX8slNWpId1lftKlZE03xtDTVqiVeFTUx0dlZ9XG1Oh7wQbiUcokci3qLF9u9lx+T22vChAvbL2wfN+D69ZJ6WJ74ky1g/Ud0ZyzMyKbUjqwdGenn5HT5fNYOeSAsTOwTjlgTFIRjOIBTBsM9f6G2CMBWk0mOlK3gFB2d/lw5c+bno0cDx3pOE7m5qp8nla7CRkCS44z8qC++wCnRHrHPPqs6112VcCPAs0KVyRHrW7Y0bxJPYs2aNaKHCEGnmjVVP23NstwV/mcxCSf270cPWQMfHz6MjTgpwn/+WZ6RMwwZP/+cfjDV1XPcqVMA0LOnyaQ6dlHExtrZuW2u0i51Z+3ahtfFcTzWsCGGox0eatgQvwtPMe7JJ9FQzkSdli0RKeqgX4UKqjNrlTwpj+LsqVOGi5gqfuvX72KdlChjwoEDxfX1rfbEv+BeCqiaO9l+VNeuPPHXJ9Z/RPeODQCyCZYX/iv52dtkq/j4Yr92u+BEKi3AtcWliv7+fCPQJzYCgCnSYPAI8N5escL48fAUv+DAu+8iFguwzd5e9dNUTc6CF77PyBDH5WB02r5dHkUXeXznTrOdXbThp337MuPPzhoV//vvgHXd9b00TJEGg9eRqnvLna1b19TR/LvdplatRDv8LOLbt4ev+Fi+7+uLyXDCrooVVWdVboScg2N5eXhSLMDfb72V1j35kHHt3LnAg/1c8cSfrBnrP6L7xwYA2QT33j4/R/y4ZIn4Gl2wb+jQknoceUR+I+IXLkz3TqllTBg1SvXzJjX01gjw8vXyXeLr6Wl6yz4o13H16puf9HfqpPrpqCLnyoNw/PVX4YJY1PzsM9EEJ0X4l19erJMSVWnQwYOA9X9yrzWxsXZ2nmOrXE15+OmnZRkxTCR36SJdMNww7aWXxALRS46rX191RlVkqjyNiwkJ9kNMQeLQgAHnV5xfYUxIS7vbv+OJP9kC1n9E948NALJqhdd4vYMk849Hjtz3qNf9KhgNM0wWr5g+aNToQuOk1qOr//ab6uNAahRuDfjbfpGj75df2lojwO1ln7zwc82aGezgKcp99hl2oyyWeXurjl9q2iIAzY4fxxTZS3pt2GAaZ7fZMGLDhsz4s7OMCceOqY5HN3kdqbp3QWL9+ubj5kN2v/fqhSixC4N69cJx/IgJjz6qOl+p6Q0PXEhONncUvQ1Pv/RSRvekCaNe/PHHW/+atZ/4Gx7OH5G7vUuXkr4XAmkb6z+iB8cGAFk1j0Y+z4Xvi4hAKk6JH43GUnvg+dghxoWFpQ1IftyYO3q06uNAalltQX2Hm2a596/qFTGmd2/MltXxwwcfiMZIRY8yZVTHLSkyXH6L3JwcESx2iplbtojp5p34ZunSi8NT141q8PXXAEf2rZG7e7VqERFNm4qN5leAIUNkK5xFx1dfFVXwPXaULas6X0kp/HneZJggqg8dmhaXFGfsuXKlta7zQ7och8f27jVvyq6RXaNLF67zI4D1H1FRsAFAVs3jI+81ESN/+w1jxETUqVevtB7XMgKcPjClcvCwBg1UHwfShsKJgPL2Xzlu+eIL7BZV0ea551TnuquCiQB0kvmGV3/6CbXFZ9J/zBjVsUqKfBvjEZWYiNViBX6OjMz7U2Q4rFyx4sqVs2eHD790SXU+KhnlylWrtnhxhQoOOeafc70HDRKLMU1cMRptfk3lSfmSiJ8/H18Je/PaJ5+0mgZlW5mEPd98Y7ic3yn3ha5d+Yk//X+s/4geHBsAZNU8KviERgT+/TfsEYfGDz1Uag/shjEY/vffaX8khwY7uLqqPg6kLVbbCLBVr8qPMPbHH2WGoQ+M8+enr066kDlv40YAmCby81XHI1WaNomJdnBwu3DhueyJAQGGl9BZlBkzBicwWE5o0kR1Ot3iiT/dA9Z/RA+ODQCyah4ePj4REepGc9PSkpODg7nnnP6d1V4aYOXkGmRgyi+/iFdlBTnl3XfT0lNSg0NunvBzlJ/uxnNxlb6RP3fsKHeJdnLX7NnYLaYBTZuqzmXzCkb90SN3r/1yf3/e3I/+C+s/ogdXcjfLICLSOcvN9QxL837N++KFF9APLmLm7t2qc9mcMTIIA3//HfuQL+q+8kp65+Qs46VGjdLSU1JDQuPiAJ740727ODx1nbHhjh1pcSlvGI3NmkFKszT37Fl4U0gqXgWvi4aO+Z/nXvTz44k/EVHJYgOAiKiEWUZY7R83jXWa3rVr4TX39GCM8gTWXLoEozwh4idOTJtY7rFM18aN0x5NPm/s9OmnAE/4qXgIIaWlkZQW5/WN888NGkgppwBBQfIDPI2g9HTVGa2W5SakyTmN7dp068ZRfyKi0sEGABFRKbFMBFjW7+FNNMLVXbtU59K8engGtcxm+YZsgilLljgEyzw71KmT9naKizFhzhzgWM9pIjdXdUyydYcOBw3Ny0tPT3kjOHjpUodzps55v9atizgEAEuXwgM+CGfj6a4KXvfs3zYnO4/mJ/5ERKWNDQAiolJW2Agoa3rB2fP552UvvIVHbq6bo//nOq6IeSdPmkfLNrDv2DF9ZsqW4MvDh6e6prqOPJiRoToe6du5oHNBY59KT09rmxwWHBwUhFnmI4bBbdoUXpJC/2T5xP+7nDL2R194wfI6qDoWEZHesAFARKSIpQB2aGASzqkvvKD7iYCeGI3O+flYKMfhsXffLTfbeQbqP/FERveU4GA/HR8Xsgpp3VOzR03et6/MBPu3XF2bNIEX9oj4mTMLf671ip/4ExFpChsARESK6X0iQC6UoWhx5gwuiu54pl27tF4pwcF+77xz0njSaEzIyVGdj+h+JIpEESiys9N+Ta5pTJg82TQXSaJqq1aWiRbV+UoNP/EnItIkNgCIiDTitokAW79ZYJ4MRrsVK6Rzdu1s14YN0+KSagVf3rtXdSyi4pRZJjnMWPaHH0zPOc9A/aZN5TgE4Mjq1apzlZiC1y1+4k9EpE1sABARacytNwuUY7Aac3fsUJ2rqGS4/Ba5OTnyDTyEPm+8kXY5ZVxww0GDMrpndJ/w+N9/q86nF9VldblCOjtb/qs6j15kxp80GhOuXk0fnxwWvGLAAHwuq8t9r70mtyMf1bOyVOcrslpyJ3p++y1ic5Idgrp35yf+RETaxAYAEZFGWQpo5wvYYvJ54QWrbQSEoJlYkJRkfklEieHPPps+M/mPYM/ly1XHsnUem6s4R81o1cojwTsj4ve1az3aeF+NeCUl5UZ9U4urj9y4Yfmv5c8tf8+zQpXJEetbtlSd39alNU/ZFxL70UfwMDuJ6Fat5EYZjq/++kt1rvtmOfGvmjvZflTXrvzEn4hI29gAICLSuOSw5LDRB7KyxDD5qXji6FHVee5ZwYmBwyjzKoPnk09aRqFVx7JVPqE+oQuecXHxaOKdEFHtgw8w2OBufmjvXvQXjfBV3774Q9TDs1WqIA3JCBGi8L+WPy/4e9LesAoX9+2zNAS8fL18535Utqzq52er0r1TE40JP/1kv9L0hTA1by6PYIUctm+f6lz3bBuiRODBgzzxJyKyDmwAEBFpnGd771/CN/frh9riM+k/ZozqPHclMVVMjYtzaiGWmF7y8+PavpJlOfHP+R6d7c/u3YskMRhjBg0q8hcuaAiYy9v3dLz0zTeWx1H9fG3V+RXnVxgT0tLKf+L8u+GFDh2wWh5Fp3XrVOe6q4LXJQ+fqk4RjwUGqo5DRET/jQ0AIiKNcnvZJy/8XLNm5ol4XAxdtkx1nrtqK8vg7IwZaenJg0dl9uplmVxQHcvW5XwjO9ulLlyIExgsJzRpUuwPsFtMA5o2zUmWY+1/jYpS/XxtnWX7RZpfipvx8X795ArUkK/NmaM6193Iz2UFzFm0yG1z1TlRm556SnUeIiL6d2wAEBFpjJevl+8SX09Pgx08RbnPPhOvipqYqMGbtXnAB+FSyhrCA2+MGZMWl/Jn8Py33gIAIaRUHc/WuQ32fjRqcPv2xfaJ/93sFs3ljNdf9/jI54/wFp07q37+eiCElOnPJ+8NKT9xIn5EgHAaP97ye6c6221ZfWGPRBcXww75sfmHzz6rFFgpMNLPw0N1LiIi+ic2AIiINGSKNBhMb9kH5TquXo3dKItl3t6qM93GcgKSgxuYHBycfjDpp+AyCxaojqUnsbF2diJAJJk3hoeX/qPLH0XTm9/vKdLeXvWx0Iu06slhxqFz55oTZDUxfdgw1MMzqGU2q851m4+RBi8fn/yldjGy6UcfAYCUQqiORUREN7EBQESkER4B3tsrVhg/XvQQIejUqZPqPLexnHDUF1XFnEGD0k4l/xw8mCPhpc1jh09eapugINEPbpjWoEGpBxgjJqJOvXoeV6q2c/N/4w3Vx0NvMqqlxBr7x8TglNiKMYMHa7URIKqIR+Dp5+eR6BMaFTN2rOo8RER0ExsARESKFa5d8xS/4MC776rOc5uCT/zFebkLM0eMSItLijP2XLlSdSy9KSeryzBZvry8gV6iwrRpqvNgg/xVvv/ee67P+IQueKZiRdVx9CYtOSkn+PiKFXgb62XTUaO0emkAVsin5E8zZnie8B4V6ffMM6rjEBHpHRsARESKWNaryRxDpBi/ahVisQDbNDhSPQt5aDFx4sXjKRnB+6OjVcfRK8fVpuN2Tu+8I17HD4hxd1edB5PhhF0VKzpFyB/sHCdPVh1Hr9I6JjuEVF68WA6VzcRjo0erznObRWIC6jk4mFPxnLRbt84jwCNgUY+HHlIdi4hIr9gAICJSxNTM3sXROHcuyqKcHFu7tuo8t7Hc1b978qHgde+/rzqOXnlcqdou0q9WLWknHeWM4cNV57lNPIaj7qhR7s2qXF3Y7NFHVcfRq3RjSpQxITxcq1sDbl7aVLMmvnBKyH9q5kzVeYiI9IoNACKiUuaZXmVnxJMdOohN4iIqDB2qOs9t2sqXRPyGDWlxKX8a5739tuo4ujdd9pFLwsNFiHgWjk5OquPcpuATXtHfcNT00Lx5quPoXfrzyXuDy735JvYhH0vXrlWd5zY1UB8xI0d6tq/6afhmX1/VcYiI9IYNACKiUmIZfZVbDFsR+uGHSEMyQjR0d+xacid6fvttuTYudYDXXgO4zk+lwjV/H2E6tjz/vOo8d/Uu+uDFbt24JlA9IaQsU8funOuvgwfLI1ghh+3bpzpToYLXPfMUs1ksjYmpHFM5JiamTBnVsYiI9IINACKiUiIzHLvm15syBRMQh0vVqqnOU5hroQxFizNnHL6SlexeePnlk8aTRmNCTo7qXHqmds1fUXFNoBYkikQRKLKz7d/KX2d44aWXMAcBqHD2rOpcFpZLAvLa2/2RM5yTRkREpYUNACKiEuZ1pOreBYn164tn4YALwcGq81jItfIvzM7Ols6GfENqQECqa6rryIMZGapz6Z3yNX9FxTWBmnJ+xfkVxoS0NMSbW5j7d+8utyMf1bOyVOeyEDvkSzJ39OiK2yvlhC2rW1d1HiIiW8cGABFRCZJSCPMqGWj/9MKFlmulVWcqVF/sFo1GjMjonjRh1Is//qg6jt5pbs1fUXFNoKakxaX2DBVHjhiaSSOaBgWpzlPoHdEXCx0d7d62SzQ8f3PLiJQaujSKiMjGsAFARFRC3C74hEZW6NMHa5AlJ7VtqzpPoTwZjHYrVqR7J/saEz78UHUcuklza/6KimsCNeliXsqk4KqrV8txCMCR1atV5yl0SrRH7LPPukdXHRnRqGdP1XGIiGwVGwBERMWuXuwU6egoLstXkfTuu6rTWMi9chMGnT5tauHiJMaHhKjOQzdpfs1fUXFNoCaJgznJ9n8PHw5XVETZEydU5ylU19xWVJ01q3Zk7chIPw1uvSAisnJsABARFTOPxKvfucUEB4vW4kV8+MgjqvOgJ0ajc36+YZl81Ly3X7/M+JNGY8LVq6pjUQGtr/krKq4J1KS0uLS4ERuvXTM3wiHZ9dVXMULOwbG8PNW5LDcHvIysE8CwYarzEBHZGjYAiIiKSeG1zh/JmfKDN99UnafQs9IOZ2bNujgv1TXU/7vvVMehm6xuzV9RcU2gJmV8muwQUvngQWwULUXi3Lmq8xQqI/bLim+9Zbk3huo4RES2gg0AIqJi4nQNRvvyY8YgUtRBvwoVVOdBWwSg2fHjZXraG107z5ypOg79j3Wv+SsqrgnUonJDnLcC06djjAzCwN9/V51HvIkLaO7m5oh8GMBLloiIigsbAERERVT4CVVbmStf18A13PXwDGqZzYAYiS6DB1v2gauORTdZ/Zq/ouKaQE06aTxpNCbk5MiqYrCMHDoUHvBBuJSqc6EndqBCSAgnAYiIigcbAEREReT4W/734nRoKDaIDkhVX6DKVjIX/WJi0uKSagVf3rtXdR66yebW/BUV1wRqUvqryZVD3v72W4xGGfHY8uWq82C3CMS0cuUcJps2GoaOGqU6DhGRtWMDgIjoAVUo/0jNmOhy5RCNCuKw0ag6D2YgB+0yMx0nyjV2dd5+W3Uc+iebW/NXVFwTqGl2+/KrA5Mno5f8GlUuX1adR9TAcIwICXHb7LZ5zh8PP6w6DxGRtWIDgIjoAdll5/6UVXnwYK188o85qIwfpk5NdU11HXkwI0N1HLrJ5tf8FRXXBGrS+RXnVxgT0tLk94be6KqBdaYFDSPR1rm1y77AQNVxiIisFRsAREQPIDbWzg6r5Aei8siRqrNYbtqVdsrL3jk/Olp1HLrFKjld5oSFaWXNn+yFt/DI119b/qs6D9cEalv6wYffzHRZuBCP4SnM+fNP1XkAQB67OXE1RRpYxxIR3Se+cBIR3SePAO9R5z986SUxUoThuxo1VOfBy2KR+P6tt4BDh4OGqt/jTTcVrvkrWH+nOg/aIgBbTSbDMdlKmkePNp8yJIpFRiN6YjQ65+erjsc1gVp1rOc0kZsrl5on4Rv1lxaJ2qIRqtWq5flp1XoVf9HA7xURkZVhA4CI6H59Bz/5lwau+a+D5WLO4cNpjyafH+X72Weq49D/aHHNn6wjT+HHpUsv7kxpENL9558z48/OMiYcOyYz0BHXNHCzt/8l5ZpADUqvl/p0Zu2NG+XvaIINR4+qziPPyJrYHBysOgcRkbVhA4CI6B4VXqPsKt5FbuvWqvPItnIx4t55BwCE0MC6LgKgwTV/deV0XL961XDA0VOuun37gL1Lfph46513tHKzN64J1K5pwmw2TMI75n1Tp6rOguXIwIdt27p/470xomudOqrjEBFZCzYAiIjuVW+Dh+n9119HGpIRIoSyHK/KjzD2xx/TZ6ZsMbb64gvVh4Vu0uqaP/mDeFnWnz794s6/lod0v3Dh1v/fcrM3sVb8jvwZM1TnLcQ1gZp0cWnyUyHYvBlXEID+R44oC1LwOizai3yk8qaARET3ig0AIqJ7MEXa24to+SPK9e+vOot83PCprMubpWmN1tb8yZPyKM6eOlX+feePDEsWLrzb3794yTU3s3dkpGZu9sY1gZolhJSitRwk98yfrzoLysqHkHezAcBLRoiI7o4NACKiu3C7WiXazd/fH5eFP/ZUrqwqh3wb4xGVmJg+NGnhpaOffKL6uNBNWl3zJ3cblsvro0efNJ40GhNycu7+L27e7E2MFn8iYfx41fkLcU2gJl3cWek1l3MbNiAEzcSCpCRlQZzEULxRqZL7JO8X3Pbz5pFERHfDBgAR0V0Y9osAGda7t+ocWC1W4OfISACYJjRw13a6abrsI5eEh2tlzR8WI0D227kzo3vShJDoLVvu959ffDnpWHDDzZvlRhmOr776SvXT4ZpArbq5dUTMw2ty9s3XJaXKi1pyea9eqmMQEWkdGwBERHdQXVaXK6SzM2ZiMz57/nlVOeR25KN6VlbenyLDYeWKFaqPC91UuObvI0zHFnU/H4UK1vyJJXIQ9oaGFvXLmWfbHRKm0FCuCaT/kpNp193ce/lyy+uUqhziQ1TD0hdfLHzdJiKif8UGABHRHdyIzt9zJatrV/wu3kFZV1dlQU5gpoiOi7ty5ezZ4cMvXVJ9XEija/7sEIjZy5ZZ1vwV9etZ1gTiTbhJ+cEHqp/f/3umXBOoIVdEoggVly+L8/I3PKZwHWkG5mPxww9nfWauf/UXNoiIiO6EDQAiojs5jd9EbI8eqmPgRfEtlmppT7u+aW7NnxvGYPjffwuTXQP72cW/fcDu7fzdhtC330ZbuQJTrlxR/XS5JlCbzJ1R0fz4smXKc+yQVUQbDbxuExFpFBsARET/Yoq0t4crBmKRwk+S2iIAzY4fT3dIWmmstmeP6mOid5pd83cGgfLLadPS4hLFiI3nzxf31y9cE7hDXMeS995T/XwLcU2gpmSIFBGCb76xbJ9QFsQPrvKCnx9wc1JH9XEhItIaNgCIiG7hnld1oFtSixaIFHXQr0IFZUFi5QK0+Phj1ceDbrL2NX9FxTWBdDdCSCkGowWg7nXL8vvpecJ71PkPmzVTfUyIiLSGDQAiolsIZ+knu/v7q85h6mI3SfjHxqrOoXdaXfNn+NrQBq+NGXPva/6KqmBNYD28ZU6ZMEH18y/ENYGaIjLwiXxW/euWzMGr5kXqX8eJiLSGDQAiols1R3lxQd3ov5wrD8Lx118Lb8JGamltzd+baISru3ZZ1vWV9sNfXJr8VKjYtEmGy+F4eft21YeDawK1pfAmlH0wAVv++ENZkJ9Fa9Hj5qUARET0P2wAEBEVsFzjDW9sk/UaNVKVQzyFRNnp009VHw+90+yav8/lbNkwJER1HLv6hmdNZq4JpDvYieeFg8LXsX14H+ubNHHb7LZ5zh8PP6z6cBARaQUbAEREBRyezvtb/NG6NXYjDt3U3TxKOGGtYUR8vOrjoWdaXPOHMDSWUcuXF9eav6K60Dip9ejqv/2GACRh24cfqs7zP1wTqAXyJzENSxMSlAWIxQJss7c3XHF5zCmwZUvVx4OISCvYACAisuht8BDn27RR9vgzkIN2mZkX66REVRp08KDqw6FXWl3zh1C7AQ5vT52qOs6tDDPyfnX8nGsC6Z/SHZJWVjqwf7/ldU1ZkK3yBdFS4es6EZHGsAFARGTRBmE42Lq1ssc3yU9k7W3bAKBnT5NJ9eHQG62u+RMXUBMbp08vqTV/RXVh+4Xtw7ZfvIh54ksxe8YM1XkKcU2gcj17mkyYhFniua+/VhYiCZ9jLBsAREQWbAAQEaFgX7Q3VmJr48aqMsgkMURc27lT9bHQK82t+dsrN2HQ6dOu05zPilVRUarz3E1addcWGUEREXBFRZQ9cUJ1Hq4J1IhTYi2a79ql7PGPiyWY1KQJAEyRBta9RKR7fCEkIt3z8q3qde77unVFY6SiR5kyqnKY2+UfNW/et0/18dAbza75my9gfqg01/wVVcGawHx0wD6uCaSbxBHZWKzcu1dZAHvEofFDD7k1rRzj3pTffyIiNgCISPfM/qYTKN+0qbIARnkCay5dyvQ973R58PHjqo+H7mh1zV/Buj3Vce7XxcTksOAVn33GNYEEABefSw5L9/rtN8vrnLIg79jNlp4KX+eJiDSCDQAiIndDqnhX3do//Cwm4cT+/QAwTZjNqg+HXmhuzV89PINaZrOcafgFruPGqY5TVKI2vjA8MW6cZX2h6jxcE6jONGE2Y7GoJ+MOHFCVwdBWPg88+aTqY0FEpBobAESke7KPfESOq1tXWYBYuQCXfvxR9XHQE02u+VuLbrLWsmXp6WfPBgcfOqQ6TlGlNU/ZN+rK0aMYAaDbBx+ozvM/XBOoRGvpIKIOH1b2+NNFA7nkscdUHwYiItXYACAi2o8tOKKwMIzGHpn1yy+qD4NecM1f6eKaQAIA2cHQSW5X+Dq3CQvxNRsARERsABCRblWX1eUK6ewsFop9yKlWTVUO+aFsbP8cGwAlTatr/rANZ8UH776r1TV/RVW4JrCfmIguM2eqzlOIawJLlblW3nw56ueflQXww0C0rlkTqBc7RTo6qj4eRESqsAFARLqV3clc6erY2rWxG3HoZmdX2o8vtyMf1bOy0g+munqOO3VK9fGwdVpd81dus3NNbIqMVJ2npKV1d52QuTY8nGsC9enmTU5PnJBr5V+YnZ1d6gFisQDb7O3dNl9eUmFYzZqqjwcRkSpsABCRbpmamZuLl6tXVxbgiPwJ526e+PfsqYGbpNkorvnTCq4J1LtpIj9ffC6iUe/MGVUZDG3tYDij8HWfiEgxNgCISL+Wopv80dtb1cOLX8RW+KkrhHWDa/40hWsC9U3Ol0F4Rt3rnrwmJwE+PqqPAxGRKmwAEJFuid1oIJ9X1wDAEozBhr/+Un0cbBXX/Gkb1wTq1BT0wCKFr3uLcFlWV/i6T0SkGBsARKRf01DV0EhdISjNSJJ1ExNVHwZbpMk1f9NQFaeWL7eVNX9FVbgmsDOOCvsPP1Sd53+4JrAkiSBRS8xW1wAQw3FDhrABQET6xQYAEemWdMbXMkjdzeBkIqaJ186dU30cbI1m1/wtsltgv2fKFNVxtMawIc/OwfTWW1wTqA+itvSQXdVtu5BXsU7Yq78JKBGRKmwAEJFuiWz0R2L58qoe37ANQbJuRobq42ArNLvmbw7W4LX33rPVNX9FVbgmsCFai2dmzVKdpxDXBJYI8w48iqEKX/cW4yX8oe51n4hINTYAiEi35NviCRgrVFD2+KMNnUTv9HTVx8FWaHbNX6LzayIzIkJ1Hq1Le7vc1oz4sDCuCbRt5mZin4hV97onDqOGCFL3uk9EpBobAESkX7sRhEHlyql6eLs0kWg2cgKgqDS75q+TWAvj2LH6WfNXVDfXBCIeF0W1iRNVpynENYHFyn6l4RNTZXUNALlCusvjnAAgIv1iA4CI9Ks5/kK/MmVUPbwYlDPIzv/6ddWHweqtktNlTliYZtb89YOLmLl7t2Xdneo41ibt0eTzxk6ffmo5jqrzcE1gMdto10msVve6J56HE064uKg+DEREqrABQES6JebJLgh3dFT1+Dmfldnt9GJururjYK08vvduFVWuUSPL+jbVeSzkWCzGk6tXq85h7TR3HC1rAi0/d/RAcg6ZvnJMUfe6JyeIgZin7nWfiEg1NgCISLdkuJiMBg4Oqh6/bGDui9dXsgHwwLLE0+bp2hn5txCNESj9P/jAo7mPf8QnX3zh5eudEe7fvLnqXFpnOU6W42Y5jqpz3cZbDDEdGDZMdQxrVeb9vMl2duouiRHz0A+r2AAgIv1iA4CIdEssk8Gop64BkByWHOYzmg2AB/YW/sKctm1Vx7ij0/gFyV26mI+IRsLvwAH32T67Iny2b/c84T0q0u+ZZ1THU80joEpsmGzc2MPdZ3lkhdhYc4roKv747jvLcVOd747WyLOiyrPPqo5hrc4FnQuqUEFdA0C+LburnPwiIlKNDQAiIrI6U6TBIN+RcZDVqqnOcq/EfPTHuI4dZUvxmfT/7jv3PO/ciMnx8Z5jq1wNi2/RQnW+kmZ5npbnjd2G0YbIn36CwFQ5NSAAaUhGiBCqc96N9BOLsKtGDQCQUvt5iYiI/j82AIhIt+QbIgLH8vJUPb5PqE9o8gJ+EvUgpkJK1BetUNtsVp3lQYkq4hF4+vnJVYZ6hj/373dP8dkenrt3r9tm74iIhHbtVOcrKssJv8cYn6URf23danmeluetOt8Dq49WqGO9P3eqVY6pHHPpkrqbdYp3xWaEcPKKiPSLDQAi0i0xS66GUV0heH2F46ayA9kAeBBCSClWy274PDFRdZZie06NESiWtGplGCzm4vjOndbWELjTCT8+wnRsef551fmKzVq5EN/+9Rdw8+dQdRxrc2O8wwyTSV0DQI7FGrzGBgAR6RcbAESkW7K/iMZv6iYAnF660TZnExsAD+yQyMRvX32lOkZJuWNDYLD3o1GD27dXnc+zQpXJEetbtrT5E/5bCIO4IoK3b1edw1o5NbXrlOut7nVPzJErMZYNACLSLzYAiEi/vkdNrLlxQ9XDy2SndcLnoYdUHwZrZT5tetwwMjoaHvBBuO1/ElvYENgsbpgbfP21+0if6IitO3Z4BFQ9FVG+deuSfnzL41geV9obVuHivn22fsL/vwNw8+fMXM48zDwoJkZ1HGslP8s/ZVii7nVPfo4c1MnKUn0ciIhUYQOAiPSrL3bA8/JlVQ+fP9I8Hc+7uak+DNYq49C5oFGH//gDo+T78rePP1adp7SJDXgPpzt0wG75HKbt2WOZEPBMr7Iz4skOHYr69T02V3GOmtGqleUTfsvjFD6u3iyQX+DL9eszuqfuCok+flx1HGtl6GHeaBbu7qoeX7yFn/DhpUuqjwMRkSpsABCRbokZ+F2cUlcIGtbI82ZPdYWwrTBtQZzh5fHj5RFUwUZ1Ex2qWSYEZF3DAAzcseN+GwK3nfAPNribH9q7Vzef8N+B3I58VM/KsnM1Hbc7NGmS6jzWztQMgYa31L3uyaaiNuayAUBE+mWvOgARkSrSRa7Dk5cvC4iXVDy+yJCDZJq7O4Aw1cfCmmXGp0QZE5KTPfZ6R0QkzJ8PiLk4/vbbqnOpVtgQgAEYuGOHR6hPncjU3bvlGTyPJ6dOLfx7NfA5fpo6FYORZX6obVsA07FFdXrtEMflm3CeN+98r/MtR75oOzedVEW4yzVyp7s7IOrBVUGAUdiCKpcvYyKAZNVHg4io9HECgIh0S5iFn3RNT1f1+Ob9oirg5aX6ONgKpwPijGnqrFmYgwBUOHtWdR7NWYMsOaltW7EXcdJ/927Lfy1/rjqe5rTFdbyRkmJYnv957sU5c1THsRmvGKYID09PVQ8vLqGxXJWRofowEBGpwgYAEenXLJmODSkpyh7/lMwwLKlRQ/VhsBXJYclhow9kZaG+/EF+zgkAKhqxSY5DxptvXth+Yfu4Adevq85jK2SMPCUn1qyp7PG/QSfD18n87J+IdIsNACLSLdkZZ+UkdQ0AsUB8LdkAKHZpzVP2BW9YvRoROI+VP/ygOg9ZmTpYLuYcPnwxL2VSps/atarj2Jxp2IgR6hoAYpMwwpMNACLSLzYAiEi3xF7xhN0RdYWgdJf1RRt1hbAtE0JKcdicaZ4ZEqKXNYFURJafE29RR94IDgaAacJsVh3L1oi+YgK6KmwAtDM54HE2AIhIv9gAICLdMuwX8XnRCq8V9xevyIWPPAIAsbF2dqqPh625OC/VNdT/u+/0uiaQ7lPBmr+0uKRawZf37lUdxxZNkfb28kU5CvvUTT6ZvHHOvDgpSfWxICJShQ0AItKth791OmwfdPIk2iIAW02m0n584Qt7JLq4uG2u0i51Z+3aqo+HreKaQPovXPNXOryOVN1b7uxjj4kQ8SwcnZxKPUBPjEbn/PyM7pWvuDQ+fVr18SAiUoUNACLSrZPGk0ZjQk6OHClbwUndJIDhdXEcjzVsqPp42CrLmkCxV76KyfPnq85D2iLs5SbZYO7c8y3PtxzZj2v+SoppPl6xi2zQQFmAo/gW7U+fBg4dDhqal6f6eBARqcIGABHpnugtxslFf/yhLMAiTBB1FRbGOsE1gfQPljV/oflv5+17/33VcWyd+EkeEL8pfJ1rji7Y9+efqo8DEZFqbAAQEW2SVcSA339X9vgLRAKuN22q+jDYOq4JpP+Pa/5Kl/xJesumTZoofHxHrFDY6CUi0gg2AIhI90RrdMXaI0eUBWgmw2Fu2RIApkgDX5dLGNcE6hzX/JW6KdJgEH3xDRa1aKEsxBlRSzQ9fFj1sSAiUo2FJhHpXn5Hu7/FG4cOKQuwQXRAavnyN2+SVbeu6uOhB1wTqENc86eEx/ferdzLN2iA3SIQ08qVUxbEzdzI8J7C13kiIo1gA4CIdC8z/uysSoOOH5epaI6O6kaBTR3Nv9ttatVK9fHQC82vCbTWxoRWcxd8n7nmr5TtEpPMZ1u3Vvb4+QjAkWvX0g+muqb9cPKk6sNBRKQaGwBERAB69jSZcBFDZR11lwKIdvhZxLdvr/pY6I1m1wTWRwusjYyU4xCAI6tXq1pXeVdjZBAG/v67rCE88MaYMTiHFmirnWvqC9f8NTLZ23/65puq8+iNfAGRuNiunbIAHeUC/H3zk39OfBARsQFARPQ/P2Eabij8ZLAh3pcZnToBQGysnZ3qw6EXml0T6Is1eKh//9xPAdPvISGGyeIV0weNGkFiqpgaF6fqk3b5NsYjKjFRSjkFCApKm5jyduVtDRqI3+RJRNaoAXvEofFDD6k+fBZc86fOFGlvLxbLSBzp0EFZiLroJzvv2aP6WBARaQUbAEREFvtlRcNvCgvFSFEH/SpU8Bxb5WrKw08/rfpw6I3m1gROhhN2VazotE3m25efNOlC46TWo6v/9ltaevJg46WePQ3e8gv5eIsWGIB38MLnn5dYjoJ1eXKjDMdXISHl4QxR+7HH0tNT3ggOXrrUy7e604WvqlWTy+RR2A0Zovqw3Zqba/7UcF/rc67Cey1bWu5xoizIGEOq4RM2AIiILNgAICIqYFrs9IvTL3v3qh61ls3ECoPw91d9PPRGs2sC1yFAfjFqlHuzKlcXNnv0UcsfX9ie4hYS//33afOThwTX7NYNbcU3mNKmDdrKJOz55psHfTg5C174PiMDRnlCxE+c6OSDgab2deqkP5fSI/iLiIiTxpNGY0JOjuXvmxvnh5tbz5wpQsSzcHRyUn24LLjmTy0xAN+IT/38lAXoidHonJ+Pwdnudg/t36/6eBARaQUbAEREBS5dPv1X0NArVwBZD93U3QtAnsZTYvDLL6s+HnqluTWB74i+WOjoiMfFJtOzd/4k23Jzu7S4FBG8sW1bLDenG661bi3fkE0wZckSjJf78MTBg8iR0Vh2/jzmy9k4ceyYfEN+JuI3bRINZLys0b+/3Ya8irl+1aunvZ3iYkyYM6ewMXIL90mVY8JebdIEX4hVmNarl+rDVKjg+3YxL2WS0WfNGtVxdOtlfI9F6l7HZDksRcVDh9Li0uJGbLx2TfXhICLSCnvVAYiINGguziYkAACqNW1a2g8uFoheclz9+l5Hqu5d8GL9+pbRb9UHRU8sawLD4kNCpIehk2H4vn1IQzJChFCWKUFMQrXu3T2uVG0X6depU1q5pF3GhK++utPfT+uemj1q8r59ALYABf/9/1diDwDw6y3/KOE+ArnaPWr4Zs4cpCEZ49Qdl0KWeyJ8Jr7BpTFjANQSQoPbCGycR0CV2DDZuDF2YzQiH3tMVQ4xQ/4Oj4QEzIT6n00iIg3hBAAR0a36ybOGivHxqmOYj5sP2f2uoU9WdUazawI3m1+XtcPCgJs3WSvth/f4yOeP8BadO4v56I9xHTuqPhyFFsgv8OX69Vzzp5acafjOzl7965YpS4wWN778UnUOIiKtYQOAiOgWad1Ts73qHDiAGchBu8xMZUGixC4MullIS6mBT1h1SnNrAseIiahTr57nY95uFVsNHlyaDy2lEIjGGUPizJmqD0NhJsuaP1fTcbtDkyapzqNnUgoBs3xVXu7ZU1mGzxGAS2lpmWWSwzLK/Pij6mNCRKQ1bAAQEf2Lnj1NJlSTf8Ah4X6GoovXcfyICY8+6r7W51zEe23aqD4meqXVNYHmj8QAdJo+vZysLsNkyd9l3W2zT80o/759cQKD5YQmTVQ/fwuu+dMGt83eEZHb2rYVrcWL+PCRR5QFOYsG4sDNCa5pwmxWfVyIiLSGDQAiojsQQeI9vL9xo+ocSMH74nTpftJLt9PamkDxPOJQwcPDoUP+KsOUyZNL7pHqxU6Rjo6irfxR1p82TfXzLsQ1f5piSMWT8tk33lCdQ3Y25wIaeN0mItIoNgCIiO7A5YzdAtcP4+PRVq7AlCtXlAXphPXo3qOH6zM+oQueqVhR9XHRK62uCRQBeARTjMZb1wQWF/fIK3vc/IcPF7VFI1SrVUv18y183lzzpwlVrla5urCZm5ushRai1ksvKQvSS36NKpcvV1hZJhe4880xiYj0jg0AIqI7SBSJIlBkZ0sPMUfIrVtV5RC+sEeii4vjEUwxvBkYqPq46J21rgm8X26b3TbP+ePhh/GCqCV3vfmm6qdZqA6WizmHD1/MS5mU6bN2reo4epd3yTDF/PqgQeJVURMTnZ1V5ZDPiX3igy1bThpPGo0JOTmqjwsRkVaxAUBEdDcHzZ+aD2zYoDqGWIxp4orRCKi5+zv9j2VNoHlmSEjh+jnVmW5ZE1jUr2dY4zzOedmECaIZ5uF9T0/Vz6/wOHuLOvJGcDDAa7zVatokJtrBAfOwW569+bqklKd0lXbqX6eJiLSODQAiortIP5jqeunxhAQ8Lo/h29RUZUEmIA6XqlVzu+ATWrGCurts0022uibQfVK1hLBXK1eW60QDDAoJUf10CnHNn6Z4fH/eJWtnnz74GGnw8vFRFqTgXhDpz6X0qPzatm2qjwsRkdaxAUBEdA+mifx8+aGYIjZ99JHqLIaX0FmUGTMG4HpALdDqmkC3s9493da8/vr9/nPRybzN8PTUqaIKvseOsmVVPx2u+dMeKYWQLuKyGHnzdUhxGg+8vXIlULC9hYiI/hMbAERE96qveZqhyYoVyke+C9awuV2tEh3l//zzqg+L3ml1TaA4J7zlqXffrVD+kZox0eXK3e3vF95EMA5V0XnQINX5C58H1/xpisefPpWitr/0kuiAK/ipYUN1QSyvw6Krad/NBgAREd0dGwBERPco/WCq68iDf/6JzsgQN775RnUeg7vhuFw3fTrASQAt0OqaQLteOVuyKt/DmsDphvqmw7NmIRYLsE0D95jgmj/NmSINBvkXrsieU6eqziIHYBbyvv46LS45bPSBkydV5yEishZsABAR3SfxKZ6XXSIjVedAOcRhdePGHgHeo6L8X3lFdRy90+yawMa4JJ4PDr7TmsCKN3xCI68//bQYA29UU7jG7dbcXPOnKe79q3pVHNuzp+gHN0xr0EB1Hnxibiq3R0SojkFEZG3YACAiuk8XE5PDKvtv2SL3yk0YdPq06jyAsJfvvPde4V25SSnNrgn0FcfNbnPm3Pp/20XjT7lg9mykIRkhGpgk4Zo/jakXO0U6Oor90gt1b04cKeWKiih74sTNm7N++aXqOERE1oYNACKiB9Czp8mEbVglAqKiVGfBbsTh4GOPub9+3pT1xsiRquOQRtcELhMvSf8XX/RsX/XT8M2+vm5Xq0RH+nXrhlk4Ctd27VTn45o/bfJIvPqdW0xwMK4iE9fr1FGdB29gFgJufvLPnw8iovvHBgAR0QMyx7vUAT78EEZ5AmsuXVKdR7ggVnz6zjuVYyrHzPvR3V11Hr3T6ppAc6xcKebMnSs+Fd1l95kzVecpVHCcuOZPG7x8vXyX+Hp6YqzsIifewz0kSpicBS98n5GBQzkr7V9ftUp1HiIia8UGABHRA8qMP2k0Jly9KteKdkjXwLWoG0QHpJYvn/+Y3R8O+2bMUB2HbtLamkBRF4fRq1EjMU40Q+4TT6jOU7jmr5HJ3v7TN99UnYduMmfYj8k9PmsWdotATLv7FokS95S4jJ5hYWlxaXEjNl67pjoOEZG1YgOAiKiITOcdLzhPCA9HL/k1qly+rDoPpiAJtQYPds+rOjDybJs2quPonVbXBGoF1/xpi/tLPqGRfs89h2wxFXaBgarzWF5X8xoZTpq7L1qkOg4RkbVjA4CIqIguXT79V9DQK1dQEdPl5YULVefBMRzAKYNBtJOX5TPLl1eX1eUK6eysOpbeaW1NoHJc86cptSNrR0b6OTmJqnhE5kVHa+WmkDJFRIsPwsKuiEQRKjTQYCUisnJsABARFZPcCLs9jnkLFmAGctAuM1N1HhzHj5jw6KM3GpjO/O2vnbV0eqXVNYGqcM2ftlz2z/4L26dOxXrMwQuPP646j/wATyMoPd20y3GT04sauMSKiMhGsAFARFRMrlw5e3b48EuX5DLhg9oaugb/OXwmw8eP96xQZXLE+pYtVcfRO82tCSxtXPOnKR6bqzhHzWjVSkwCZLtx41TnsRChOIk106cXTlgREVGxYAOAiKiYpR98+M1Ml4UL5Ul5FGdPnVKdB7FYgG329uZN4kmsWbOmon/tyEg/V1fVsfRMi2sCSxzX/GlKhfKP1IyJLldOZosZZt81a7AbcehmZ6c6l9wrN2HQ6dNpp1zfynw9JkZ1HiIiW8MGABFRsTvWc5rIzcVIQz3grbdUp7EQPUQIOtWsaWiX/ZesrIF7FeicVtcElpgF8gt8uX491/xpg/2snFVZA5YsESNFGL6rUUN1HgvRCi/I5RMnFr6OEhFRsWIDgIiohKSvTrpgnLdhA95EI1zdtUt1HgsxF3Fo3L+/+ySfxyMuDh6sOo/eaW1NYHErXPPnajpud2jSJNV59M7jStV2kX7DhuEd0Vcs69NHdZ5CbWUS9nzzTVp6SmpwyMaNquMQEdkqNgCIiEqQEFKathsain0jR2KEnINjeXmqMxWqL7/EqoUL3V72yQs/16yZ6jh6ZetrArnmTxu8fL0zwv2bN5efmz+QHcLCVOcpNF2uw8jcXNMQU66587BhwM3XTdWxiIhsFRsAREQlLDP+7CxjwrFj8mExCL21U3iLEPEsHJ2cDM9jvNi+cWOlwEqBkX4eHqpz6ZXNrQnkmj9N8PL18l3i6+lpflx0FE9u3Gj5vVedq9BODMb4uXMzfc87hb7x+++q4xAR2To2AIiISoldQt6zuUnTp8uFMhQtzpxRnafQBMThUrVq+e/Z9zVv+eyz6rK6XCGdnVXH0htbWxPINX9q+YT6hC54xsXFNNzhibxfN23Cx0iDl4+P6lwWlpukOvmIrqZ9GtqaQkRk49gAICIqJZYTIekMe2QOGqS1u7+LxggUS1q1uuFh+uDvih99BABTpIHvE6XM6tcEcs2fclIKkdNZvmW3YvlyMQRxcmKLFqozFaqHZ1DLbMZA8Z747fXXCxtfRERUKljYERGVsozuKcHBfrt2ySVyLOotXqw6z20EpsqpAQHun/u0rnBl5kzVcfTIKtcEcs2fJnhc8R4V5T93LvqLRviqb1/VeW7jiaqoGBWV/llymDHhm29UxyEi0hs2AIiIFHH4w5zh/ML48XBFRZQ9cUJ1nluJQJwRqyZM8HjXOyvSb8IE1Xn0xurWBHLNn1Lur3s3CjeFhqK2+Ez6jxmjOs+t5F65CYNOnwZyku0XaGc9KhGR3rABQESkyLmgc0FBQTduiAT5nNg4YIDmtgRYrBft5PFZszx2+OSFnxs+XHUcvdH6mkCu+VPLI8AnNHzJyJFii8gQCxcsUJ3nNgV3+TdXFWuFoU+ftLi0uBEbr11THYuISK/YACAiUuxinZQoY8KBA3hSLMDfGvxkLA3JCBEC76KPOBQV5eFT1SniscBA1bH0QutrArnmTw33FJ/tkX6DBuE3fCfej4xUnedOZKhoKD+fNCmzTHKYsawV3tOCiMjGsAFARKQRad2TDxnXzp2Lt7Eem7ZuVZ3nNsdwAKcMBrjKJ5H7wQfu33hvjOh681pvKnmaWxPINX9KeFyp2i7Sb9gw0RcxcuSyZYUNOq2xh4PsHh+fnp1cPvgFDU4mEBHpFBsAREQaIoSUdj/lfyicXn8dveGBC8nJqjPdpuCEQwwT83AsLMwj0Sc0MnrcONWxbJ3W1gRyzV/p8gjw3h5RfuJE1JYnpP/ixYUNOa0paFDZTzVNzE8fMAC4+bqmOhYREd2kvTcOIiKdO7/i/ApjQlqauaPobXj6pZcs11irznUbyyePTyFO5rz/vvvnPq3DL8+eDdxcQ6Y6nq1SviaQa/5KzRRpMHhc8R4V6TdvHnaLQEybNUt1pjuxvE7Jk6bHzdteeulc0LmgsU+lp6vORURE/8QGABGRRmV0T5ow6sUff5SJcBHRb7yhOs/dWLYGuB/z6Rx5Mi7OJ9QndMEzLi6qc9kiIaQUI8wTMD40tNTWBBY8jvjdvEfOHzUK4Jq/klA7snZkpJ+Tk8c47yUVV61dq9W7+t9KVkYfDBw8OH3muaDQtYcPq85DRET/jg0AIiKNy+ie/JcxYe1anJQviXjt3QTuVuI5/IYvX3kleyy6GL7dvr1SYKXASD8PD9W5bM3FS6kzgvvs348V0g5Vw8JK+vFkJTkU/efPL3xcKlZevl6+S3w9PS9Xzf4LR3ftwkoxA1d691ad625kA/keMubNy/BKDgu+vG6d6jxERPTf2AAgItK4yjGVY2JiypSRk0V9OaJxY9V57pVojECxpFUr00P2R2STw4c9T3iPivR75hnVuWxNWvNKWc59J07EYgTIfjt3FvfXl2OwGnN37EjfWSnSuQrX/BU3d/dq1SIimjY1dXPolvvXDz+IIYiTE1u0UJ3rXok/4YENzZt7BHgELOrx0EOq8xAR0X9jA4CISKMsJ/55v9jJ7CpbtogNeA+nO3RQneu+fYw0ePn4mH9AqOyweze3BxS3Q4eDhublpQV4feMS5+eHIZiNkPDwB740wPLv5mOHGBcWlj7Ra4zzW126WB5H9bO1Fe7u3ssiIoYMEe+a1mDk/v3iXbyPUdWrq85133JEEIa3aYPvHAfm//Lll2wEEBFpG2/SRFbNw8PHJyJC3d2F09KSk4ODebMzKl6WE//8inZ/ZPXYuhXDESfWtG+vOldxk+MQgCOrV5t3OdcU50aOzIw/aTQmXL2qOpetcG9W5erCZo8+KmoYppgihg/HZgCPP/ccHkE1PFyrVuFfPI2z+PvUKYxDU7jt3i2/Mr9g99SSJekHU11HHvzzT9XPw1ZUKP9IzZjocuXsZ+WsyhqwZAneEX3Fsj59VOcqdgWTKPaZpsddNnbrdi7oXFBQ0I0bqmORbWH9R/Tg+INLVo1vAGRLbOYT//sk38Z4RCUmYpg4LHb275/ukLTSWG3PHtW5iIqD5dIXsyemyvpr1ojaohGq/b8GjK1ykjFYvGcPWuSutG/QpUtaXFrciI3XrqmORbaB9R/Rg+MlAEREihV+4n/dbkv2xc8/18uJv4Vl9FmEyIbyxs6dHk/4/BXpN2NGdVldrpDOzqrzEd0Py8+t+wmf0Ei7WbPkJGEv8/fu1c2Jv4Xl0oAWTjfyG23ZYnmdUx2LiEjv2AAgIlLktlH/WTgK13btVOdSJhYLsM3eHhfQRvpPmnT9an7m1bG//uo22PvRqMG2dwkE2RaPgKqnIsq3bn0j2LTwaseffhItEScXTJyI3YhDNzs71fmUKXhdy3/X4JO9ICGB9wggIlKLDQAiolJ26yf+tnqNf1FZPjE17BcVzV/v2OGx3Kd9pN/SpVwrSFpgWdvn0cQ7IaLaBx/gN/kqKnz7LdZjDl54/HHV+TSHEwFERJrABgARUSnhJ/4PKA3JCBECb+JP6f/GG6ZN9uVl5dOnPaS3jJBTp9aOrB0Z6efkpDom2bqmTWKiHRwsWyzM5e3H5x78808kicEYM2hQ4c8p/TfLRMBQQ3Z29W3bOBFARFS62AAgIiphXr5evnM/Kls2/w+7eTnvfPEFP/EvInvEofFDD8FTVEXklClXYrN3yp9//tn9WJUfIk707AkAU6SB729UZFOkweDev6pXxJjevT1qXcjPtv/tN9FDhKBTeDh2i0BMK1dOdUar5S7m4njr1vBxOmLas3Wr5XVSdSwiIlvHAomIqIRYPvE3D3F4wqHrli1Ygyw5qW1b1blsznH8iAmPPiqeM7yMLzdscJ/lvc+t6s8/e7h7VwkPCwgAACn5ySzdG8/FVfpG/tyxo0cNn0UVh/z4o0iQDqi2fj2uIhPX69RRnc/mFLwumnfYP+/oyXsEEBGVNDYAyLq5YQyG//13qT9uXTkd17mvnP5d4Sf+OwxDsrd/+SU/8S9dYoHoJcfVrw8hDMIQG+vh6BMaeenwYbfNPjUj/V591TLKrTonqXbz58DTwXtmRFL//u4/+9SP+PboUTnF8K3ctX07rmMWnnjySdUpdcMyEQDH2Hx8/jknAug/sf4jemBsAJB1myQ9EJqUVNoPKwfBHxXOnlX99ElbLAWrubz9V45bvvgCu0VVtHnuOdW57moxAmS/nTtlA/keMubNUx2n2JVDHFY3bmwYjDzpv2aNx4wL1XNmnTrlWcFnU8T6sWNdn/EJXfBMxYqqY1LJsnyfPRJ9QiOjx43zGHVBZp89fVqWF4vx6UcfiQ64gp8aNlSds7gV/l4X/J6rznNXBa+bltdRNgLoX7H+I3pgbACQddsqDqHv9u2l/bCiLnpg/VdfqX76pA2Fo/7+Do6OiVu3Ws2Jfy25Ez2//RaxOckOQd27p+9MGRg8fdw46SfycLZPH3kEVbDxxg3VMYtdOA7K0VWrSnuMxMW5cx1HyVF2r6Smerj7LI+sEBtrGQEHeOmANXN3r1YtIqJpU4/dPqERETExjp9gn51DUhKeQpzMef99fIw0ePn4qM5Z3ORa+RdmZ2fjTfMxXB040PJ77bQfMHd9/nk5Bqsxd8cO1TnvytIIKLg0wG2z2+Y5fzz8sOpYpBGs/4geGAsbsmpevlW9IsY88YS5vOyLo0eOlPi+5bYIwFaTyXTN4CzsGzbMjD87y5hw7Jjq40BqFH7i/7f9IkffL7/EKdEesc8+qzrXXRV8EmifaXrcZWO3bueCzgUFBd1+ou+2ueqcqE1PPWXYIT82//DZZ7Z6wnQn8qQ8irOnTonBaAF8/LHIwCfy2djYiztTGoR0//ln1fnoJo/vvVtFlWvUCC3FKPMjvXrJY7I2vu3VS7QWL+LDRx5Rna/UhKCZWJCUJK+b/EytX3wxfea5oNC1hw/f+tdu20ZiLZcoFTQsDQ/nj8jd3qXLhe0Xto8bcP266likBus/ogfHBgDZhJtrmRYuvHl35hEjSuyBqqCWfCoyMu1o8jchrYKDVT9vUqPwJlVJjjPyo774wtZO/G9VKbBSYKSfh4cpwX63OXrVKuQjT2z291f9dJTpgwnY8scf2InnhcOnn6KuMMsD8fFpcUm1Mi8dOAAA00R+vuqYtmSKtLd3X+tzrsJ7LVuKAfhGfOrnh5fxPRa9/DJ2Iw4HH3tMdUZl2iIAU774wr6j6fG8HQMHngs6FzT2qfT0u/0za28EoGruZPtRXbumxaXFjdh47ZrqWKQG6z+i+8cGANmIerFTpKOj+8irmRU///JLsQHv4XSHDsX11S0jk+kTvcY4v9WlC3DocNDQvDzVz5pKl95O/P+NlEJ4JPqERsWMHYsV8in504wZWCQmoB5vqode8mtUuXwZH4s9Ysj27Tgl1qL5rl3iiGwsVu7de/G55LB0r99+A4BpwmxWHVdLpkiDwbO99y8VtjzxhJwkHsfTrVvLKnheXGvfXkyRY9GsY0eu3SswQs7Bsbw8OVt0lV3efDM9O7l88AsLFgCAEFLe75djI4CsG+s/ovvFBgDZmII3gpQrTd38588XIWKhzB827L5HwwpGvfAnDstpixalHfX62+WXsWP5wq9PPPH/d54nvEdF+j3zjNkTU2X9NWtEbdEI1WrVUv20NautXIEpV65grxgij+zfj9bSQUQdPiynyTUY+vPP5hRzI/PuX37J9D3vdHnwiROA9U8STJH29hX9q73p5v/oo4bu8m9zaoMGYqEcY6jSsCEy0N4c/eSTaC2XisYtW/IE/y5cURFlT5ww/YIOok+/fpllksOMZX/4obi+PBsBZN1Y/xHdKzYAyKZ5Ham6d0Fi/frmn6W7fZ3XX5dmWU5G+PqKUPE+fqhRw/L3ZJgcj6fPnLHc3MU01e5ZUeaDD3iNl74Vnvh/5zgw/5cvv0SOCMLwNm1U57qrEj7xv5XlXgimlfbRTutmzxa+4lV5fMQIpCEZIbyJ3v2S4fJb5ObkiCSsxZDTpxEhPpSXzpyR78l+hrp//SU6imsIO3NG1JYesuv58+YdeBRDMzLs3kM7ac7IMG809DDI9HQHYdpsyLh8+XpV+ycMgWazY6es5nJnXt6tJ0iWn/Pcr1y+F+0dHMom5f9qXmEw5L1umJJrV6GC4bJ8y1DBzc30FnYJg5uboSP+RLSbmzwp0sQXlSrJGHlKTqxZU6wQv8gjNWogAKPF6zVryuayK/xq1hQh4lk4OjmpPq5Wpx6eQS2zGZ6oiopRUfYdTY87/zJpUkn/PlttI8BJxmDxnj1okbvSvkGXLmwE6BvrP6I7Y2FGRHQLnvgXjZv0lmGybVvxLT4xPP/hhzevzaxZU/XhIbIGlptP4nORK8sPGpT+anLlkLe//ba0c7ARQERkm7gGkIioQOG+aR+nI6Y9W7dazYn/Lev8VJ34W2SIFBEqdu923iT2mTLq18dFmQTjtGmWT7ZVHy4iTSm4pt9ykzExOHeofWLjxqpO/C0sryNWtz6w4HVbhjsNyVvH9YFERLfiBAAR6V7hOr8nHM44jfv8c6xBlpzUtq3qXHdlZde+3rxbc506N/+X5a7NnTqpzkWkRFuZhD3ffGO6ZjdJXBs+XOsjxz6hPqELnnFxyfbCC3bJW7aI+eiPcR07qs51N/ILTELO/v3yXJZ39gt+fhndM7pPePzvv1XnIiJShQ0AItItyydDhhedzzif+fJLuIu5ON66tepcd6WRUf+ikFII9+iqIyMa9eyJduaBYt/Mmbrb2076ch1XxLyTJ1FGPmwePWlSWnpKakhoXJzqWPfLai8NSJfj8NjeveZN2TWya3TpwkYAEekVGwBEpDv8xF9rmjaJiXZwcHc/Pyw7JzAQP4rrGP/uu6IZ5uF9T0/V6YgeyAzkoF1mJi7Is2L8+++XK+eyDAgPP2k8aTQmWP+lMJwIICKyTmwAEJFu8BN/61BOVpdhsnx5R+TDgJAQjMKf2BgcjA2iA1LLl1edj+hfGeUJrLl0SR4Wk4RbeLhpl+MmpxcjIi5dPv1X0NArV1THKymcCCAisi5sABCRzeMn/tatsHHzs3Mnl5Dhw+Elqsn3x4/HZDhhV8WKqvORPslZ8ML3GRnidfkj1i5cmAt7mBEefkUkilBx+bLqfKXN2icCzFOc88VOf//M+JNGY8LVq6pzERGVFDYAiMhmWU4cxVMuZZweiY8XjREolrRqpTrXXensE//7Vfh9bevc2mVfYCAAyGNGo6gtGqFarVqq85GNckVFlD1xAk3QQeZFRgI5yQ5fr1yp18bcnVjrRIA8ghVy2L598sesGzmn/f05EUBEtooNACKyOTzx158p0mDw/LRqvYq/dOsmz8ia2BwcjOXIwIdt2yINyQgRfL+je+MBH4RLKQdgFvK+/loONx8XT0RGZrimDs2I/+ILAJgmzGbVMbWOjQAiIm1iQURENqNw1L+8/VeOW774ArtFVbR57jnVue6Ko/4losL6KpPnt6la1f6keMuhbN++spxYJk8OGybexfsYVb266nykEeVlPNqcOyfDxDD5yEcfiTbCwdB72bK0ckm7jAmnTqmOZ+2s9tKApQgQs7/7zrzUuSYa+fnx0gAishVsABCR1avoXzsy0s/V1TAt2162j48XXTETTi1bqs51V/zEv9TFxtrZuU/yfuG8t58fyotacnmvXuKg7ILPXngBu0UgppUrpzojlZC2cgWmXLkie4ok8czmzfCUrtJuw4b051J6VH5t2zYA6NnTZFId01ZZ7UQA7xFARDaGDQAislo88afiUF1Wlyuks3PWZ+b6V3/p3Nm8Q1YRbXr0gB9c5QU/P/E6fkCMu7vqnHRv5OcIwKW0NJxFA3EgPl52NucCGzdWWFkmF/jqK1tZw2et2AggIlKLDQAisjo88afSMkUaDJ4nvEe5+T/9tDyM2jKkSxeYxBi82bkz9uF9rG/SBLFYgG329qqz6kZPjEbn/HxZDktR8dAhMUP+Do+EBFOWGC1ufPllZpnksIwyP/4I8Fp9LWMjgIhIDTYAiMhqFJ74D8n+C0cTEsQQxMmJLVqoznVXPPG3SYXrCde47HbObNUKv8Moprdpg8vymPyrTRtcFzvQ8sknYY84NH7oIdV5rYYbxmD433+jvOyK9J9+QidMk59/+y3GGFINn+zZg8HZ7nYP7d/Pe2XYBqttBPAeAURkpdgAICLN44k/Wasp0mBwa1o5xr3po4/iHbvZ0rNpUxEhp8inGzcWbuIoIuvWxRdYLh5+7DEEYprcXqOGzU0UFHxijwSsxN6//sKLGIkOx4/Ln6QjVvzxh1wvjiLyp59wwHxE9j50KKN76q5LS06cAPgJvp6wEUBEVDrYACAizeKJP+lLvdgp0tHRremlS+5NH3nEsNP+Y+lZrRoGwx2DqlSR+dIHH1arJqLQ2BxWpYq8inXC3t0di/ES/ihfXhxGDRFUoYJcId3l8fLl4ST2wv2hh8RqGYSGDg6FD3NeLMHqhx8u/N+V5DD0/9+aM9lfxODnvDzkyNZIv3ZNvIWf8OGlS9JLmPDI5cuYg+N499IlvI5ALE5PRw5WiLfOnRNtzNNkq8RE8bndDtkwNdUUbIpC/NmzGd0rX3FpfPo0cOhw0NC8PNVHmbSNjQAiopLFBgDZNPdJlWPCXm3SRHQ3fGRIevVV+Ts2ok+nTuJDxONStWqWvycHwR8Vzp4VL2Gm2Lxtm5xjfsLktm5d+sxzQaFrDx9W/Tz0pvDE//ns7dJj2zYxFT/hqWeeUZ3rrnjiT0RULKy2ETAVT+LHAwfMnzv7irTOndkIUIP1H9GdsQFANiM21s7O7WqV6PMfdukiFhsek78ajUXeN9xWTgEOHcJYrJT7IiPTmlfKcmm/fj0/ySoZVnviX0vuRM9vv0XV3Mn2o7p25bXJRETFwyfUJ3TBMy4u2V54wS55y5Yiv6+XloL6Ifcru3cdHHx9r1w5e3b48EuXVMeyRaz/iO4PGwBklSoFVgqM9PPwMD1itxgYNAjeYpLsO3w4JiDu/3d2i12OjMay8+flOjFb7l21ytwezcx+UVGZZZLDRh9ISVF9XKxVhfKP1IyJLlfObkbuE9n7EhJ44k9ERP8fGwEEAF6+Xr5LfD09zc/ab8mzCwxk/Ud0/9gAIKvgnlKleqTfk0+KE4aXpf/QobI81qN6//7CF/ZIdHFRFmy6XIeRubl4W/wp3DdvFibzX3JxePjFS6kzgvvs36/6uGkdT/yJiOh+sBGgL4Wj/J3s/jA8HRSk2fpvoLmnaV1Y2MV5qa6h/t99p/q4Ef0XNgBIc0pklKu0FbzRy10AsHRp2TT7wa7Gjz5KFIkiUGRnq46nGk/8iYioKKy9EZCTJI6Z1nfqdPVActjoA5mZqmOp17RJTLSDg4f7+fNZWS++KMeKtWL+kCFW83214KUDZAXYACCllI3ylzJ5Vr4JzwsX8LVYL/1XrjQvkk8aei9cmBmfEmVMSE5Wna+0FJ74D891yn552zaxDNewvnlz1bnuiif+RESaZLWNgDpYLuYcPpxjxrb8ar6+emsE3DbKbxB98fuIEQjHQTm6alXV+YoNLx0gDWIDgEqVZkf5S9sto2P4wDxSjI2ISOuemj1q8r59quMVN574ExFRSWIjQNvc3atVi4ho2lRsNL8CDBnC+o+XDpA6bABQibGJUf7SZmOXDvDEn4iIShMbAarVi50iHR093K+EVAjv3t1qR/lLGy8doFLEBgAVC72M8pe2Wy8dMP1tfs7UbdGiS31SZ4zZk5SkOt+d8MSfiIhUYiOgdHi2rzk4fLOXl2yXG2VYMnAgLoqWssnIkfgYafDy8VGdz2rx0gEqQWwA0APhKL8it46OTTfvxDdLl14cnrrO2HDHDtXxeOJPRERawkZA8bptlD9Xvo/ZAwaIV0VNTHR2Vp3PZvHSASpGbADQXXGU3wrccumAc39xzLR+9erksOSw0Qeyskr64XniT0REWsZGwP26ZZT/qFiFEcHBojECxZJWrVQfFirASwfoAbABQP/AUX7bIA9iLMZfvIhfsVFeWLGipC4d4Ik/ERFZEzYC/p1HQHW5qEelSmiYn2269tprHOW3Urx0gO4BGwA6x1F+nRgh5+BYXh4WiiwRu2lTUS8dsJz42y/OTcqO+eorBKMSBj79tOqneVc88SciIlhxI6As3sSvP/2UUwknTb907PigjQCO8usELx2gf8EGgI5wlJ9uU/CJgvxTJskJMTF3u3SAJ/5ERGRLbL8RcMso/5fiLZEXEiK6YiacWrZU/TRIEV46oGtsANgojvLTg7jt0oF+pv6ixuLFgMts59lXrvDEn4iIbJGtNAKcqtotcPJxdCwc5f9ZVJGfjhqF3SiLZd7equOSRvHSAV1hA8BGuE+qHBP2apMmGGvYJ+aNGoV4TBVr+vQRIeJZODo5qc5HVspy6YCD2CgSzp9HOA7K0VWrqo51V4sRIPvt3GmfaXrcZWO3bueCzgUFBd24oToWERFpW+WYyjExMWXK5Fe0+yOrx9atGI44saZ9e9W57ioEzcSCpCTkyR7Sr1IlLBITUM/BQXUssk4yXH6L3Jwc+GOq7Ld+PeaZW8mxUVHpM88Fha49fFh1PioaNgCsTtMmMdEODu7RF1tmLX75ZXST3fHjqFG8K+v9kWflm/C8cMHyv0U1MQsXvbxU56Ii4ok/EREVA6ttBNB/Yv1XNPIIVshh+/Zhq9iMp6Ki0od67ncZ/umnvHTAuhhUB6D/Zhnl93jXOyvSb8IEjw8vPJdd5uRJ8bbcJF7/+GOe+N8jy5o8KacAQUHOk8RJU0TNmuku5Twye1erBinN0tyzZ+ELG1kXy6h/bE6yQ1D37jzxJyKiorC8jzjtB8xdn39ejsFqzL3/m+aSYqz/ipXlvMNyHuLhen569sKzZ90/92kdfnn27Io3fEIXPMNLTbSOEwAaw7vyF9Gtdzt9wLvd8+64VoLX+BMRUSmw2nsE6AXrP23g1gGrwAaAQrwrf9EVjnJ9LdZL/5UrzYvkk4beCxdmxqdEGROSk4vrcTzb1xwcvtnLS7bLjTIsGTiQ+3EV44k/EREpwEaANrD+szLcOqApbACUEt6Vv5hYRrl2AcDSpXdbW1dyblmrc1SswojgYF6SUcJ44k9ERBrARkApY/1nW7h1QCk2ALhNpBgAABsDSURBVEoIR/mLqJhGuUobR8dKCE/8iYhIg9gIKGas//SJlw6UKjYAiox35S8WBZ1AXEFX/BITg572sA+Ijk6LSxQjNp4/rzreg/IIqC4X9ahUCbH5yI8bOhTl8AUaBAXBSQzFG5Uqqc5nNepguZhz+LB5Aoah4YIFGd1d52TEx8UBx3pOE7m5quMREZHe3Pwk2G3z1Qlu/gEBhjlYgp9Hj8YJDJYTmjRRnc5qsP6j/8CtAyWDDYD7xFH+YnLLKFfZNPvBrsaPPkoUiSJQZGerjldybhkdGyvWivlDhvATg/tz27V/HB0jIqIS5OXr5bvE19PT/Kz9ljy7wEBeC/6AWP+x/isKXjpQLNgAuAsv36peEWOeeMK0wdxZjh0zBvGYKtb06SNCxLNwdHJSnU/zLCM9HURPNIyLM/mgj/ghMjKzTHKYsewPP6iOpxUVb/iERl5/+mm7ZKyXTxuN+FrG4ueAALwj+mKho6PqfFonw+W3yM3JwWMiE64ff2z3puiKP+fNu7A96ULw/F9/VZ2PiIisS2H9N0t+gUfHjsVxWRFXe/dm/XePWP/dE9Z/RVNY//ljquy3fr1dL8M2MW/+fNZ//40NgFsUXsvlIk/Z/TF/vtgnHLEmKAjHcACnDAbV+TTP0pmrIt7D9eho0cDuO/umMTHWPspV2iyjY/IXU4v8Q0FBIlW+hbJDh3J07B7VwzOoZTbLAbKuCIiOLjvIfvrDN8aMsf1PGIiI6EGw/isi1n/FgvVfEbH+uydsABSoLqvLFdLZ+UaY6fmr7335JWbhKFzbtVOdS+vkG3gIfb7/XgbDH49GRmZ4ubbIvLRxI6/NLm4F1xpeuPpdxQo9eogIxONPo1EswzWsb95cdTrNW4wA2W/nzjI97BaUq9i1K98IiIgIYP33oFj/lRbWf0XC+u9fsQFQwH2S9wsR5RcvFsvEYUwbNkx1Hs0pGOWSv4jpomJsrHkeGiD15jU3HOVSxzI6ZhiLX1Bl1CjRQL4jM3v25OjYv5OzZaCYuHhx+usp7xqzRoxQnYeIiNRi/XcXrP80ifXf/WH990+6bwB4tvf+JXxzw4bSJKYJu59+4qhXgfIyHm3OnZN24g28EhPDUS7rcNvomEkuwydBQbgs/LGncmXV+ZQrGA0zOIo92NWoEa8RIyLSJ9Z/d8D6zyqx/rsL1n//oPsGgPsH3m9HuixaJCaKFXL28OGq86jCUS5bxdGxf3UdV5AVFZV2I/nv4IlGo+o4RERUulj/3cT6z1ax/vtXrP8AsAEAD6NPVESH33/HeszBC48/rjpPibtllEueR7z5j8jIjE+THUIqHzyoOh6VDreXffLCzzVrJirB3/C40ai70bH5cjZOHDuWNiClX/DC+vVVxyEiotLF+o/1nx6x/mP9B7ABAPevvPMiKmdliVdFTUx0dladp7jdti99kXzS0Hvhwsz4lChjQnKy6nykDbftNzaIvvh9xAiE46AcXbWq6nzFTW5HPqpnZaU3Tj4f/GKZMqrzEBFR6WL9R8T6T3UeVXR/rZOtvvAT0Z0JX9gj0cVFdQ4iIlKD9R+R/rD+KzgOqgOo5uHh4xMRIaXqHKWmYAQMb4s/hfvmzfjAPFKMjYhI656aPWryvn2q41HpcHevVi0iomlTsdH8CjBkiCyP9ajev7/eXhjT0pKTg4OF7l8HiYj0hvUf6z89Yv13k97rP90+cQvdvQHcSVs5BTh0SO4CgKVLy6bZD3Y1fvQR92Vau5s3gfFwvxJSIbx7dzlWrBXzhwwR89Ef4zp2VJ1ONb2/ARAR6RXrvwKs/2wU67//ovf6T7dP3IJvAP+O145ZJ8/2NQeHb/byku1yowxLBg609Wu5ikrvbwBERHrF+u/fsf6zTqz/7o/e6z/dPnELvgHcI46OaRJHuYpG728ARER6xfrvHrH+0yTWf0Wj9/pPt0/cgm8ARcTRsVLCUa6SoPc3ACIivWL9V0Ss/0oJ67+SoPf6T7dP3IJvAMWLo2PF47ZRrouipWwyciQ+Rhq8fHxU57MVen8DICLSK9Z/xYv1X/Fg/Vc69F7/6faJW/ANoITdMjomppt34pulSy8OT11nbLhjh+p4WnHbKFeufB+zBwzgmqKSpfc3ACIivWL9V8JY/90T1n9q6L3+0+0Tt+AbgCK3jI459xfHTOtXr04OSw4bfSArS3W8knPLKNdRsQojgoNFYwSKJa1aqU6nN3p/AyAi0ivWf4qw/mP9pwF6r/90+8Qt+AagDbY6OsZRLm3T+xsAEZFesf7TBtZ/pILe6z/dPnELvgFolJWOjnGUy7ro/Q2AiEivWP9pFOs/KgV6r/90+8Qt+AZgZTQzOsZRLlug9zcAIiK9Yv1nZVj/UTHSe/1nUB1A99qKFqJyYCDqYLmYc/iw6jiat1tMA5o2FUJMA2Jicj6QHeyunT7tIb1lhJw61X1StYSwVytXLu6HtXxdy+N4uF4pU7FBYiKEMAhDbCxf+O+R5efc8nNPRESkR6z/7g/rP+vG+k9TdNv5sFDdAb61A2UZIcJ48ys4Ehwsbsin4Ni7NxaJCajn4KD6eGleMY2OcZSriNoiAFtNJlRDXSyLjxe1zLvF3xERt34ftPb7R0RE+qC19x/Wf0XE+k8bWP9ZBd0+cQut/wB6BFSXi3pUqoSG+dmma6+9hp9FFfnpqFHYjbJY5u2tKrfVuePomGuLK9+ZTBzlKhp5EGMx/uJF/IqN8sKKFaZ+pv6ixuLFly6fCwq+fPbsnf6d1n//iIjINmn9/Yf1XzFh/VeiWP9ZJ90+cQtr+wGsHVk7MtLPyelK86wNZtdevTAPA0Uro9EyGqXqeVibwrvOFhDVxCxc9PJSnctqFLyhYixWyn2RkeW+d+lluLphw0njSaMxISfnXr+Mtf3+ERGRbbC29x/Wf8WD9V8Rsf6zCbp94ha28gPI0TEqEfc4yvWgbOX3j4iIrIutvP+w/qMSwfrPptmrDkDFIz397Nng4EOHMB5hwIABN0fHxo+HMf9lUzxHx+je3DbK9be5jGnjokWX+qQOGVMzKUl1PiIiIvof1n9UHFj/6Qu3ANiotLhEMWLj+fNpb6e4GBPmzEmLc43JdHnkEUhpluaePeUXmISc/ftV5yTFCu7KKqWcAgQFOUcg0fRkjRrpzyfvDSk/ceKlPqkzxuzhCz8REZE1YP1H94T1n65xAkA3jvWcJnJz09IBIC4OT2M4EBfHu53qxAg5B8fy8rBQZInYTZv+391x/YzBBaNcwQDCVAclIiKi4sP6T9dY/9G/YANA5wpHx9oiDAgK8mxf8+/wze+8I425JwxLBg7ERdFSNhk5Eh8jDV4+Pqrz0r25fZRLHjN1W7ToUnrKjDGXkpIwHEBD1SmJiIhIBdZ/ton1H90LXgJA/3Bx51/LQ7pfuFA4Ohbl+mbmjFq1CkfHjmCFHLZvn+qcdAvLmhuOchEREdF9Yv1npVj/0QPgBADdxS2jY97wRShHx5SZLtdhZG4u3hZ/CvfNm//fKNcb/7grK0e5iIiI6IGx/tMU1n9UjNgAoAfC0bHSUbiv9muxXvqvXGn6W24zteUoFxEREZU+1n+lg/UflSQ2AKhYWEbHsBPLgTlzgHqxU+LDwjzcr4RUCO/eXR4VqzAiOFg0RqBY0qqV6ryaZRnl2gUAS5c6TxLHTBGrVyeHJe8d3ScrC8Be1RGp9Hh+4xMadb5BA2nEYdOpwYNlbznT0KtDB4wVC+S2GjVEFXyPHWXLqs5JRPojU9EcHa9fxzw5WnQ+c0YcFhtl7I4dhstiHT5ZvvzC9qQLwfN//VV1TipZrP+KCes/KkVCdQDVPDx8fCIipFT1+GlpycnBwUI334fbRsfKYz2q9+8vfGGPRBcX1flKzZ1Hudb9Y5TLxvH3759qR9aOjPRzcrp8PmuHPBAWJvYJR6wJCsIxHMApA+/ZQkTa1xYB2GoyyZGyFZyio9OfK2fO/Hz0aMtIuep4Fnz/KV2s/wqw/gPA3z/VWFBSqbKMjqW1TQ4LDg4KMox2eF6KmjVhlCdE/MSJCEEzscD2blZiGeWSK1BDvjZnjmkL4kTXWrXS0pMHGy/17Km3F376J8uJ/5X87G2yVXy8WCYOY9qwYTzxJyKrsxtx6GZnJ3qIEHQaMcIj7up3FTLj44F6sVOko6PqeKQG6z/Wf6QdLCxJqdvuOjvZtU/Gmdq1C+86OwarMdcKXxhvuStrWWf74a69/3dX1sz4lChjQnKy6pikDZf3Z7eV74WHYxaOwrVdO9V5iIiKzXDEiTXt27unXGnq5j9/vuo4pA2s/4jUYQOANMZy19mU1JDQuLj0icntgpN9faU0GICnnkIcAoClS+V25KN6VpbqtIWjXBJTxdS4OCw3pxuutW6dFpfyRnDwU0+lp6e8ERy8dGmiSBSBIjtbdVzSFss1/uIcpuP8kCGq8xARlRQRIhbK/GHDvI5U3bsgsX591XlIa1j/EZUW3gSQrMKtd531CKguF/WYMgUwVc1vc+6csmA77dvY96pePS098dkRl86fR3cAk1UfLbIWlpv7IRWnBEf9iciWFVwaYO4mg+zrvP76zT8cPVp1LNI21n9ExY8FJ1mltLhEMWLj+fPMQVZtjHxDrO/YUXUMIqLS8n/t3XuY1XWdB/DPd0DAS7joDCCDTFk+pY9r5mVNbVvzUQOttV0lg9TCDEEdhpvSaqnYY3ljYQblpj6skeAld2OrxUUicvOya7BWyD6PaQ+DSAJeSQSBmd/+EVN5R+byO+f8Xq//hufAvA/fM+e8n898zu9krdm+WeMpp+Sdg/JUKr2rVHLA7jAAAMhLQ1oemwcNyjsGQFdJ16W74oK6urxzABSVAQBAXvrFoJiT38fgAHS5vtm+caPnPYC8GAAA5OXyrCbGVd7HHgG8k+z8GBJ91qzJOwdAURkAAOTlR2l5DH/ggbxjAHSVdEicFQsWL847B0BRGQAA5KTq5TQ/7rvttjgxhsaPWlryzgPQaXY+z7Vc3e3Taa/bb887DkBRGQAA5GT9A8+sb5iycmV2SXZC9Jw1K+88AJ3myViRTb7llhcXrfnumPtXrco7DkBRGQAA5Oz5v9u39cUfjx+fnR3fjIN++tO88wB0lGxCzIsblyzZ+Kt+f9jzNxMn5p0HoOgMAAByt+qLk9O2bc/f3Hu/Fz932mnZ49nP06Kbb/bWAKDstD1vDYgPZ0c3NT3/jX4Ten3ztNMilq+4cNT27XnHAyi67nkHAKDNzkFAbUREfX2/xw/8xT83z5rV+vnswu4Hf+1rWWu2b9Z4yilpXLoh/ueDH4zucW8csc8+eacGCmhHDI3HX301m5pdFn+zenXbxf1aru7WK+11++0v/mrNzxtOWLUqYm3eSQH4CwYAACVq/RHPfGp83RNP/PGr8eMjImJ03qkAIiJiakREfDWmxtw3/PlDeQcD4J15CwAAAAAUgAEAAAAAFIABAAAAABSAAQAAAAAUgAEAAAAAFIABAAAAABSAAQAAAAAUgAEAAAAAFIABAAAAABSAAQAAAAAUgAEAAAAAFIABAAAAABSAAQAAAAAUgAEAAAAAFIABAAAAABSAAQAAAAAUgAEAAAAAFIABQM5qhtZlt5zVv3/eOaAredwDUGReBykij/vSYACQt5N2/NeOu5uba6oH3tbU5557ahYO6DX92hNOyDsWdKTq6kGDGhuPOqpm2cBxjY2zZ2dXtByw45zf/S7vXACQC/2PAtD/SlPKO0DeamoGDmxszLK8c7zFidlVEcuXZz+LiJgzZ++N3S/oPeZ732tOzWlE2ro173ilIu/z27hx7dqGhlT4n6M/O/Seq7IePWqqXxnbZ9oZZ2QT051pysiRaUqcG5eefHLe6d7M+QEUU9794R3pf7sk7/PTH95M/ysnNgBK1bI0OeKoo1JKkyNmz968dceMTXetXl3944GfmvbyddftN6S2vmnwwIF5x6TY+p70oQumLezXr+bbtVuaBk+aVFO/6bv7XfH005FSVaq6555SfeIHgJKk/1EG9L/y1j3vAOyaNCh9Nzb06xcRke6YNKnbNfGd7CfjxtU8NvDjTdULF6ZrWpfGz+fM2XDRuvljDl+yJO+8VKa2Va70g9YzI0aObN227YYYdd556cvpQ9k3evXKOx8AVBL9j1Kg/1WWwq4+tMl7hajDvWl1rNe5aVXLgnnz1k5dO3X8o1u25B2vo+V9fpW7QvSmVa5fpTvi4oaGdESMSDMr5z2KlXt+ALybvPtDh9P/ulTl9gf9rwgK/xaA7IHYEXUV9MT4ptWxrQ1R1+1//7w61mfBgCum/O2BB+Ydk9LynqtcFfbEn62LY+PkzZvzzgFAPvQ/0P+KqvADgHR/dnF8ZvXqvHN02v07Jm6KG/r2TSNidbpj0qTuL6fPdl/21FM199e+0Ph/d97Z75TaF6YNOfbYvHPStdrOve1xkA3ddl763Jo10ZQOzoZcd13cFRujXwW/x/CmbHz6bOX+3APw7vQ//a+I9D/9L8I1ACI7Lg6J4UuXpoiIUw85JO88ne7KNDxu7tHjj18MH94aEWnw8OE1N9Y2N0587LG0KDZlrzY19f7Cnj+rmnnvvU+NeWrMmPtffz3v2OyejzR9pKlpcM+em3645TOto4cOzYZE77TPmDGtN6SPx8pjjolzI2Lxzhsvbs93Ki/p22lwdsnSpRER8Y280wDQ1fQ//a+S6X9vT//7o8JvAFRNjo9mI+fMiUPjk/Hh1ta88+TmhnRCrDzmmOw3aUhaPW/ey1/f0i37SnNzzcraR6c9PXly9eWD7p/65QMOyDsm767tnNrOre0c28617ZzzzpmbE2No/KilperhtKhl2OzZeccBIB/63076X0XQ/96D/vcGhR8AbFj67F+PPePXv87Oyw5JQ2fNyjtPqfjTVWc/k85KP77yytSj5YWqfZqba2bWPjjttfnz+04csGnqouOOyztn0bWdQ9u5tJ3Tn87tL64eTEQ2LbskdZ85c/0Rz3xqfN0TT+SdB4B86H9vT/8rD/rf+6P/vVHh3wLQZu/zu1/zgdcmTHitd8urr7z4sY/FRXFv+v5JJ+Wdq2TckibFoXvsERGRbh02LIsUKYYNqxlbu7Rxj1/+MobFt7J/mD593//e8+yqTXffbXWsY7Wtcr1y7Ja7W3uffXYsiG+nf6uvz+5Ih8aTRx8dERFP7rzxoXmnLT3ZhJgXNy5Z8lf37fmTOGzixOfzDgRASdD/3oP+lyv9r330v7dX2I8/eCd1WV02N+vVa/ODO+7b9LmbbkpXprti9OjRsSoejaerCr8x8V6yNdk/Rd/169O/x47oM2dOa6+qrVVbZ8164YxnJtV/Yd26jv5+lfoxMPsvPPD66T8cMKBqa2uv1l6jRmV/H93jpZEjTXR30c6Vzmx+dn26ecaMvQd0P+gDiy69tDk1pxFp69a84wFQWvS/9tH/Oob+10763y4xAHgP/U45sF/jhMMOa7m79bPZxAkTYlFcnb4/bFgamz4dPXr2zDtfybs4uz5Wbd8em2NTHHfffem2bG30nD59w0vrrm0Y9vDD7f3nK+UFoG+fAVc0Ljj++OyCNDBer6+PvaN3PHLmmX85eeedZdOyB2Pb66/HkLg6O2fBgm5nV/1numnKlPUPPLO+YcrKlXnnA6C86H/tpP/tEv2vffS/3WMA8D71H9F/RNPgmpqWg7rNiDj//KhNl2fDL7ooJsW98dKgQXnnKxsHx23p+hUrsiezZ7JJs2f3Ojetalkwb97aqWunjn901z+Xt/xeAA6956qsR4+a6lfG9pl2xhnZf6Rvpu1jx6bT4zvR8/jj87ofZef1bFbc+txz2fx0XfaLO+7IWtLnuy1rauqs3zQAUGz6XwfR//S/9tD/OoQBQAe4Kquq2n/TgFn7Dzn99DSj6qPZyjFj0pQ4Ny49+eS8s5WL7LGYGJdt2BAr4wfZ+rlzW85pOTd9cMaMl17+/YUNL69Z805/r9RfAGqG1mW3nNW/fxy+Y2vLq1/5Svw6Dcj+tb4+lsXecWttbV65y86J2VURy5fHxPiX7KGmpo3H9t+y50kLFkQsX3HhqO3b844HQPHof+2n//Gu9L9OYQDQSaqfHVDXNPgTn0i/rfrHbMioUdnB8VD84Jxz0hGxLs7aa6+885W8nR/XEYPikLh10aL04dZl6Q+NjRsuWjd/zOFLlrTdrNReAKqrBw1qbDzqqLis9cx4vKEhvZYdHT2+9CWrXLvommx+XLJtW3wrPZmqFy5MX239Ysv8qVM33LSu97ghjzySdzwAeDf6Xzvpf8Wk/3UpA4Au0rY6tqNhjwezUSNHpmuzF+PU0aNNAt+nnatjUZtuj2nTp8ey7JHs93Pn5pbnxHRcOmDEiHg2+1qMra+P38YF2aQjj8z7v6lsnBib4+vPPptdkfaLxTNndm/c/uk0a86c5+Y+N3fM/Rs35h0PANpD/+sg+l9l0f9yZQCQI6tjFI5VLgAKTv+jcPS/kmIAUGKsjlERrHIBwC7T/6gI+l9ZMAAoca46S1lwVVYA6DD6H2VB/ytLBgBlyOoYubPKBQBdSv8jd/pfRTAAqBBWx+gUVrkAoGTpf3QK/a+iGQBUKKtj7BarXABQtvQ/dov+VygGAAVidYy3sMoFABVN/+Mt9L9CMwAoOKtjBWGVCwDYSf8rCP2Pt2EAwBtYHasQVrkAgF2k/1UI/Y9dYADAe7I6VgascgEAHUj/KwP6H7vBAIDdYnUsJ1a5AICc6H850f/oQAYAdAirY53EKhcAUKL0v06i/9GJDADoNFbHdoNVLgCgjOl/u0H/owsZANClrI7tZJULACgI/W8n/Y8SYABArgqzOmaVCwAgIvQ//Y88GQBQcipidcwqFwDALtP/oGsYAFAWSnZ1zCoXAECn0P+g4xkAUJZyWx2zygUAkAv9D9rPAICK0SmrY1a5AABKlv4H748BABWt+vIDZk/98pFHpklVK7u9MHx49mi6LXv01FPTtdktcVldXdvtsivSxXFDc3P6ZHZB+uTixdn1rYe17D9//vPf+f2F4+5csSLv+wEAwK7R/wAAAAAAAAAAAAAAAAAAAAAAAAAAAAAAAAAAAAAAAAAAAAAAAAAAAAAAAAAAAAAAAAAAAAAAAAAAAAAAAAAAAAAAAAAAAAAAAAAAAAAAAAAAAAAAAAAAAAAAAAAAAAAAAAAAAAAAAAAAAAAAAAAAAAAAAAAAAAAAAAAAAAAAAACg/f4fexL/IR7MV5sAAAAldEVYdGRhdGU6Y3JlYXRlADIwMjMtMDMtMzBUMTA6MDM6NTYrMDA6MDCYIHe0AAAAJXRFWHRkYXRlOm1vZGlmeQAyMDIzLTAzLTMwVDEwOjAzOjU2KzAwOjAw6X3PCAAAACh0RVh0ZGF0ZTp0aW1lc3RhbXAAMjAyMy0wMy0zMFQxMDowMzo1NiswMDowML5o7tcAAAAASUVORK5CYII=;" parent="1" vertex="1">
          <mxGeometry x="700" y="410" width="112" height="112" as="geometry" />
        </mxCell>
        <mxCell id="t3a6bA_m1dEb0LeNE2pt-17" value="" style="endArrow=none;endFill=0;endSize=12;html=1;rounded=0;startArrow=classic;startFill=1;" parent="1" edge="1">
          <mxGeometry width="160" relative="1" as="geometry">
            <mxPoint x="510" y="480" as="sourcePoint" />
            <mxPoint x="670" y="480" as="targetPoint" />
          </mxGeometry>
        </mxCell>
        <mxCell id="t3a6bA_m1dEb0LeNE2pt-19" value="" style="endArrow=none;endFill=0;endSize=12;html=1;rounded=0;startArrow=classic;startFill=1;" parent="1" edge="1">
          <mxGeometry width="160" relative="1" as="geometry">
            <mxPoint x="672" y="465.44" as="sourcePoint" />
            <mxPoint x="510" y="465.44" as="targetPoint" />
          </mxGeometry>
        </mxCell>
        <mxCell id="t3a6bA_m1dEb0LeNE2pt-20" value="" style="endArrow=none;endFill=0;endSize=12;html=1;rounded=0;startArrow=classic;startFill=1;" parent="1" edge="1">
          <mxGeometry width="160" relative="1" as="geometry">
            <mxPoint x="240" y="480" as="sourcePoint" />
            <mxPoint x="400" y="480" as="targetPoint" />
          </mxGeometry>
        </mxCell>
        <mxCell id="t3a6bA_m1dEb0LeNE2pt-21" value="" style="endArrow=none;endFill=0;endSize=12;html=1;rounded=0;startArrow=classic;startFill=1;" parent="1" edge="1">
          <mxGeometry width="160" relative="1" as="geometry">
            <mxPoint x="402" y="465.44" as="sourcePoint" />
            <mxPoint x="240" y="465.44" as="targetPoint" />
          </mxGeometry>
        </mxCell>
        <mxCell id="t3a6bA_m1dEb0LeNE2pt-22" value="" style="endArrow=none;endFill=0;endSize=12;html=1;rounded=0;startArrow=classic;startFill=1;" parent="1" edge="1">
          <mxGeometry width="160" relative="1" as="geometry">
            <mxPoint x="210" y="440.44" as="sourcePoint" />
            <mxPoint x="300" y="380" as="targetPoint" />
          </mxGeometry>
        </mxCell>
        <mxCell id="t3a6bA_m1dEb0LeNE2pt-23" value="" style="endArrow=none;endFill=0;endSize=12;html=1;rounded=0;startArrow=classic;startFill=1;jumpSize=6;entryX=0.985;entryY=1.252;entryDx=0;entryDy=0;entryPerimeter=0;" parent="1" target="t3a6bA_m1dEb0LeNE2pt-35" edge="1">
          <mxGeometry width="160" relative="1" as="geometry">
            <mxPoint x="73.75" y="240" as="sourcePoint" />
            <mxPoint x="240" y="200" as="targetPoint" />
          </mxGeometry>
        </mxCell>
        <mxCell id="t3a6bA_m1dEb0LeNE2pt-24" value="" style="endArrow=none;endFill=0;endSize=12;html=1;rounded=0;startArrow=classic;startFill=1;" parent="1" edge="1">
          <mxGeometry width="160" relative="1" as="geometry">
            <mxPoint x="260" y="330" as="sourcePoint" />
            <mxPoint x="90" y="280" as="targetPoint" />
          </mxGeometry>
        </mxCell>
        <mxCell id="t3a6bA_m1dEb0LeNE2pt-29" value="" style="html=1;points=[];perimeter=orthogonalPerimeter;outlineConnect=0;targetShapes=umlLifeline;portConstraint=eastwest;newEdgeStyle={&quot;edgeStyle&quot;:&quot;elbowEdgeStyle&quot;,&quot;elbow&quot;:&quot;vertical&quot;,&quot;curved&quot;:0,&quot;rounded&quot;:0};" parent="1" vertex="1">
          <mxGeometry x="70" y="490" width="10" height="80" as="geometry" />
        </mxCell>
        <mxCell id="t3a6bA_m1dEb0LeNE2pt-30" value="4a) Check()" style="html=1;verticalAlign=bottom;endArrow=block;edgeStyle=elbowEdgeStyle;elbow=vertical;curved=0;rounded=0;fontSize=12;labelBackgroundColor=none;" parent="1" target="t3a6bA_m1dEb0LeNE2pt-29" edge="1">
          <mxGeometry x="-0.1429" relative="1" as="geometry">
            <mxPoint x="150" y="490" as="sourcePoint" />
            <mxPoint as="offset" />
          </mxGeometry>
        </mxCell>
        <mxCell id="t3a6bA_m1dEb0LeNE2pt-32" value="" style="endArrow=none;endFill=0;endSize=12;html=1;rounded=0;startArrow=classic;startFill=1;" parent="1" edge="1">
          <mxGeometry width="160" relative="1" as="geometry">
            <mxPoint x="60" y="320" as="sourcePoint" />
            <mxPoint x="170" y="430" as="targetPoint" />
          </mxGeometry>
        </mxCell>
        <mxCell id="t3a6bA_m1dEb0LeNE2pt-33" value="" style="endArrow=none;endFill=0;endSize=12;html=1;rounded=0;startArrow=classic;startFill=1;" parent="1" edge="1">
          <mxGeometry width="160" relative="1" as="geometry">
            <mxPoint x="240" y="220" as="sourcePoint" />
            <mxPoint x="89" y="260" as="targetPoint" />
          </mxGeometry>
        </mxCell>
        <mxCell id="t3a6bA_m1dEb0LeNE2pt-35" value="1a) Request check record&#39; integrity" style="text;html=1;strokeColor=none;fillColor=none;align=center;verticalAlign=middle;whiteSpace=wrap;rounded=0;fontFamily=Helvetica;rotation=-15;" parent="1" vertex="1">
          <mxGeometry x="50" y="181" width="189.5" height="30" as="geometry" />
        </mxCell>
        <mxCell id="t3a6bA_m1dEb0LeNE2pt-39" value="1b) Forward request" style="text;html=1;strokeColor=none;fillColor=none;align=center;verticalAlign=middle;whiteSpace=wrap;rounded=0;rotation=17;" parent="1" vertex="1">
          <mxGeometry x="100" y="306.47" width="120" height="30" as="geometry" />
        </mxCell>
        <mxCell id="t3a6bA_m1dEb0LeNE2pt-43" value="3a) Request hash + tag ID(record)" style="text;html=1;strokeColor=none;fillColor=none;align=center;verticalAlign=middle;whiteSpace=wrap;rounded=0;" parent="1" vertex="1">
          <mxGeometry x="230" y="431.5" width="190" height="30" as="geometry" />
        </mxCell>
        <mxCell id="t3a6bA_m1dEb0LeNE2pt-45" value="3b) Get hash + tag ID(record)" style="text;html=1;strokeColor=none;fillColor=none;align=center;verticalAlign=middle;whiteSpace=wrap;rounded=0;" parent="1" vertex="1">
          <mxGeometry x="500" y="431.5" width="160" height="30" as="geometry" />
        </mxCell>
        <mxCell id="t3a6bA_m1dEb0LeNE2pt-47" value="3c) Send response" style="text;html=1;strokeColor=none;fillColor=none;align=center;verticalAlign=middle;whiteSpace=wrap;rounded=0;" parent="1" vertex="1">
          <mxGeometry x="530" y="482.5" width="130" height="30" as="geometry" />
        </mxCell>
        <mxCell id="t3a6bA_m1dEb0LeNE2pt-48" value="3d) Response" style="text;html=1;strokeColor=none;fillColor=none;align=center;verticalAlign=middle;whiteSpace=wrap;rounded=0;" parent="1" vertex="1">
          <mxGeometry x="260" y="482.5" width="130" height="30" as="geometry" />
        </mxCell>
        <mxCell id="t3a6bA_m1dEb0LeNE2pt-50" value="4b) Send result" style="text;html=1;strokeColor=none;fillColor=none;align=center;verticalAlign=middle;whiteSpace=wrap;rounded=0;rotation=45;" parent="1" vertex="1">
          <mxGeometry x="60" y="350" width="130" height="30" as="geometry" />
        </mxCell>
        <mxCell id="t3a6bA_m1dEb0LeNE2pt-52" value="5) Result" style="text;html=1;strokeColor=none;fillColor=none;align=center;verticalAlign=middle;whiteSpace=wrap;rounded=0;rotation=-15;" parent="1" vertex="1">
          <mxGeometry x="95" y="240" width="130" height="30" as="geometry" />
        </mxCell>
        <mxCell id="t3a6bA_m1dEb0LeNE2pt-53" value="Node" style="text;html=1;strokeColor=none;fillColor=none;align=center;verticalAlign=middle;whiteSpace=wrap;rounded=0;fontStyle=1;fontSize=13;" parent="1" vertex="1">
          <mxGeometry x="264.5" y="207" width="60" height="30" as="geometry" />
        </mxCell>
        <mxCell id="t3a6bA_m1dEb0LeNE2pt-54" value="Private Blockchain" style="text;html=1;strokeColor=none;fillColor=none;align=center;verticalAlign=middle;whiteSpace=wrap;rounded=0;fontStyle=1;fontSize=13;" parent="1" vertex="1">
          <mxGeometry x="350" y="314" width="74" height="30" as="geometry" />
        </mxCell>
        <mxCell id="t3a6bA_m1dEb0LeNE2pt-55" value="Web App" style="text;html=1;strokeColor=none;fillColor=none;align=center;verticalAlign=middle;whiteSpace=wrap;rounded=0;fontStyle=1;fontSize=13;" parent="1" vertex="1">
          <mxGeometry x="-21" y="299" width="74" height="30" as="geometry" />
        </mxCell>
        <mxCell id="t3a6bA_m1dEb0LeNE2pt-56" value="Oracle node" style="text;html=1;strokeColor=none;fillColor=none;align=center;verticalAlign=middle;whiteSpace=wrap;rounded=0;fontStyle=1;fontSize=13;" parent="1" vertex="1">
          <mxGeometry x="403" y="512.5" width="95" height="30" as="geometry" />
        </mxCell>
        <mxCell id="t3a6bA_m1dEb0LeNE2pt-57" value="Public Blockchain" style="text;html=1;strokeColor=none;fillColor=none;align=center;verticalAlign=middle;whiteSpace=wrap;rounded=0;fontStyle=1;fontSize=13;" parent="1" vertex="1">
          <mxGeometry x="725" y="522" width="74" height="30" as="geometry" />
        </mxCell>
        <mxCell id="t3a6bA_m1dEb0LeNE2pt-58" value="Database" style="text;html=1;strokeColor=none;fillColor=none;align=center;verticalAlign=middle;whiteSpace=wrap;rounded=0;fontStyle=1;fontSize=13;" parent="1" vertex="1">
          <mxGeometry x="-14" y="474" width="74" height="30" as="geometry" />
        </mxCell>
        <mxCell id="t3a6bA_m1dEb0LeNE2pt-59" value="Smart contract" style="text;html=1;strokeColor=none;fillColor=none;align=center;verticalAlign=middle;whiteSpace=wrap;rounded=0;fontStyle=1;fontSize=13;" parent="1" vertex="1">
          <mxGeometry x="152.75" y="500" width="104.5" height="30" as="geometry" />
        </mxCell>
      </root>
    </mxGraphModel>
  </diagram>
</mxfile>
